<?xml version="1.0" encoding="UTF-8" standalone="no"?>
<svg
   width="1080"
   height="1080"
   viewBox="0 0 1080 1080"
   version="1.1"
   xmlns="http://www.w3.org/2000/svg">
  <g>
    <rect
       fill="#e3ddcd"
       width="1080"
       height="1080"
       x="0"
       y="0" />
    <g
       transform="matrix(.219 0 0 .219 434.5 254)">
      <path
         d="m 1015,8.5 c 41,40.8 26,105.1 19.9,158.3 -7.9,108.1 -34.3,216.1 -83.1,313 -34.4,71 -90,128.7 -149.2,179.4 -36.6,24 -75.7,45 -115.6,62.3 -71,25.9 -144.9,45.6 -221.1,43.6 C 365.5,766.4 267,738 166.7,741.1 85.9,769 165.9,761.7 104.9,710.7 93.1,654.5 82.5,593.7 96.8,534.9 c 10,-85.5 47,-166.7 101.3,-232.6 40.5,-48.2 91.2,-86.2 146.9,-114.5 39.5,-20.1 81.5,-35.4 124.2,-46.2 137,-40 283.5,-28.2 419.5,-72.8 C 927.1,48 971.4,39 1006,11 Z"
         fill="#535642" />
      <path
         d="m 1011,16.2 c 40.5,40.1 23.2,104.2 19.6,155.6 -7.8,106.3 -33.8,212.5 -82,307.7 C 914.7,549.3 859.7,606 801.3,655.9 765.2,679.5 726.6,700.2 687.1,717.2 617,742.7 544,762.1 468.8,760 c -99.2,1.3 -196.4,-26.6 -295.4,-23.6 -167.2,45.1 -0.8,20.2 -61,-29.9 -11.7,-55.4 -22.2,-115.1 -8,-173.1 9.9,-84.1 46.4,-164 100.1,-228.8 40,-47.4 90.1,-84.8 145.1,-112.7 39,-19.8 80.5,-34.8 122.6,-45.4 16,-4.6 32.2,-8.5 48.5,-11.9 C 641.6,109.5 768,114 886.4,75.3 924.4,54.9 968.1,46 1002.2,18.5 Z"
         fill="#868967" />
      <path
         d="m 832.6,221.3 c 10.5,24.2 -17.2,36.6 -39.2,56.2 -18.6,18.6 -46.8,34 -67,46 -19.7,14 -42.7,25.7 -68,36 -32.4,14.1 -62.9,28.5 -95.9,41.1 -28.2,15.2 -60.1,24.5 -88.2,40.5 -28.2,13 -57.8,31.3 -82.9,46.4 -28.3,16.6 -55.6,32.9 -79.8,54.4 -20.5,11.9 -32.6,25.3 -50.2,43.3 -15.3,15.4 -32.7,31.5 -46.2,49.1 -12.9,13.4 -24.2,32.3 -36.9,46.6 -11.8,12.4 -19.7,35 -30.1,47.1 -16.6,30.3 -29.3,63.1 -41.9,96.4 -13.3,29.2 -22,60.5 -28.9,93.2 -9,28.8 -5.6,84.5 -52.2,68.2 -20.8,-33.3 1.1,-77.1 7.1,-112.7 22.5,-62.6 48.6,-124.6 85.6,-179.9 14.2,-22.6 29.1,-48.2 47.4,-69 12.7,-21.9 34.4,-32.4 47.7,-53.2 17,-15.3 30.2,-34.3 47.2,-46.4 13.3,-11.4 26.7,-21 40.6,-32.6 22.2,-16.4 45.1,-27.3 67.1,-44.5 28,-16.6 52.9,-30.7 83.2,-42.2 25.7,-12.8 53,-21.1 77.4,-31.8 30,-9.9 58.1,-21.6 88.9,-29.9 22.1,-10.4 46.2,-15.9 72.1,-32.6 30.8,-19.7 59.4,-40.2 88.7,-60.4 18.3,-9.7 29.6,-36.7 54.6,-29.2 z"
         fill="#535642" />
    </g>
    <text
       style="font-size:148.6px;font-family:Epic;text-align:center;text-anchor:middle;fill:#535642"
       x="533.5"
       y="613.5">MASSAGE</text>
    <text
       style="font-size:137.8px;font-family:Epic;text-align:center;text-anchor:middle;fill:#535642"
       x="543.7"
       y="744.6">HOME</text>
    <text
       style="font-size:59.9px;font-weight:500;font-family:Metropolis;letter-spacing:0;text-align:center;text-anchor:middle;fill:#89724C"
       x="535.4"
       y="835.2">S T U D I O</text>
  </g>
</svg>
