<?xml version="1.0" encoding="UTF-8" ?>
<svg width="960"
     height="612"
     viewBox="0 0 960 612"
     xmlns="http://www.w3.org/2000/svg">
    <defs>
        <clipPath id="a">
            <path d="M271.67 449.471h181.583v81.529H271.67z" />
        </clipPath>
    </defs>
    <rect style="fill:#fff;stroke-width:2.632"
          width="132.44142"
          height="122.93925"
          x="584.40619"
          y="79.992287" />
    <path d="M 712.71315,170.31439 H 702.3153 v -0.57647 c -1.22513,0.57647 -2.44517,0.57647 -3.67031,0.57647 h -31.80961 v -5.19421 h -0.60801 v 5.19421 h -10.40191 v -5.77168 c -1.77931,0.56846 -3.63782,0.8607 -5.50748,0.86571 h -0.91148 v 4.90597 h -12.2401 c 0,0 -1.83314,-2.01964 -3.05715,-3.17457 -0.91665,1.15493 -3.05834,3.17457 -3.05834,3.17457 h -19.27112 v -21.06206 h 19.57564 c 0,0 2.14067,2.30787 3.36578,3.4628 1.22509,-1.15493 3.36176,-3.4628 3.36176,-3.4628 h 14.0722 c 0.60696,0 2.14167,0 3.67029,0.57646 v -0.57646 h 12.84707 c 0.60801,0 2.1417,0 3.9738,0.57646 v -0.57646 h 18.96256 v 0.57646 c 1.8382,-0.57646 3.36685,-0.57646 3.67033,-0.57646 h 10.70641 v 0.57646 c 1.83716,-0.57646 3.36579,-0.57646 3.67029,-0.57646 H 717.299 V 79.7288 H 584.25251 v 53.94891 l 4.59092,-10.10119 h 9.78478 l 1.22513,2.59711 v -2.59711 h 11.62295 c 0,0 1.83212,3.75204 2.44519,5.48345 0.91553,-1.73141 2.44922,-5.48345 2.44922,-5.48345 h 35.78447 c 0.60696,0 2.14167,0 3.9738,0.57647 v -0.57647 h 10.40291 v 1.15394 c 1.52862,-0.8657 3.36072,-1.44317 4.88935,-1.44317 0,0 5.50749,0 5.81196,0.28923 h 9.78988 c 0,0 0.91552,2.30887 1.2251,2.59711 v -2.59711 h 10.70135 c 0,0 1.52862,2.30887 1.83719,2.59711 v -2.59711 h 10.39782 v 21.06307 h -10.39782 c 0,0 -1.52863,-2.30887 -1.83719,-2.88634 v 2.88634 h -13.15158 c 0,0 -1.22007,-2.59811 -1.52863,-3.17457 h -3.3668 c -0.3035,0.57646 -1.52863,3.17457 -1.52863,3.17457 h -8.86315 c -1.22514,0 -2.44512,-0.57747 -3.67029,-1.15494 v 1.44317 h -16.51739 v -5.19521 h -0.60799 v 5.19521 h -32.12939 c 0,-0.28823 -7.64308,0 -7.64308,0 0,0 0,-0.28823 -0.30448,-0.28823 l -13.15565,0.28823 c 0,0 -1.22513,-2.5971 -1.52863,-3.17457 h -3.36174 c -0.3035,0.8657 -1.5286,3.17457 -1.5286,3.17457 H 583.948 v 57.98398 h 133.0475 v -33.17388 c -0.60696,0.28824 -2.14166,0.57647 -3.67029,0.57647 h -0.607 z"
          fill="#0087b1" />
    <rect style="fill:#fff;stroke-width:2.01"
          width="121.953"
          height="77.838997"
          x="60.730999"
          y="102.78663" />
    <rect style="fill:#fff;stroke-width:1.971"
          width="121.353"
          height="75.216888"
          x="236.04601"
          y="103.68381" />
    <path d="m 80.972,130.855 7.14,26.946 h 8.287 l 12.897,-31.207 h -8.407 l -8.124,21.189 -3.339,-16.582 z"
          fill="#1a1f71" />
    <path d="m 112.437,126.478 -4.952,31.323 h 7.832 l 5.063,-31.323 z"
          fill="#1a1f71" />
    <path d="m 143.407,133.964 1.15,-6.56 c -2.435,-0.889 -5.005,-1.356 -7.597,-1.381 -4.148,0 -13.128,2.647 -13.128,10.358 0,7.711 11.164,8.062 11.164,12.32 0,4.257 -10.017,3.802 -13.011,1.04 l -1.26,6.792 c 0,0 4.489,1.729 8.518,1.729 4.028,0 14.054,-0.921 14.054,-10.938 0,-8.755 -11.172,-7.026 -11.172,-12.321 0,0 1.149,-5.297 11.283,-1.04 z"
          fill="#1a1f71" />
    <path fill-rule="evenodd"
          clip-rule="evenodd"
          d="m 151.466,157.802 h -8.636 c 0,0 10.538,-24.74 11.633,-27.635 1.155,-3.051 3.682,-3.338 3.682,-3.338 h 6.909 l 6.869,30.932 h -7.485 l -0.882,-4.452 h -10.592 z m 3.797,-10.94 h 7.026 l -2.648,-11.515 z"
          fill="#1a1f71" />
    <path d="m 91.886,143.444 -2.464,-12.242 c 0,0 -0.333,-4.598 -3.609,-4.598 H 72.4336 v 0.638 c 0,0 13.2304,2.194 19.4494,16.204 z"
          fill="#1a1f71" />
    <path d="M 182.642,169.439 H 60.6885 v 11.086 H 182.642 Z"
          fill="#f8b600" />
    <path d="M 182.642,102.916 H 60.6885 v 11.087 H 182.642 Z"
          fill="#1a1f71" />
    <path d="M 411.765,76.57635 H 528.1631 V 204.2251 H 411.765 V 76.5708 Z"
          fill="#272756"
          style="stroke-width:.941" />
    <path fill-rule="evenodd"
          clip-rule="evenodd"
          d="M 414.67448,79.523741 H 525.25644 V 159.471 H 414.68013 V 79.523741 Z"
          fill="#fafbfc"
          style="stroke-width:.941" />
    <path d="M 497.93195,94.031267 476.2383,146.45688 h -14.16456 l -10.68221,-41.83991 c -0.64906,-2.57423 -1.21441,-3.51584 -3.17946,-4.61896 -3.23589,-1.760458 -8.54313,-3.420734 -13.22389,-4.451423 l 0.31324,-1.51532 h 22.79706 c 2.90572,0 5.52077,1.955458 6.18676,5.337249 l 5.63742,30.330384 13.94068,-35.667633 h 14.07426"
          fill="#272756"
          style="stroke-width:.941" />
    <path d="m 441.32545,168.6077 c 1.50601,-0.28973 3.59429,-0.50138 6.43886,-0.50138 3.07881,0 5.34111,0.68011 6.80761,1.98387 1.37149,1.19183 2.26701,3.10326 2.26701,5.3872 0,2.31216 -0.68857,4.22265 -1.99234,5.53206 -1.67438,1.76657 -4.31107,2.59624 -7.28922,2.59624 -0.78452,0 -1.51165,-0.0386 -2.05536,-0.14486 v 9.18749 h -4.17656 v -24.04626 z m 4.17656,11.34914 c 0.50984,0.15051 1.19841,0.18908 2.05536,0.18908 3.14559,0 5.06643,-1.6377 5.06643,-4.49075 0,-2.70723 -1.78068,-4.15586 -4.69769,-4.15586 -1.1589,0 -1.98104,0.111 -2.4241,0.21729 z m 20.5752,5.78228 -1.98198,6.9092 h -4.35058 l 7.40116,-24.36891 h 5.36933 l 7.50181,24.36891 h -4.52366 l -2.08828,-6.9092 z m 6.60631,-3.36476 -1.80891,-5.98923 c -0.44775,-1.49284 -0.82308,-3.15311 -1.17583,-4.56223 h -0.0555 c -0.3471,1.40912 -0.68857,3.11361 -1.09776,4.56223 l -1.77974,5.98923 h 5.92244 z m 16.20204,10.27396 v -10.16767 l -7.28923,-14.20689 h 4.78612 l 2.77684,6.25073 c 0.78358,1.81079 1.36585,3.17569 1.98763,4.84726 h 0.0621 c 0.58697,-1.55492 1.24262,-3.07598 2.02055,-4.84726 l 2.77685,-6.25073 h 4.75883 l -7.6702,14.09495 v 10.27396 h -4.20948 z"
          fill="#fff"
          style="stroke-width:.941" />
    <path d="m 236.024,168.039 h 121.428 v 10.824 H 236.024 Z"
          fill="#f8b600" />
    <path d="M 236.024,103.68 H 357.452 V 114.5 H 236.024 Z m 48.605,22.745 -12.543,29.753 h -8.181 l -6.173,-23.746 c -0.374,-1.458 -0.7,-1.994 -1.838,-2.611 -1.861,-1.005 -4.938,-1.946 -7.64,-2.531 l 0.187,-0.865 h 13.168 c 1.682,0 3.19,1.114 3.576,3.032 l 3.26,17.219 8.051,-20.251 z m 32.066,20.038 c 0.033,-7.848 -10.92,-8.289 -10.847,-11.792 0.024,-1.066 1.045,-2.203 3.284,-2.491 1.109,-0.144 4.166,-0.261 7.633,1.329 l 1.357,-6.311 c -2.315,-0.861 -4.768,-1.305 -7.242,-1.313 -7.653,0 -13.034,4.04 -13.079,9.831 -0.049,4.284 3.845,6.671 6.775,8.101 3.02,1.457 4.032,2.39 4.015,3.696 -0.02,1.994 -2.41,2.879 -4.633,2.911 -3.889,0.06 -6.149,-1.045 -7.945,-1.882 l -1.407,6.527 c 1.813,0.821 5.15,1.538 8.604,1.574 8.137,0 13.457,-3.993 13.481,-10.18 z m 20.208,9.715 h 7.153 l -6.251,-29.753 h -6.6 c -1.451,-0.011 -2.761,0.855 -3.3,2.183 l -11.616,27.57 h 8.129 l 1.617,-4.445 h 9.929 l 0.935,4.445 z m -8.641,-10.539 4.073,-11.173 2.345,11.173 h -6.422 z m -32.571,-19.214 -6.401,29.753 h -7.742 l 6.401,-29.753 z m 11.015,32.048 h 5.543 v 0.909 h -4.54 v 2.254 h 4.199 v 0.857 h -4.199 v 2.519 h 4.617 v 0.881 h -5.62 z m 6.868,0 h 0.935 v 7.42 h -0.935 z m 5.784,2.162 c 0.365,0.176 0.65,0.409 0.841,0.697 0.192,0.287 0.32,0.612 0.374,0.953 0.053,0.252 0.081,0.649 0.081,1.193 h -4.064 c -0.006,0.471 0.134,0.932 0.402,1.322 0.248,0.332 0.634,0.5 1.154,0.5 0.707,0.03 1.339,-0.43 1.516,-1.105 h 0.915 c -0.037,0.235 -0.118,0.46 -0.24,0.665 -0.297,0.59 -0.853,1.012 -1.508,1.145 -0.249,0.056 -0.504,0.083 -0.76,0.08 -0.664,0.012 -1.302,-0.254 -1.756,-0.733 -0.479,-0.492 -0.719,-1.177 -0.719,-2.058 0,-0.873 0.244,-1.578 0.723,-2.122 0.476,-0.538 1.172,-0.835 1.894,-0.809 0.395,0 0.773,0.088 1.147,0.268 z m 0.341,2.122 c -0.019,-0.329 -0.11,-0.651 -0.264,-0.945 -0.256,-0.44 -0.683,-0.656 -1.28,-0.656 -0.407,-0.008 -0.798,0.157 -1.073,0.452 -0.296,0.312 -0.461,0.723 -0.464,1.149 z m 5.759,-1.986 c 0.394,0.297 0.63,0.805 0.707,1.53 h -0.906 c -0.044,-0.306 -0.175,-0.594 -0.378,-0.829 -0.195,-0.224 -0.512,-0.332 -0.947,-0.332 -0.594,0 -1.016,0.28 -1.272,0.849 -0.177,0.432 -0.26,0.895 -0.244,1.361 0,0.541 0.114,0.997 0.349,1.366 0.232,0.372 0.602,0.56 1.106,0.56 0.342,0.016 0.676,-0.11 0.918,-0.348 0.244,-0.267 0.406,-0.596 0.468,-0.949 h 0.906 c -0.101,0.721 -0.366,1.241 -0.772,1.574 -0.455,0.346 -1.019,0.523 -1.593,0.5 -0.669,0.024 -1.31,-0.264 -1.732,-0.777 -0.443,-0.549 -0.674,-1.236 -0.65,-1.938 0,-0.949 0.24,-1.69 0.711,-2.218 0.45,-0.519 1.113,-0.81 1.805,-0.793 0.626,0 1.134,0.148 1.524,0.44 z m 1.825,-1.802 h 0.943 v 1.514 h 0.882 v 0.741 h -0.882 v 3.532 c 0,0.192 0.065,0.32 0.195,0.38 0.073,0.04 0.195,0.056 0.366,0.056 0.108,-0.001 0.217,-0.007 0.325,-0.016 v 0.721 c -0.111,0.03 -0.224,0.052 -0.338,0.064 -0.124,0.014 -0.249,0.021 -0.374,0.02 -0.434,0 -0.731,-0.108 -0.886,-0.328 -0.163,-0.25 -0.244,-0.544 -0.231,-0.841 v -3.588 h -0.752 v -0.741 h 0.752 v -1.51 z m 2.784,1.514 h 0.886 v 0.933 c 0.128,-0.255 0.307,-0.481 0.528,-0.665 0.284,-0.272 0.673,-0.412 1.069,-0.384 l 0.211,0.02 v 0.961 c -0.1,-0.02 -0.202,-0.03 -0.304,-0.028 -0.468,0 -0.83,0.148 -1.082,0.44 -0.248,0.284 -0.382,0.647 -0.377,1.021 v 3.112 h -0.935 v -5.41 z m 6.97,4.14 c 0.234,-0.473 0.352,-0.994 0.345,-1.521 0.018,-0.425 -0.067,-0.847 -0.247,-1.234 -0.265,-0.5 -0.716,-0.748 -1.358,-0.748 -0.569,0 -0.983,0.212 -1.24,0.636 -0.27,0.468 -0.405,1 -0.39,1.538 0,0.573 0.13,1.053 0.39,1.442 0.257,0.38 0.667,0.572 1.232,0.572 0.618,0 1.04,-0.228 1.268,-0.685 z m 0.577,-3.603 c 0.496,0.468 0.74,1.153 0.74,2.054 0.031,0.772 -0.198,1.532 -0.65,2.162 -0.435,0.573 -1.11,0.857 -2.024,0.857 -0.691,0.031 -1.358,-0.248 -1.817,-0.757 -0.447,-0.504 -0.671,-1.181 -0.671,-2.03 0,-0.909 0.236,-1.634 0.707,-2.17 0.478,-0.542 1.179,-0.84 1.907,-0.809 0.673,-0.015 1.324,0.236 1.808,0.697 z m 1.849,-0.537 h 0.882 v 0.769 c 0.224,-0.285 0.508,-0.517 0.833,-0.681 0.307,-0.142 0.642,-0.213 0.98,-0.208 0.788,0 1.317,0.264 1.593,0.801 0.172,0.396 0.25,0.826 0.228,1.257 v 3.472 h -0.947 v -3.408 c 0.011,-0.275 -0.04,-0.548 -0.151,-0.801 -0.162,-0.336 -0.463,-0.504 -0.898,-0.504 -0.184,-0.006 -0.367,0.016 -0.544,0.064 -0.264,0.08 -0.497,0.234 -0.671,0.444 -0.145,0.159 -0.25,0.35 -0.305,0.557 -0.053,0.267 -0.076,0.54 -0.069,0.813 v 2.835 h -0.935 v -5.41 z"
          fill="#1a1f71" />
    <path d="m 175.597,361.852 c 23.229,0 42.06,-19.147 42.06,-42.767 0,-23.619 -18.831,-42.766 -42.06,-42.766 -23.229,0 -42.06,19.147 -42.06,42.766 0,23.62 18.831,42.767 42.06,42.767 z"
          fill="#ff2f05" />
    <path d="m 224.669,362.564 c 23.23,0 42.061,-19.147 42.061,-42.766 0,-23.62 -18.831,-42.767 -42.061,-42.767 -23.229,0 -42.06,19.147 -42.06,42.767 0,23.619 18.831,42.766 42.06,42.766 z"
          fill="#ffbc37" />
    <path fill-rule="evenodd"
          clip-rule="evenodd"
          d="m 200.749,284.621 c 10.265,7.797 16.911,20.25 16.911,34.28 0,14.583 -7.179,27.461 -18.139,35.18 -10.266,-7.798 -16.912,-20.251 -16.912,-34.281 0,-14.583 7.179,-27.46 18.14,-35.179 z"
          fill="#ff8729" />
    <path d="m 354.944,371.55 v -6.786 c 0.08,-1.151 -0.344,-2.281 -1.164,-3.101 -0.82,-0.82 -1.957,-1.253 -3.122,-1.187 -1.541,-0.1 -3.014,0.638 -3.845,1.926 -0.756,-1.25 -2.145,-1.989 -3.616,-1.926 -1.278,-0.061 -2.493,0.551 -3.196,1.608 v -1.333 h -2.378 v 10.799 h 2.398 v -5.983 c -0.107,-0.749 0.132,-1.506 0.65,-2.062 0.518,-0.556 1.262,-0.853 2.025,-0.809 1.581,0 2.378,1.014 2.378,2.847 v 6.007 h 2.403 v -5.983 c -0.097,-0.747 0.145,-1.498 0.661,-2.052 0.516,-0.554 1.254,-0.854 2.015,-0.819 1.625,0 2.403,1.014 2.403,2.847 v 6.007 z m 13.377,-5.395 v -5.39 h -2.403 v 1.309 c -0.818,-1.044 -2.095,-1.633 -3.429,-1.583 -3.091,0.09 -5.549,2.594 -5.549,5.652 0,3.058 2.458,5.562 5.549,5.652 1.338,0.049 2.611,-0.539 3.429,-1.582 v 1.313 h 2.378 z m -8.839,0 c 0.105,-1.774 1.625,-3.14 3.421,-3.074 1.796,0.065 3.21,1.538 3.182,3.316 -0.028,1.777 -1.486,3.207 -3.284,3.218 -0.921,0.023 -1.809,-0.34 -2.446,-0.998 -0.636,-0.659 -0.962,-1.553 -0.898,-2.462 z m 59.651,-5.654 c 0.778,0 1.556,0.147 2.279,0.431 1.401,0.542 2.519,1.624 3.096,2.999 0.605,1.445 0.605,3.067 0.005,4.518 -0.576,1.375 -1.694,2.458 -3.096,2.998 -1.508,0.58 -3.18,0.58 -4.687,0 -1.389,-0.551 -2.496,-1.632 -3.072,-2.998 -0.598,-1.45 -0.599,-3.073 -0.005,-4.523 0.577,-1.365 1.684,-2.444 3.072,-2.994 0.758,-0.309 1.566,-0.47 2.378,-0.465 l 0.025,0.034 z m 0,2.264 c -0.466,-0.008 -0.929,0.075 -1.363,0.245 -0.838,0.335 -1.494,1.003 -1.808,1.842 -0.35,0.904 -0.35,1.904 0,2.808 0.313,0.839 0.97,1.508 1.808,1.842 1.316,0.505 2.807,0.23 3.85,-0.71 0.317,-0.325 0.563,-0.71 0.723,-1.132 0.351,-0.904 0.351,-1.904 0,-2.808 -0.16,-0.421 -0.406,-0.804 -0.723,-1.127 -0.325,-0.314 -0.714,-0.558 -1.14,-0.715 -0.431,-0.195 -0.898,-0.301 -1.372,-0.314 l 0.02,0.069 z m -37.891,3.39 c 0,-3.39 -2.131,-5.654 -5.183,-5.654 -2.042,0.029 -3.914,1.133 -4.91,2.897 -0.996,1.764 -0.965,3.92 0.082,5.655 1.046,1.735 2.949,2.786 4.992,2.757 1.625,0.049 3.22,-0.49 4.469,-1.519 l -1.14,-1.74 c -0.904,0.716 -2.023,1.112 -3.181,1.127 -1.634,0.138 -3.082,-1.034 -3.269,-2.646 h 8.105 c 0.035,-0.279 0.035,-0.563 0.035,-0.882 z m -8.131,-0.95 c 0.093,-1.493 1.362,-2.646 2.874,-2.612 1.495,-0.03 2.732,1.143 2.765,2.622 z m 18.134,-1.696 c -1.044,-0.595 -2.224,-0.916 -3.429,-0.931 -1.308,0 -2.081,0.481 -2.081,1.274 0,0.784 0.823,0.922 1.848,1.059 l 1.145,0.157 c 2.378,0.343 3.815,1.337 3.815,3.234 0,1.901 -1.824,3.528 -4.97,3.528 -1.685,0.044 -3.339,-0.447 -4.721,-1.402 l 1.139,-1.832 c 1.056,0.769 2.334,1.171 3.642,1.131 1.62,0 2.492,-0.475 2.492,-1.313 0,-0.607 -0.619,-0.945 -1.922,-1.127 l -1.14,-0.161 c -2.452,-0.339 -3.775,-1.421 -3.775,-3.185 0,-2.151 1.783,-3.465 4.573,-3.465 1.56,-0.049 3.101,0.343 4.444,1.132 z m 11.434,-0.612 H 398.8 v 4.875 c 0,1.127 0.391,1.813 1.58,1.813 0.742,-0.026 1.465,-0.239 2.101,-0.617 l 0.689,2.014 c -0.892,0.554 -1.923,0.843 -2.973,0.838 -2.814,0 -3.795,-1.495 -3.795,-4.004 v -4.914 h -2.22 v -2.146 h 2.22 v -3.283 h 2.398 v 3.283 h 3.879 v 2.146 z m 8.22,-2.421 c 0.574,0 1.149,0.103 1.689,0.294 l -0.728,2.264 c -0.473,-0.186 -0.978,-0.277 -1.487,-0.269 -1.555,0 -2.288,0.994 -2.288,2.778 v 6.051 h -2.379 v -10.799 h 2.354 v 1.313 c 0.594,-1.011 1.701,-1.619 2.883,-1.583 l -0.049,-0.049 z m 16.438,9.501 c 0.294,-0.003 0.578,0.106 0.793,0.304 0.261,0.25 0.375,0.614 0.303,0.966 -0.072,0.353 -0.321,0.644 -0.66,0.774 -0.137,0.06 -0.285,0.092 -0.436,0.093 -0.441,-0.004 -0.841,-0.26 -1.025,-0.657 -0.173,-0.403 -0.079,-0.87 0.238,-1.176 0.199,-0.185 0.459,-0.293 0.733,-0.304 z m 0,1.911 c 0.224,0.003 0.439,-0.085 0.595,-0.245 0.247,-0.237 0.323,-0.599 0.192,-0.914 -0.131,-0.315 -0.442,-0.52 -0.787,-0.516 -0.227,0 -0.444,0.09 -0.604,0.249 -0.296,0.319 -0.296,0.809 0,1.127 0.158,0.163 0.376,0.255 0.604,0.255 z m 0.07,-1.347 c 0.107,-0.005 0.212,0.028 0.297,0.093 0.069,0.059 0.109,0.147 0.099,0.235 0.01,0.079 -0.02,0.147 -0.074,0.206 -0.068,0.059 -0.153,0.093 -0.243,0.098 l 0.332,0.377 h -0.263 l -0.307,-0.377 h -0.104 v 0.377 h -0.218 v -1.043 z m -0.248,0.196 v 0.269 h 0.248 c 0.045,0.014 0.093,0.014 0.138,0 0.016,-0.031 0.016,-0.067 0,-0.098 0.019,-0.033 0.019,-0.074 0,-0.107 -0.045,-0.014 -0.093,-0.014 -0.138,0 l -0.248,-0.069 z"
          fill="#000" />
    <path d="m 363.233,278.377 h 36.019 v 63.994 h -36.019 z"
          fill="#7673c0" />
    <path d="m 365.522,310.374 c -0.013,-12.493 5.784,-24.298 15.721,-32.011 -16.877,-13.118 -41.112,-11.208 -55.675,4.388 -14.562,15.596 -14.562,39.641 0,55.237 14.563,15.596 38.798,17.506 55.675,4.388 -9.934,-7.712 -15.731,-19.512 -15.721,-32.002 z"
          fill="#eb001b" />
    <path d="m 447.83,310.374 c -0.006,15.581 -9.003,29.791 -23.173,36.599 -14.169,6.809 -31.025,5.022 -43.414,-4.602 9.927,-7.718 15.723,-19.516 15.723,-32.004 0,-12.489 -5.796,-24.286 -15.723,-32.004 12.389,-9.63 29.249,-11.421 43.422,-4.611 14.173,6.809 23.172,21.024 23.175,36.608 z"
          fill="#00a1df" />
    <path d="m 652.87888,141.41 v -2.879 c 0,0 -0.29782,-2.307 -2.69731,-2.307 h -3.90453 v 5.191 h -3.89955 v -15.279 h 9.90476 c 0,0 5.10178,-0.577 5.10178,4.614 0,2.595 -2.40347,3.455 -2.40347,3.455 0,0 2.10067,0.865 2.10067,3.461 v 3.749 h -4.20235 z m -6.60184,-8.93 h 4.20235 c 1.20224,0 2.10167,-0.577 2.10167,-1.442 0,-0.865 -0.89943,-1.442 -2.10167,-1.442 h -4.20235 z m 54.62757,8.93 -6.30402,-10.372 v 10.377 h -8.1019 l -1.50504,-3.173 h -7.50028 l -1.50106,3.173 h -6.00521 c 0,0 -5.3996,-0.866 -5.3996,-7.21 0,-8.646 6.30402,-8.069 6.30402,-8.352 h 5.10079 v 3.455 h -4.20235 c 0,0 -2.70229,0 -3.00011,3.46 v 1.154 c 0,5.186 4.79898,3.455 4.79898,3.455 l 5.10578,-11.529 h 5.7034 l 6.00023,13.836 v -13.836 h 5.7034 l 6.30303,10.093 v -10.093 h 4.20235 v 15.278 h -5.70241 z m -21.60839,-6.916 h 3.89955 l -1.80385,-4.609 -2.10068,4.609 z m -58.2293,6.916 v -10.655 l -5.10179,10.664 h -3.30292 l -5.10178,-10.669 v 10.665 h -8.11187 l -1.50105,-3.173 h -7.49033 l -1.50005,3.173 H 584.446 l 6.60683,-15.279 h 5.7034 l 6.29805,14.13 v -14.12 h 6.309 l 4.50017,9.506 4.50117,-9.511 h 6.30403 v 15.278 h -3.60173 z m -28.51404,-6.911 h 3.89955 l -2.10067,-4.609 z m 35.11588,6.911 v -15.269 h 12.60705 v 3.749 h -8.7075 v 2.307 h 8.4047 v 3.455 h -8.4047 v 2.595 h 8.7075 v 3.172 h -12.61203 z m 31.21533,0 v -15.269 h 4.20335 v 15.278 h -4.20335 z m 9.60296,25.948 v -2.884 c 0,0 -0.29882,-2.307 -2.69732,-2.307 h -3.90453 v 5.191 h -4.20235 v -15.279 h 9.90476 c 0,0 5.10179,-0.577 5.10179,4.614 0,2.595 -2.3995,3.455 -2.3995,3.455 0,0 1.79788,0.866 1.79788,3.461 v 3.749 z m -6.60185,-8.651 h 4.20235 c 1.20224,0 2.10068,-0.572 2.10068,-1.442 0,-0.86 -0.89844,-1.442 -2.10068,-1.442 h -4.20235 z m -20.41213,8.651 h -3.60073 l -4.20335,-4.614 -4.20235,4.614 h -15.00655 v -15.279 h 14.70873 l 4.50017,4.902 4.80397,-4.902 h 12.90587 c 0,0 5.10178,-0.577 5.10178,4.614 0,4.609 -1.79887,6.051 -6.90564,6.051 h -3.89955 v 4.902 h -4.20235 z m -4.79799,-7.498 5.10179,5.479 v -10.665 z m -18.31046,4.326 h 8.4047 l 3.89955,-4.326 -3.89955,-4.325 h -8.4047 v 2.312 h 8.4047 v 3.455 h -8.4047 z m 27.3108,-5.768 h 4.20335 c 1.20224,0 2.10068,-0.571 2.10068,-1.442 0,-0.86 -0.89844,-1.441 -2.10068,-1.441 h -4.20335 z m 50.42622,8.94 h -7.20346 v -3.461 h 6.30403 c 0,0 2.39949,0.289 2.39949,-1.153 0,-1.442 -3.29893,-1.154 -3.29893,-1.154 0,0 -5.70241,0.577 -5.70241,-4.609 0,-4.902 5.10179,-4.613 5.10179,-4.613 h 7.7991 v 3.46 h -6.29904 c 0,0 -2.10168,-0.288 -2.10168,1.153 0,1.154 3.00111,1.154 3.00111,1.154 0,0 6.30303,-0.577 6.30303,4.032 0,4.902 -3.90453,5.479 -5.40459,5.479 -0.59564,-0.288 -0.89346,-0.288 -0.89346,-0.288 z m -21.60939,0 v -15.279 h 12.60307 v 3.749 h -8.40071 v 2.307 h 8.40071 v 3.455 h -8.40071 v 2.596 h 8.40071 v 3.172 z m 36.01432,0 h -7.20246 v -3.461 h 6.309 c 0,0 2.39452,0.289 2.39452,-1.153 0,-1.442 -3.29893,-1.154 -3.29893,-1.154 0,0 -5.70241,0.577 -5.70241,-4.609 0,-4.902 5.10179,-4.613 5.10179,-4.613 h 7.7991 v 3.46 h -6.29905 c 0,0 -2.10167,-0.288 -2.10167,1.153 0,1.154 3.00011,1.154 3.00011,1.154 0,0 6.30901,-0.577 6.30901,4.032 0,4.902 -3.90453,5.479 -5.40459,5.479 -0.60062,-0.288 -0.90442,-0.288 -0.90442,-0.288 z"
          fill="#0087b1"
          style="stroke-width:.998" />
    <path d="m 364.75,477.984 v 19.489 h -6.217 v -48.135 h 16.381 c 4.2,0 7.729,1.428 10.585,4.2 2.94,2.773 4.452,6.133 4.452,10.165 0,4.116 -1.512,7.477 -4.452,10.249 -2.856,2.772 -6.385,4.116 -10.585,4.116 z m 0,-22.765 v 16.801 h 10.332 c 2.436,0 4.537,-0.84 6.133,-2.521 1.68,-1.68 2.52,-3.612 2.52,-5.88 0,-2.184 -0.84,-4.2 -2.52,-5.796 -1.596,-1.68 -3.613,-2.52 -6.133,-2.52 z"
          fill="#3c4043" />
    <path d="m 406.167,463.451 c 4.62,0 8.232,1.26 10.836,3.696 2.605,2.437 3.949,5.797 3.949,10.081 v 20.329 h -5.881 v -4.62 h -0.252 c -2.52,3.78 -5.964,5.628 -10.248,5.628 -3.613,0 -6.637,-1.092 -9.157,-3.192 -2.52,-2.1 -3.696,-4.872 -3.696,-8.064 0,-3.445 1.26,-6.133 3.864,-8.149 2.604,-2.016 6.048,-3.024 10.333,-3.024 3.696,0 6.72,0.672 9.072,2.016 v -1.428 c 0,-2.184 -0.84,-3.948 -2.52,-5.46 -1.68,-1.512 -3.696,-2.268 -5.964,-2.268 -3.445,0 -6.217,1.428 -8.233,4.368 l -5.46,-3.444 c 3.108,-4.369 7.476,-6.469 13.357,-6.469 z m -7.981,23.858 c 0,1.596 0.672,2.94 2.1,4.032 1.344,1.092 2.941,1.596 4.789,1.596 2.604,0 4.956,-1.008 6.972,-2.94 2.016,-1.932 3.024,-4.2 3.024,-6.805 -1.932,-1.512 -4.62,-2.268 -8.064,-2.268 -2.52,0 -4.621,0.588 -6.301,1.764 -1.68,1.344 -2.52,2.857 -2.52,4.621 z"
          fill="#3c4043" />
    <path d="m 454.637,464.459 -20.665,47.463 h -6.385 l 7.645,-16.633 -13.525,-30.83 h 6.72 l 9.829,23.69 h 0.168 l 9.577,-23.69 z"
          fill="#3c4043" />
    <path d="m 340.135,474.037 c 0,-2.016 -0.169,-3.948 -0.505,-5.797 h -25.957 v 10.669 h 14.953 c -0.588,3.528 -2.52,6.553 -5.545,8.569 v 6.888 h 8.905 c 5.124,-4.872 8.149,-11.929 8.149,-20.329 z"
          fill="#5280bd" />
    <path d="m 322.997,487.479 c -2.436,1.68 -5.629,2.688 -9.409,2.688 -7.224,0 -13.357,-4.872 -15.541,-11.425 h -9.156 v 7.141 c 4.536,8.988 13.86,15.205 24.697,15.205 7.477,0 13.693,-2.437 18.313,-6.637 z"
          fill="#36a954" />
    <path d="m 297.293,473.366 c 0,-1.848 0.336,-3.613 0.84,-5.293 v -7.14 h -9.157 c -1.848,3.696 -2.94,7.98 -2.94,12.433 0,4.452 1.092,8.652 2.94,12.432 l 9.157,-7.14 c -0.588,-1.68 -0.84,-3.444 -0.84,-5.292 z"
          fill="#fabc06" />
    <path d="m 313.674,456.732 c 4.032,0 7.729,1.428 10.585,4.116 l 7.896,-7.896 c -4.788,-4.453 -11.004,-7.225 -18.481,-7.225 -10.753,0 -20.161,6.217 -24.697,15.205 l 9.156,7.141 c 2.184,-6.469 8.317,-11.341 15.541,-11.341 z"
          fill="#e94435" />
    <path d="m 904.566,143.774 c 0,0 -36.136,25.432 -102.321,36.814 h 102.321 z"
          fill="#e7792b" />
    <path d="M 905.033,96.572 772.3203,96.594 V 181.55 H 905.513 l -0.008,-84.978 z m -0.481,0.966 v 83.045 H 773.2866 l -0.009,-83.04 H 904.552 Z"
          fill="#1a1918" />
    <path d="m 783.9649,122.575 h -5.5128 v 19.221 h 5.4906 c 2.9163,0 5.0273,-0.688 6.8753,-2.216 2.199,-1.81 3.482,-4.517 3.5,-7.381 0,-5.672 -4.248,-9.624 -10.3486,-9.624 z m 4.3951,14.438 c -1.184,1.066 -2.716,1.529 -5.1476,1.529 h -1.0064 v -12.708 h 1.0064 c 2.4316,0 3.9056,0.436 5.1476,1.556 1.3,1.155 2.08,2.944 2.08,4.787 0,1.843 -0.78,3.686 -2.08,4.841 z m 7.681,-14.438 h 3.763 v 19.221 h -3.763 z M 809,129.952 c -2.263,-0.832 -2.922,-1.385 -2.922,-2.423 0,-1.209 1.18,-2.131 2.801,-2.131 1.127,0 2.049,0.463 3.028,1.56 l 1.969,-2.571 c -1.566,-1.388 -3.582,-2.146 -5.665,-2.131 -3.411,0 -6.011,2.365 -6.011,5.511 0,2.648 1.211,4.001 4.742,5.268 1.47,0.517 2.227,0.863 2.601,1.097 0.7,0.412 1.129,1.169 1.126,1.987 0,1.56 -1.242,2.71 -2.916,2.71 -1.795,0 -3.238,-0.894 -4.106,-2.562 l -2.427,2.333 c 1.732,2.535 3.812,3.659 6.671,3.659 3.91,0 6.648,-2.589 6.648,-6.311 0,-3.057 -1.269,-4.437 -5.544,-5.996 z m 6.724,2.247 c 0,5.65 4.453,10.033 10.175,10.033 1.616,0 3.005,-0.319 4.715,-1.124 v -4.409 c -1.505,1.497 -2.836,2.103 -4.542,2.103 -3.785,0 -6.47,-2.742 -6.47,-6.63 0,-3.69 2.77,-6.603 6.297,-6.603 1.794,0 3.152,0.638 4.715,2.162 v -4.409 c -1.652,-0.836 -3.01,-1.183 -4.631,-1.183 -5.691,0 -10.259,4.473 -10.259,10.06 z m 44.699,3.286 -5.144,-12.91 h -4.105 l 8.18,19.715 h 2.022 l 8.327,-19.715 h -4.075 l -5.21,12.91 z m 10.981,6.311 h 10.66 v -3.254 h -6.902 v -5.188 h 6.648 V 130.1 h -6.652 v -4.27 h 6.906 v -3.255 h -10.66 z m 25.546,-13.548 c 0,-3.596 -2.484,-5.673 -6.822,-5.673 h -5.575 v 19.221 h 3.759 v -7.722 h 0.489 l 5.202,7.722 h 4.626 l -6.069,-8.095 c 2.832,-0.576 4.39,-2.509 4.39,-5.453 z m -7.543,3.178 h -1.095 v -5.825 h 1.157 c 2.338,0 3.612,0.979 3.612,2.849 0,1.933 -1.274,2.976 -3.674,2.976 z"
          fill="#1a1918" />
    <path d="m 841.997,142.421 c 5.607,0 10.152,-4.549 10.152,-10.159 0,-5.611 -4.545,-10.159 -10.152,-10.159 -5.608,0 -10.153,4.548 -10.153,10.159 0,5.61 4.545,10.159 10.153,10.159 z"
          fill="#e7792b" />
    <path d="m 531.888,455.965 c 1.701,-2.188 2.916,-5.104 2.552,-8.021 -2.552,0.122 -5.59,1.701 -7.413,3.767 -1.58,1.823 -3.038,4.861 -2.674,7.656 2.917,0.365 5.712,-1.215 7.535,-3.402 z"
          fill="#000001" />
    <path d="m 534.439,460.097 c -4.132,-0.243 -7.656,2.309 -9.601,2.309 -1.944,0 -4.982,-2.188 -8.263,-2.188 -4.254,0.122 -8.142,2.431 -10.33,6.319 -4.375,7.656 -1.215,18.958 3.16,25.156 2.066,3.038 4.618,6.441 7.899,6.319 3.16,-0.121 4.375,-2.066 8.142,-2.066 3.767,0 4.861,2.066 8.264,1.945 3.402,-0.122 5.59,-3.039 7.656,-6.198 2.43,-3.524 3.402,-6.927 3.402,-7.049 -0.121,-0.121 -6.684,-2.552 -6.684,-10.086 -0.121,-6.319 5.104,-9.357 5.348,-9.479 -2.796,-4.375 -7.413,-4.861 -8.993,-4.982 z"
          fill="#000001" />
    <path d="m 570.167,451.469 c 8.992,0 15.19,6.197 15.19,15.069 0,8.992 -6.319,15.19 -15.434,15.19 h -9.843 v 15.677 h -7.17 v -45.936 z m -10.087,24.304 h 8.142 c 6.198,0 9.722,-3.402 9.722,-9.114 0,-5.833 -3.524,-9.114 -9.722,-9.114 h -8.263 v 18.228 z"
          fill="#000001" />
    <path d="m 587.179,488.047 c 0,-5.833 4.496,-9.479 12.517,-9.965 l 9.235,-0.486 v -2.552 c 0,-3.767 -2.552,-5.955 -6.683,-5.955 -4.011,0 -6.441,1.945 -7.049,4.861 h -6.562 c 0.365,-6.076 5.59,-10.572 13.854,-10.572 8.142,0 13.367,4.253 13.367,11.058 v 23.09 h -6.562 v -5.469 h -0.121 c -1.945,3.768 -6.198,6.076 -10.573,6.076 -6.805,0 -11.423,-4.131 -11.423,-10.086 z m 21.752,-3.038 v -2.674 l -8.263,0.486 c -4.132,0.244 -6.441,2.066 -6.441,4.983 0,2.917 2.431,4.861 6.076,4.861 4.861,0 8.628,-3.281 8.628,-7.656 z"
          fill="#000001" />
    <path d="m 621.935,509.921 v -5.59 c 0.486,0.122 1.701,0.122 2.187,0.122 3.16,0 4.861,-1.337 5.955,-4.74 0,-0.121 0.608,-2.066 0.608,-2.066 l -12.153,-33.54 h 7.413 l 8.507,27.343 h 0.121 l 8.507,-27.343 h 7.291 l -12.517,35.363 c -2.916,8.142 -6.197,10.694 -13.124,10.694 -0.486,-0.121 -2.187,-0.121 -2.795,-0.243 z"
          fill="#000001" />
    <path d="m 540.525,281.088 h 31.883 c 4.451,0 7.219,3.594 6.18,8.018 l -14.843,63.135 c -1.048,4.408 -5.504,8.005 -9.958,8.005 h -31.88 c -4.444,0 -7.219,-3.597 -6.18,-8.005 l 14.85,-63.135 c 1.038,-4.424 5.492,-8.018 9.948,-8.018 z"
          fill="#e21836" />
    <path d="m 569.754,281.088 h 36.665 c 4.45,0 2.443,3.594 1.397,8.018 l -14.842,63.135 c -1.041,4.408 -0.716,8.005 -5.176,8.005 h -36.665 c -4.459,0 -7.218,-3.597 -6.171,-8.005 l 14.841,-63.135 c 1.054,-4.424 5.498,-8.018 9.951,-8.018 z"
          fill="#00447c" />
    <path d="m 604.965,281.088 h 31.883 c 4.457,0 7.225,3.594 6.178,8.018 l -14.842,63.135 c -1.047,4.408 -5.506,8.005 -9.962,8.005 h -31.869 c -4.459,0 -7.225,-3.597 -6.18,-8.005 l 14.844,-63.135 c 1.038,-4.424 5.488,-8.018 9.948,-8.018 z"
          fill="#007b84" />
    <path d="m 548.85,301.321 c -3.279,0.034 -4.247,0 -4.556,-0.072 -0.119,0.56 -2.332,10.67 -2.338,10.679 -0.476,2.045 -0.823,3.504 -2,4.445 -0.669,0.547 -1.449,0.812 -2.353,0.812 -1.454,0 -2.301,-0.716 -2.444,-2.072 l -0.027,-0.466 c 0,0 0.443,-2.74 0.443,-2.755 0,0 2.322,-9.214 2.738,-10.432 0.022,-0.069 0.028,-0.105 0.033,-0.139 -4.519,0.04 -5.321,0 -5.376,-0.072 -0.03,0.099 -0.142,0.671 -0.142,0.671 l -2.371,10.384 -0.204,0.881 -0.394,2.881 c 0,0.854 0.17,1.552 0.507,2.142 1.08,1.87 4.162,2.15 5.905,2.15 2.246,0 4.352,-0.473 5.776,-1.336 2.471,-1.446 3.118,-3.707 3.695,-5.717 l 0.267,-1.031 c 0,0 2.392,-9.569 2.798,-10.814 0.016,-0.069 0.022,-0.105 0.043,-0.139 z m 8.139,7.72 c -0.577,0 -1.631,0.139 -2.577,0.598 -0.344,0.175 -0.669,0.377 -1.011,0.578 l 0.309,-1.107 -0.169,-0.186 c -2.008,0.403 -2.457,0.457 -4.311,0.715 l -0.156,0.103 c -0.215,1.768 -0.406,3.098 -1.204,6.574 -0.304,1.281 -0.62,2.574 -0.936,3.852 l 0.086,0.162 c 1.9,-0.099 2.476,-0.099 4.128,-0.072 l 0.133,-0.144 c 0.21,-1.065 0.237,-1.314 0.702,-3.47 0.219,-1.023 0.674,-3.269 0.899,-4.069 0.412,-0.19 0.819,-0.376 1.208,-0.376 0.926,0 0.813,0.8 0.777,1.119 -0.04,0.535 -0.377,2.282 -0.723,3.783 l -0.23,0.968 c -0.161,0.716 -0.338,1.411 -0.499,2.12 l 0.07,0.141 c 1.873,-0.099 2.444,-0.099 4.044,-0.072 l 0.188,-0.144 c 0.289,-1.663 0.374,-2.108 0.887,-4.529 l 0.258,-1.112 c 0.501,-2.178 0.753,-3.282 0.373,-4.181 -0.401,-1.008 -1.363,-1.251 -2.246,-1.251 z m 9.091,2.28 c -0.995,0.189 -1.63,0.315 -2.261,0.397 -0.626,0.099 -1.236,0.189 -2.198,0.322 l -0.076,0.068 -0.07,0.055 c -0.1,0.71 -0.17,1.323 -0.303,2.045 -0.113,0.746 -0.286,1.593 -0.568,2.811 -0.218,0.933 -0.331,1.257 -0.455,1.585 -0.122,0.328 -0.255,0.647 -0.501,1.564 l 0.058,0.085 0.048,0.077 c 0.899,-0.042 1.487,-0.072 2.092,-0.077 0.604,-0.022 1.229,0 2.198,0.005 l 0.084,-0.068 0.091,-0.076 c 0.14,-0.827 0.161,-1.049 0.247,-1.453 0.084,-0.432 0.23,-1.031 0.589,-2.631 0.169,-0.751 0.358,-1.501 0.534,-2.267 0.182,-0.764 0.373,-1.516 0.555,-2.268 l -0.027,-0.09 z m 0.022,-3.074 c -0.905,-0.529 -2.493,-0.361 -3.561,0.37 -1.066,0.716 -1.187,1.732 -0.285,2.268 0.889,0.514 2.483,0.361 3.542,-0.376 1.063,-0.731 1.196,-1.738 0.304,-2.262 z m 5.47,12.249 c 1.83,0 3.706,-0.499 5.118,-1.982 1.087,-1.203 1.585,-2.992 1.758,-3.729 0.561,-2.442 0.124,-3.582 -0.426,-4.276 -0.834,-1.059 -2.309,-1.398 -3.839,-1.398 -0.92,0 -3.112,0.09 -4.824,1.653 -1.229,1.128 -1.797,2.659 -2.14,4.126 -0.346,1.495 -0.744,4.187 1.755,5.188 0.77,0.328 1.882,0.418 2.598,0.418 z m -0.143,-5.494 c 0.422,-1.85 0.92,-3.402 2.192,-3.402 0.996,0 1.068,1.155 0.625,3.011 -0.079,0.411 -0.443,1.943 -0.935,2.595 -0.343,0.481 -0.749,0.773 -1.199,0.773 -0.133,0 -0.928,0 -0.941,-1.17 -0.006,-0.577 0.113,-1.167 0.258,-1.807 z m 11.593,5.256 0.143,-0.144 c 0.203,-1.064 0.237,-1.315 0.686,-3.47 0.224,-1.023 0.689,-3.269 0.908,-4.069 0.413,-0.19 0.813,-0.376 1.214,-0.376 0.92,0 0.808,0.8 0.771,1.118 -0.033,0.536 -0.371,2.283 -0.723,3.783 l -0.218,0.969 c -0.167,0.716 -0.349,1.41 -0.51,2.12 l 0.07,0.142 c 1.879,-0.1 2.429,-0.1 4.037,-0.073 l 0.195,-0.144 c 0.282,-1.663 0.358,-2.108 0.886,-4.529 l 0.252,-1.113 c 0.504,-2.177 0.759,-3.28 0.386,-4.18 -0.413,-1.007 -1.381,-1.251 -2.253,-1.251 -0.577,0 -1.636,0.138 -2.577,0.599 -0.337,0.174 -0.674,0.375 -1.005,0.577 l 0.288,-1.106 -0.154,-0.187 c -2.007,0.403 -2.465,0.457 -4.317,0.716 l -0.143,0.102 c -0.224,1.768 -0.407,3.097 -1.205,6.574 -0.304,1.281 -0.619,2.574 -0.935,3.852 l 0.085,0.163 c 1.903,-0.1 2.471,-0.1 4.119,-0.073 z m 13.807,0.072 c 0.118,-0.571 0.819,-3.957 0.826,-3.957 0,0 0.597,-2.484 0.634,-2.574 0,0 0.188,-0.259 0.376,-0.361 h 0.277 c 2.61,0 5.558,0 7.868,-1.684 1.572,-1.155 2.647,-2.86 3.126,-4.932 0.125,-0.509 0.216,-1.113 0.216,-1.717 0,-0.794 -0.16,-1.579 -0.625,-2.193 -1.178,-1.633 -3.524,-1.663 -6.233,-1.675 -0.008,0 -1.335,0.012 -1.335,0.012 -3.467,0.043 -4.857,0.03 -5.428,-0.039 -0.048,0.25 -0.139,0.695 -0.139,0.695 0,0 -1.242,5.702 -1.242,5.711 0,0 -2.972,12.122 -3.112,12.694 3.027,-0.037 4.268,-0.037 4.791,0.02 z m 2.301,-10.128 c 0,0 1.32,-5.69 1.314,-5.669 l 0.043,-0.291 0.018,-0.223 0.528,0.054 c 0,0 2.723,0.232 2.787,0.238 1.074,0.412 1.517,1.474 1.208,2.859 -0.282,1.267 -1.111,2.331 -2.177,2.846 -0.877,0.435 -1.952,0.472 -3.059,0.472 h -0.717 z m 8.22,4.905 c -0.349,1.474 -0.75,4.165 1.737,5.124 0.792,0.334 1.502,0.434 2.224,0.398 0.763,-0.041 1.469,-0.42 2.124,-0.965 -0.06,0.224 -0.119,0.448 -0.178,0.673 l 0.113,0.144 c 1.788,-0.075 2.343,-0.075 4.28,-0.06 l 0.176,-0.133 c 0.283,-1.647 0.55,-3.247 1.285,-6.399 0.358,-1.51 0.715,-3.005 1.083,-4.508 l -0.057,-0.166 c -2.001,0.367 -2.535,0.446 -4.46,0.716 l -0.146,0.118 c -0.019,0.153 -0.039,0.3 -0.058,0.447 -0.299,-0.479 -0.733,-0.887 -1.402,-1.142 -0.856,-0.334 -2.865,0.096 -4.593,1.654 -1.214,1.113 -1.797,2.637 -2.128,4.099 z m 4.202,0.09 c 0.428,-1.816 0.92,-3.353 2.194,-3.353 0.806,0 1.23,0.737 1.144,1.994 -0.068,0.313 -0.142,0.643 -0.23,1.017 -0.127,0.539 -0.266,1.074 -0.4,1.61 -0.137,0.367 -0.296,0.712 -0.471,0.942 -0.328,0.461 -1.108,0.746 -1.557,0.746 -0.128,0 -0.914,0 -0.942,-1.148 -0.006,-0.572 0.113,-1.161 0.262,-1.808 z m 21.938,-5.996 -0.154,-0.175 c -1.98,0.397 -2.338,0.46 -4.156,0.703 l -0.134,0.133 c -0.006,0.021 -0.012,0.055 -0.021,0.085 l -0.006,-0.03 c -1.354,3.094 -1.314,2.426 -2.416,4.862 -0.007,-0.111 -0.007,-0.18 -0.013,-0.298 l -0.276,-5.28 -0.173,-0.175 c -2.073,0.397 -2.122,0.46 -4.037,0.703 l -0.149,0.133 c -0.021,0.063 -0.021,0.132 -0.034,0.208 l 0.013,0.027 c 0.239,1.211 0.181,0.941 0.422,2.854 0.112,0.938 0.261,1.882 0.373,2.809 0.188,1.551 0.294,2.315 0.525,4.682 -1.293,2.114 -1.599,2.914 -2.844,4.769 l 0.008,0.019 -0.876,1.373 c -0.101,0.145 -0.192,0.244 -0.319,0.287 -0.14,0.068 -0.322,0.081 -0.574,0.081 h -0.486 l -0.722,2.378 2.477,0.043 c 1.454,-0.006 2.368,-0.68 2.86,-1.585 l 1.557,-2.644 h -0.025 l 0.164,-0.186 c 1.048,-2.235 9.016,-15.776 9.016,-15.776 z m -26.14,31.243 h -1.05 l 3.888,-12.742 h 1.29 l 0.41,-1.313 0.04,1.46 c -0.049,0.902 0.668,1.702 2.55,1.569 h 2.177 l 0.749,-2.453 h -0.819 c -0.471,0 -0.689,-0.118 -0.662,-0.37 l -0.04,-1.486 h -4.031 v 0.008 c -1.303,0.027 -5.195,0.124 -5.983,0.332 -0.953,0.243 -1.958,0.959 -1.958,0.959 l 0.395,-1.314 h -3.771 l -0.786,2.608 -3.941,12.936 h -0.764 l -0.75,2.436 h 7.51 l -0.252,0.812 h 3.701 l 0.245,-0.812 h 1.039 z m -3.081,-10.153 c -0.604,0.165 -1.728,0.667 -1.728,0.667 l 1,-3.256 h 2.996 l -0.723,2.372 c 0,0 -0.926,0.054 -1.545,0.217 z m 0.058,4.652 c 0,0 -0.942,0.117 -1.561,0.256 -0.61,0.183 -1.754,0.76 -1.754,0.76 l 1.032,-3.389 h 3.011 z m -1.679,5.531 h -3.005 l 0.871,-2.86 h 2.996 z m 7.237,-7.904 h 4.332 l -0.623,1.997 h -4.389 l -0.659,2.184 h 3.841 l -2.908,4.056 c -0.204,0.298 -0.387,0.403 -0.589,0.487 -0.204,0.103 -0.471,0.223 -0.781,0.223 h -1.065 l -0.732,2.391 h 2.787 c 1.448,0 2.304,-0.653 2.936,-1.51 l 1.994,-2.703 0.428,2.745 c 0.091,0.514 0.464,0.815 0.716,0.932 0.279,0.139 0.568,0.377 0.975,0.412 0.437,0.019 0.752,0.033 0.962,0.033 h 1.369 l 0.822,-2.676 h -0.54 c -0.31,0 -0.844,-0.051 -0.935,-0.148 -0.09,-0.117 -0.09,-0.297 -0.139,-0.571 l -0.435,-2.751 h -1.779 l 0.781,-0.92 h 4.38 l 0.674,-2.184 h -4.056 l 0.632,-1.997 h 4.043 l 0.75,-2.463 h -12.054 z m -36.586,8.46 1.011,-3.332 h 4.156 l 0.759,-2.478 h -4.159 l 0.635,-2.051 h 4.064 l 0.753,-2.4 h -10.17 l -0.737,2.4 h 2.31 l -0.616,2.051 h -2.317 l -0.767,2.52 h 2.309 l -1.347,4.408 c -0.182,0.584 0.085,0.806 0.255,1.077 0.173,0.264 0.349,0.439 0.743,0.539 0.408,0.09 0.687,0.143 1.066,0.143 h 4.684 l 0.835,-2.745 -2.077,0.283 c -0.401,0 -1.511,-0.048 -1.39,-0.415 z m 0.477,-15.951 -1.053,1.885 c -0.226,0.412 -0.428,0.668 -0.611,0.786 -0.161,0.099 -0.479,0.141 -0.941,0.141 h -0.55 l -0.734,2.412 h 1.825 c 0.877,0 1.551,-0.319 1.873,-0.479 0.345,-0.183 0.436,-0.078 0.704,-0.334 l 0.616,-0.529 h 5.698 l 0.756,-2.511 h -4.171 l 0.728,-1.371 z m 8.412,15.999 c -0.097,-0.138 -0.027,-0.382 0.121,-0.891 l 1.557,-5.106 h 5.541 c 0.807,-0.012 1.39,-0.021 1.769,-0.048 0.407,-0.042 0.85,-0.186 1.333,-0.445 0.498,-0.271 0.753,-0.556 0.968,-0.884 0.24,-0.328 0.626,-1.044 0.957,-2.148 l 1.957,-6.462 -5.749,0.033 c 0,0 -1.77,0.259 -2.55,0.545 -0.786,0.318 -1.91,1.208 -1.91,1.208 l 0.519,-1.771 h -3.551 l -4.972,16.336 c -0.177,0.634 -0.295,1.094 -0.322,1.371 -0.009,0.298 0.379,0.593 0.631,0.815 0.298,0.222 0.738,0.186 1.16,0.223 0.443,0.033 1.074,0.053 1.945,0.053 h 2.73 l 0.838,-2.802 -2.444,0.229 c -0.261,0 -0.45,-0.139 -0.528,-0.256 z m 2.683,-9.446 h 5.819 l -0.37,1.149 c -0.052,0.026 -0.176,-0.057 -0.768,0.012 h -5.039 z m 1.166,-3.853 h 5.868 l -0.422,1.384 c 0,0 -2.766,-0.027 -3.209,0.054 -1.949,0.334 -3.087,1.366 -3.087,1.366 z m 4.414,8.848 c -0.049,0.172 -0.125,0.276 -0.231,0.355 -0.118,0.075 -0.309,0.102 -0.595,0.102 h -0.829 l 0.049,-1.399 h -3.449 l -0.14,6.839 c -0.005,0.494 0.043,0.779 0.408,1.008 0.364,0.286 1.487,0.322 2.998,0.322 h 2.162 l 0.78,-2.56 -1.882,0.102 -0.625,0.037 c -0.086,-0.037 -0.167,-0.07 -0.258,-0.16 -0.079,-0.078 -0.213,-0.03 -0.191,-0.523 l 0.014,-1.753 1.974,-0.081 c 1.065,0 1.52,-0.344 1.909,-0.671 0.371,-0.313 0.492,-0.673 0.632,-1.161 l 0.331,-1.552 h -2.712 z"
          fill="#fefefe" />
    <g clip-path="url(#a)"
       transform="translate(-218)">
        <path d="m 280.839,508.007 h -3.952 v -10.224 h 3.952 c 3.079,0 5.169,2.281 5.169,5.093 0,2.851 -2.09,5.131 -5.169,5.131 z m 0.38,-15.012 h -9.501 v 27.744 h 5.169 v -7.943 h 4.294 c 5.777,0 10.034,-4.408 10.034,-9.92 0,-5.472 -4.257,-9.881 -9.996,-9.881"
              fill="#000" />
        <path d="m 304.368,516.481 c -3.801,0 -6.726,-3.04 -6.726,-6.916 0,-3.838 2.925,-6.84 6.726,-6.84 3.8,0 6.651,3.077 6.651,6.84 0,3.839 -2.851,6.916 -6.651,6.916 z m 6.386,-15.315 c -1.597,-1.9 -4.22,-3.117 -7.145,-3.117 -5.626,0 -11.022,4.219 -11.022,11.592 0,7.259 5.586,11.554 10.945,11.554 2.926,0 5.587,-1.293 7.222,-3.345 v 2.888 h 5.13 v -22.233 h -5.13 z"
              fill="#000" />
        <path d="m 329.607,513.48 -6.194,-14.974 h -5.474 l 9.122,21.131 -4.675,11.363 h 5.207 l 13.264,-32.494 h -5.397 z"
              fill="#000" />
        <path d="m 421.97,470.667 h -0.143 l -5.964,-20.37 h -9.633 v 25.683 h 6.383 l -0.358,-21.073 h 0.142 l 6.407,21.073 h 9.24 v -25.683 h -6.426 z"
              fill="#000" />
        <path d="m 305.209,452.701 0.145,-0.002 3.46,23.548 h 6.972 l -4.784,-25.95 h -11.545 l -4.811,25.95 h 7.015 z"
              fill="#000" />
        <path d="m 338.666,450.297 -3.2,19.843 h -0.148 l -3.196,-19.843 h -10.585 l -0.572,25.95 h 6.495 l 0.162,-23.328 h 0.144 l 4.334,23.328 h 6.585 l 4.337,-23.326 0.143,-0.002 0.162,23.328 h 6.492 l -0.572,-25.95 z"
              fill="#000" />
        <path d="m 281.103,477.262 c 4.695,0 8.556,-1.601 9.173,-5.933 0.315,-2.24 0.083,-3.707 -0.028,-4.253 -1.096,-5.435 -10.941,-7.055 -11.676,-10.095 -0.123,-0.527 -0.093,-1.073 -0.028,-1.363 0.184,-0.833 0.748,-1.743 2.37,-1.743 1.521,0 2.411,0.937 2.411,2.352 v 1.607 h 6.477 v -1.828 c 0,-5.652 -5.078,-6.536 -8.751,-6.536 -4.612,0 -8.385,1.529 -9.072,5.761 -0.189,1.157 -0.214,2.193 0.059,3.5 1.126,5.304 10.348,6.837 11.685,10.196 0.254,0.627 0.173,1.432 0.051,1.919 -0.211,0.865 -0.799,1.747 -2.528,1.747 -1.623,0 -2.608,-0.94 -2.608,-2.353 l -0.006,-2.515 h -6.959 l -0.002,2 c 0,5.789 4.555,7.537 9.432,7.537 z"
              fill="#000" />
        <path d="m 362.996,457.048 c -0.126,-0.519 -0.094,-1.059 -0.032,-1.348 0.184,-0.824 0.743,-1.725 2.347,-1.725 1.509,0 2.389,0.925 2.389,2.328 v 1.588 h 6.412 v -1.806 c 0,-5.596 -5.028,-6.47 -8.665,-6.47 -4.563,0 -8.299,1.509 -8.979,5.701 -0.187,1.146 -0.213,2.172 0.06,3.464 1.111,5.254 10.243,6.771 11.567,10.097 0.248,0.623 0.171,1.416 0.049,1.901 -0.209,0.854 -0.79,1.724 -2.502,1.724 -1.608,0 -2.584,-0.926 -2.584,-2.329 l -0.004,-2.487 h -6.891 l -0.002,1.981 c 0,5.731 4.512,7.461 9.34,7.461 4.648,0 8.471,-1.584 9.081,-5.875 0.311,-2.216 0.083,-3.668 -0.028,-4.212 -1.086,-5.381 -10.834,-6.984 -11.558,-9.993 z"
              fill="#000" />
        <path d="m 398.998,450.293 h -6.568 v 19.198 c 0.003,0.333 -0.007,0.711 -0.062,0.991 -0.128,0.638 -0.683,1.88 -2.487,1.88 h -10e-4 c -1.806,0 -2.364,-1.242 -2.489,-1.88 -0.056,-0.28 -0.069,-0.658 -0.063,-0.991 v -19.198 h -6.563 v 18.606 c -0.013,0.479 0.037,1.455 0.06,1.708 0.455,4.844 4.283,6.413 9.056,6.413 4.77,0 8.598,-1.569 9.051,-6.413 0.026,-0.253 0.075,-1.229 0.066,-1.708 z"
              fill="#000" />
        <path d="m 444.06,461.673 v 3.784 h 2.661 v 3.769 c 0.004,0.328 -0.008,0.691 -0.062,0.984 -0.117,0.694 -0.773,1.884 -2.652,1.884 -1.877,0 -2.532,-1.19 -2.654,-1.884 -0.05,-0.292 -0.062,-0.655 -0.06,-0.984 v -11.864 c 0,-0.422 0.03,-0.886 0.105,-1.228 0.143,-0.64 0.698,-1.883 2.585,-1.883 1.984,0 2.477,1.311 2.594,1.883 0.078,0.374 0.084,0.991 0.082,0.989 v 1.454 h 6.545 v -0.865 c -0.005,0 0.023,-0.881 -0.06,-1.708 -0.479,-4.867 -4.508,-6.412 -9.109,-6.412 -4.605,0 -8.531,1.56 -9.109,6.412 -0.054,0.433 -0.11,1.247 -0.11,1.708 l -0.002,10.918 c 0.002,0.489 0.015,0.846 0.09,1.708 0.434,4.728 4.526,6.414 9.129,6.414 4.599,0 8.697,-1.687 9.126,-6.414 0.078,-0.862 0.089,-1.219 0.094,-1.708 v -6.957 z"
              fill="#000" />
    </g>
    <path d="m 796.898,325.923 h 7.682 c 0.22,0 0.732,-0.084 0.951,-0.084 1.463,-0.336 2.707,-1.845 2.707,-3.942 0,-2.013 -1.244,-3.522 -2.707,-3.942 -0.219,-0.084 -0.658,-0.084 -0.951,-0.084 h -7.682 z"
          fill="url(#paint0_linear_13689_6460)"
          style="fill:url(#paint0_linear_13689_6460)" />
    <path d="m 803.702,270.318 c -7.315,0 -13.314,6.794 -13.314,15.264 v 15.851 h 18.801 c 0.439,0 0.951,0 1.317,0.084 4.243,0.252 7.389,2.768 7.389,7.129 0,3.439 -2.122,6.374 -6.072,6.961 v 0.168 c 4.316,0.335 7.608,3.103 7.608,7.38 0,4.613 -3.658,7.632 -8.486,7.632 h -20.631 v 31.031 h 19.534 c 7.315,0 13.314,-6.793 13.314,-15.264 v -76.236 z"
          fill="url(#paint1_linear_13689_6460)"
          style="fill:url(#paint1_linear_13689_6460)" />
    <path d="m 807.287,309.652 c 0,-2.012 -1.244,-3.354 -2.707,-3.606 -0.146,0 -0.512,-0.084 -0.732,-0.084 h -6.95 v 7.381 h 6.95 c 0.22,0 0.659,0 0.732,-0.084 1.463,-0.252 2.707,-1.594 2.707,-3.607 z"
          fill="url(#paint2_linear_13689_6460)"
          style="fill:url(#paint2_linear_13689_6460)" />
    <path d="m 730.106,270.318 c -7.3161,0 -13.3151,6.794 -13.3151,15.264 v 37.657 c 3.7311,2.097 7.6085,3.439 11.4861,3.439 4.609,0 7.096,-3.187 7.096,-7.549 v -17.78 h 11.413 v 17.697 c 0,6.877 -3.731,12.496 -16.388,12.496 -7.6813,0 -13.6802,-1.929 -13.6802,-1.929 v 32.121 h 19.5332 c 7.316,0 13.315,-6.793 13.315,-15.264 v -76.152 z"
          fill="url(#paint3_linear_13689_6460)"
          style="fill:url(#paint3_linear_13689_6460)" />
    <path d="m 766.904,270.318 c -7.316,0 -13.315,6.794 -13.315,15.264 v 19.961 c 3.365,-3.271 9.218,-5.368 18.655,-4.864 5.048,0.251 10.462,1.845 10.462,1.845 v 6.457 c -2.707,-1.593 -5.926,-3.019 -10.096,-3.354 -7.17,-0.587 -11.486,3.438 -11.486,10.483 0,7.129 4.316,11.155 11.486,10.484 4.17,-0.336 7.389,-1.845 10.096,-3.355 v 6.458 c 0,0 -5.341,1.593 -10.462,1.845 -9.437,0.503 -15.29,-1.594 -18.655,-4.864 v 35.224 h 19.533 c 7.316,0 13.315,-6.793 13.315,-15.264 v -76.32 z"
          fill="url(#paint4_linear_13689_6460)"
          style="fill:url(#paint4_linear_13689_6460)" />
    <defs>
        <linearGradient id="paint0_linear_13689_6460"
                        x1="164.375"
                        y1="489.907"
                        x2="197.251"
                        y2="489.907"
                        gradientUnits="userSpaceOnUse"
                        gradientTransform="translate(626,-168)">
            <stop stop-color="#007940"
                  id="stop57" />
            <stop offset="0.229"
                  stop-color="#00873F"
                  id="stop58" />
            <stop offset="0.743"
                  stop-color="#40A737"
                  id="stop59" />
            <stop offset="1"
                  stop-color="#5CB531"
                  id="stop60" />
        </linearGradient>
        <linearGradient id="paint1_linear_13689_6460"
                        x1="164.374"
                        y1="484.031"
                        x2="197.252"
                        y2="484.031"
                        gradientUnits="userSpaceOnUse"
                        gradientTransform="translate(626,-168)">
            <stop stop-color="#007940"
                  id="stop61" />
            <stop offset="0.229"
                  stop-color="#00873F"
                  id="stop62" />
            <stop offset="0.743"
                  stop-color="#40A737"
                  id="stop63" />
            <stop offset="1"
                  stop-color="#5CB531"
                  id="stop64" />
        </linearGradient>
        <linearGradient id="paint2_linear_13689_6460"
                        x1="164.374"
                        y1="477.641"
                        x2="197.251"
                        y2="477.641"
                        gradientUnits="userSpaceOnUse"
                        gradientTransform="translate(626,-168)">
            <stop stop-color="#007940"
                  id="stop65" />
            <stop offset="0.229"
                  stop-color="#00873F"
                  id="stop66" />
            <stop offset="0.743"
                  stop-color="#40A737"
                  id="stop67" />
            <stop offset="1"
                  stop-color="#5CB531"
                  id="stop68" />
        </linearGradient>
        <linearGradient id="paint3_linear_13689_6460"
                        x1="90.7756"
                        y1="484.031"
                        x2="124.16"
                        y2="484.031"
                        gradientUnits="userSpaceOnUse"
                        gradientTransform="translate(626,-168)">
            <stop stop-color="#1F286F"
                  id="stop69" />
            <stop offset="0.475"
                  stop-color="#004E94"
                  id="stop70" />
            <stop offset="0.826"
                  stop-color="#0066B1"
                  id="stop71" />
            <stop offset="1"
                  stop-color="#006FBC"
                  id="stop72" />
        </linearGradient>
        <linearGradient id="paint4_linear_13689_6460"
                        x1="127.399"
                        y1="484.031"
                        x2="159.824"
                        y2="484.031"
                        gradientUnits="userSpaceOnUse"
                        gradientTransform="translate(626,-168)">
            <stop stop-color="#6C2C2F"
                  id="stop73" />
            <stop offset="0.173"
                  stop-color="#882730"
                  id="stop74" />
            <stop offset="0.573"
                  stop-color="#BE1833"
                  id="stop75" />
            <stop offset="0.859"
                  stop-color="#DC0436"
                  id="stop76" />
            <stop offset="1"
                  stop-color="#E60039"
                  id="stop77" />
        </linearGradient>
        <clipPath id="clip0_13689_6460">
            <rect width="181.583"
                  height="81.5294"
                  fill="white"
                  transform="translate(271.67 449.471)"
                  id="rect77" />
        </clipPath>
        <linearGradient id="a"
                        x1="112.94822"
                        x2="83.672085"
                        y1="83.34889"
                        y2="11.389887"
                        gradientTransform="scale(0.90025795,1.1107927)"
                        gradientUnits="userSpaceOnUse">
            <stop offset="0"
                  stop-color="#ef2131"
                  id="stop1" />
            <stop offset="1"
                  stop-color="#fecf2c"
                  id="stop2" />
        </linearGradient>
        <linearGradient id="b"
                        x1="70.662968"
                        x2="11.105507"
                        y1="28.14331"
                        y2="141.15874"
                        gradientTransform="scale(0.95513897,1.0469681)"
                        gradientUnits="userSpaceOnUse">
            <stop offset="0"
                  stop-color="#fbc52c"
                  id="stop3" />
            <stop offset=".263921199"
                  stop-color="#f87130"
                  id="stop4" />
            <stop offset=".56079734"
                  stop-color="#ef52e2"
                  id="stop5" />
            <stop offset="1"
                  stop-color="#661eec"
                  id="stop6" />
        </linearGradient>
        <linearGradient id="c"
                        x1="28.747567"
                        x2="56.73926"
                        y1="57.326755"
                        y2="127.56926"
                        gradientTransform="scale(0.90025726,1.1107936)"
                        gradientUnits="userSpaceOnUse">
            <stop offset="0"
                  stop-color="#78f6d8"
                  id="stop7" />
            <stop offset=".265705044"
                  stop-color="#77d1f6"
                  id="stop8" />
            <stop offset=".55447147"
                  stop-color="#70a4f3"
                  id="stop9" />
            <stop offset="1"
                  stop-color="#661eec"
                  id="stop10" />
        </linearGradient>
        <linearGradient id="d"
                        x1="62.579736"
                        x2="121.65555"
                        y1="120.13798"
                        y2="7.5417549"
                        gradientTransform="scale(0.95513896,1.0469681)"
                        gradientUnits="userSpaceOnUse">
            <stop offset="0"
                  stop-color="#536eed"
                  id="stop11" />
            <stop offset=".246657524"
                  stop-color="#54c3ec"
                  id="stop12" />
            <stop offset=".564199509"
                  stop-color="#64d769"
                  id="stop13" />
            <stop offset="1"
                  stop-color="#fecf2c"
                  id="stop14" />
        </linearGradient>
    </defs>
    <g fill="none"
       fill-rule="evenodd"
       id="g18"
       transform="matrix(0.41839335,0,0,0.41839335,693.91689,442.88689)">
        <path d="m 327.05856,15.903309 c 0,-2.029651 0.37335,-3.932421 1.12006,-5.708366 0.74671,-1.7759456 1.76009,-3.324867 3.04017,-4.6468112 1.28008,-1.3219441 2.78015,-2.3634603 4.50026,-3.1245796 1.7201,-0.7611194 3.56686,-1.1416734 5.54031,-1.1416734 2.00013,0 3.87355,0.380554 5.62032,1.1416734 1.74678,0.7611193 3.26685,1.8026355 4.56026,3.1245796 1.29341,1.3219442 2.31346,2.8708656 3.06017,4.6468112 0.74671,1.775945 1.12007,3.678715 1.12007,5.708366 0,2.029652 -0.37336,3.932422 -1.12007,5.708367 -0.74671,1.775945 -1.76676,3.324867 -3.06017,4.646811 -1.29341,1.321944 -2.81349,2.36346 -4.56026,3.124579 -1.74677,0.76112 -3.6202,1.141674 -5.62032,1.141674 -1.97345,0 -3.82021,-0.380554 -5.54031,-1.141674 -1.72011,-0.761119 -3.22018,-1.802635 -4.50026,-3.124579 -1.28008,-1.321944 -2.29346,-2.870866 -3.04017,-4.646811 -0.74671,-1.775945 -1.12006,-3.678715 -1.12006,-5.708367 z m 2.92016,0 c 0,1.682475 0.28668,3.244749 0.86005,4.68687 0.57337,1.442113 1.36674,2.697281 2.38013,3.765519 1.0134,1.068238 2.20679,1.909462 3.58021,2.523699 1.37342,0.614236 2.86015,0.92135 4.46025,0.92135 1.62677,0 3.13351,-0.307113 4.52026,-0.92135 1.38675,-0.614237 2.59347,-1.455461 3.6202,-2.523699 1.02673,-1.068238 1.83344,-2.323406 2.42014,-3.765519 0.5867,-1.442121 0.88005,-3.004395 0.88005,-4.68687 0,-1.682474 -0.29335,-3.244748 -0.88005,-4.686869 -0.5867,-1.4421211 -1.39341,-2.6972816 -2.42014,-3.7655193 -1.02673,-1.0682377 -2.23345,-1.9094622 -3.6202,-2.5236989 -1.38675,-0.6142367 -2.89349,-0.9213504 -4.52026,-0.9213504 -1.6001,0 -3.08683,0.3071137 -4.46025,0.9213504 -1.37342,0.6142366 -2.56681,1.4554612 -3.58021,2.5236989 -1.01339,1.0682377 -1.80676,2.3233982 -2.38013,3.7655193 -0.57337,1.442121 -0.86005,3.004395 -0.86005,4.686869 z m 6.40036,-6.2892177 c 0,-0.8812961 0.44003,-1.3219376 1.32008,-1.3219376 h 4.52026 c 1.44009,0 2.58681,0.4139359 3.44019,1.2418201 0.85339,0.8278842 1.28007,1.9495172 1.28007,3.3649322 0,0.587531 -0.0867,1.108289 -0.26001,1.56229 -0.17334,0.454001 -0.39335,0.847907 -0.66004,1.181732 -0.26668,0.333824 -0.56003,0.607556 -0.88005,0.821203 -0.32002,0.213648 -0.64003,0.360528 -0.96005,0.440646 v 0.08012 c 0.0267,0.0267 0.0667,0.08012 0.12,0.160234 0.0533,0.05341 0.10668,0.140205 0.16001,0.260382 0.0533,0.120177 0.13334,0.260381 0.24002,0.420617 l 2.08012,4.04593 c 0.24001,0.454001 0.29335,0.821202 0.16,1.101614 -0.13334,0.280413 -0.42668,0.420617 -0.88005,0.420617 h -0.48002 c -0.74672,0 -1.26674,-0.320467 -1.56009,-0.961409 l -2.32013,-4.887163 h -2.48014 v 4.566693 c 0,0.85459 -0.41336,1.281879 -1.24007,1.281879 h -0.36002 c -0.82672,0 -1.24008,-0.427289 -1.24008,-1.281879 z m 5.2403,5.8485717 c 0.77338,0 1.37341,-0.226997 1.8001,-0.680998 0.4267,-0.454001 0.64004,-1.081581 0.64004,-1.882759 0,-0.774473 -0.21334,-1.375347 -0.64004,-1.802642 -0.42669,-0.427295 -1.01338,-0.64094 -1.7601,-0.64094 h -2.44013 v 5.007339 z m -116.60369,9.578039 c 4.52228,0 8.35729,0.577173 11.50515,1.731538 3.14786,1.154364 5.60848,2.219915 7.38192,3.196685 1.50743,0.799175 2.39414,1.864727 2.66015,3.196685 0.26602,1.331959 0.0443,2.752694 -0.66503,4.262248 l -1.33008,2.397514 c -0.79805,1.59835 -1.81776,2.530707 -3.05917,2.797099 -1.24141,0.266392 -2.70448,0.0444 -4.38925,-0.665976 -1.50743,-0.710378 -3.32518,-1.442944 -5.45331,-2.197721 -2.12813,-0.754777 -4.61092,-1.132159 -7.44842,-1.132159 -2.92619,0 -5.18729,0.577173 -6.78339,1.731537 -1.5961,1.154365 -2.39414,2.797089 -2.39414,4.928224 0,1.864742 0.82021,3.374273 2.46064,4.528637 1.64044,1.154365 3.7242,2.175518 6.25136,3.06349 2.52715,0.887973 5.23161,1.842529 8.11346,2.863698 2.88184,1.021168 5.5863,2.330908 8.11346,3.929259 2.52716,1.59835 4.61092,3.640657 6.25135,6.12698 1.64044,2.486323 2.46064,5.638579 2.46064,9.456861 0,3.019107 -0.59852,5.793979 -1.7956,8.324701 -1.19707,2.530722 -2.92615,4.728421 -5.18729,6.593164 -2.26114,1.864742 -4.98777,3.329875 -8.17997,4.395442 -3.19219,1.065567 -6.73903,1.598343 -10.6406,1.598343 -5.49767,0 -10.13072,-0.799164 -13.89929,-2.397514 -3.76856,-1.598351 -6.67253,-3.107882 -8.71199,-4.528638 -1.50743,-0.887972 -2.3498,-1.997922 -2.52715,-3.32988 -0.17734,-1.331959 0.22168,-2.752694 1.19707,-4.262247 l 1.59609,-2.397514 c 0.9754,-1.420757 2.06161,-2.21992 3.25869,-2.397514 1.19707,-0.177595 2.63797,0.177589 4.32274,1.065561 1.5961,0.887973 3.6577,1.886927 6.18485,2.996893 2.52716,1.109966 5.5198,1.66494 8.97801,1.66494 2.92618,0 5.23162,-0.621571 6.91639,-1.864733 1.68478,-1.243162 2.52715,-2.930284 2.52715,-5.061418 0,-1.864743 -0.82021,-3.352075 -2.46064,-4.46204 -1.64044,-1.109966 -3.7242,-2.131119 -6.25136,-3.063491 -2.52715,-0.932371 -5.23161,-1.931325 -8.11346,-2.996892 -2.88184,-1.065567 -5.5863,-2.397506 -8.11346,-3.995857 -2.52715,-1.59835 -4.61092,-3.640657 -6.25135,-6.12698 -1.64044,-2.486323 -2.46064,-5.682977 -2.46064,-9.590056 0,-3.285499 0.6872,-6.215764 2.06162,-8.790885 1.37441,-2.57512 3.2365,-4.706222 5.58631,-6.39337 2.34981,-1.687148 5.09861,-2.974689 8.24647,-3.862662 3.14786,-0.887972 6.49518,-1.331952 10.04207,-1.331952 z m -197.708217,0 c 4.522279,0 8.357292,0.577173 11.505153,1.731538 3.147861,1.154364 5.608476,2.219915 7.381919,3.196685 1.507426,0.799175 2.394134,1.864727 2.66015,3.196685 0.266017,1.331959 0.04434,2.752694 -0.665037,4.262248 l -1.330076,2.397514 c -0.798049,1.59835 -1.817763,2.530707 -3.059173,2.797099 -1.24141,0.266392 -2.704479,0.0444 -4.389249,-0.665976 -1.507427,-0.710378 -3.325178,-1.442944 -5.45331,-2.197721 -2.128131,-0.754777 -4.610914,-1.132159 -7.448422,-1.132159 -2.926181,0 -5.187287,0.577173 -6.783385,1.731537 -1.596099,1.154365 -2.394136,2.797089 -2.394136,4.928224 0,1.864742 0.820205,3.374273 2.46064,4.528637 1.640434,1.154365 3.724198,2.175518 6.251354,3.06349 2.527156,0.887973 5.231616,1.842529 8.113461,2.863698 2.881844,1.021168 5.586304,2.330908 8.11346,3.929259 2.527156,1.59835 4.61092,3.640657 6.251355,6.12698 1.640434,2.486323 2.460639,5.638579 2.460639,9.456861 0,3.019107 -0.598528,5.793979 -1.795602,8.324701 -1.197074,2.530722 -2.926154,4.728421 -5.187294,6.593164 -2.26114,1.864742 -4.987767,3.329875 -8.179964,4.395442 -3.192197,1.065567 -6.73903,1.598343 -10.640604,1.598343 -5.497672,0 -10.130722,-0.799164 -13.899288,-2.397514 C 7.5114977,92.171086 4.6075286,90.661555 2.5680694,89.240799 1.060643,88.352827 0.21827027,87.242877 0.04092598,85.910919 -0.1364183,84.57896 0.26260035,83.158225 1.2379939,81.648672 l 1.5960906,-2.397514 c 0.9753935,-1.420757 2.0616109,-2.21992 3.2586848,-2.397514 1.1970739,-0.177595 2.6379746,0.177589 4.3227457,1.065561 1.596098,0.887973 3.657695,1.886927 6.184851,2.996893 2.527156,1.109966 5.519795,1.66494 8.978009,1.66494 2.926181,0 5.231622,-0.621571 6.916392,-1.864733 1.684771,-1.243162 2.527144,-2.930284 2.527144,-5.061418 0,-1.864743 -0.820205,-3.352075 -2.46064,-4.46204 -1.640435,-1.109966 -3.724199,-2.131119 -6.251355,-3.063491 -2.527156,-0.932371 -5.231615,-1.931325 -8.11346,-2.996892 -2.881844,-1.065567 -5.586304,-2.397506 -8.11346,-3.995857 C 7.5558397,59.538257 5.4720757,57.49595 3.8316411,55.009627 2.1912065,52.523304 1.3710015,49.32665 1.3710015,45.419571 c 0,-3.285499 0.6871987,-6.215764 2.0616169,-8.790885 1.3744182,-2.57512 3.2365052,-4.706222 5.586317,-6.39337 2.3498116,-1.687148 5.0986066,-2.974689 8.2464676,-3.862662 3.147861,-0.887972 6.495184,-1.331952 10.04207,-1.331952 z M 269.83223,0 c 3.72423,0 5.58632,1.8647145 5.58632,5.5941994 V 33.032415 c 0,0.887973 -0.0222,1.664937 -0.0665,2.330917 -0.0443,0.665979 -0.11084,1.265352 -0.19952,1.798135 -0.0887,0.621581 -0.133,1.154356 -0.133,1.598343 h 0.26601 c 0.79805,-1.598351 1.9286,-3.218876 3.39169,-4.861626 1.46309,-1.642749 3.19218,-3.130081 5.1873,-4.46204 1.99512,-1.331959 4.25623,-2.39751 6.78338,-3.196685 2.52716,-0.799175 5.25379,-1.198757 8.17997,-1.198757 7.53713,0 13.36723,2.042306 17.49049,6.12698 4.12325,4.084674 6.18485,10.655573 6.18485,19.712893 v 38.093834 c 0,3.729485 -1.86209,5.594199 -5.58632,5.594199 h -5.71932 c -3.72423,0 -5.58632,-1.864714 -5.58632,-5.594199 V 54.343651 c 0,-4.173471 -0.70936,-7.525518 -2.12812,-10.05624 -1.41875,-2.530721 -4.25622,-3.796063 -8.51248,-3.796063 -2.92618,0 -5.60847,0.577173 -8.04696,1.731538 -2.43848,1.154364 -4.50008,2.730492 -6.18485,4.72843 -1.68477,1.997938 -2.99266,4.373229 -3.92372,7.125944 -0.93106,2.752715 -1.39658,5.727379 -1.39658,8.92408 v 25.973069 c 0,3.729485 -1.86209,5.594199 -5.58632,5.594199 h -5.71932 c -3.72423,0 -5.58632,-1.864714 -5.58632,-5.594199 V 5.5941993 C 258.52659,1.8647145 260.38868,0 264.11291,0 Z m -88.37201,26.639045 c 3.63556,0 5.45331,1.864714 5.45331,5.594199 v 56.741165 c 0,3.729485 -1.81775,5.594199 -5.45331,5.594199 h -5.85233 c -3.63556,0 -5.45331,-1.864714 -5.45331,-5.594199 V 32.233244 c 0,-3.729485 1.81775,-5.594199 5.45331,-5.594199 z m -112.855404,0 c 3.369541,0 5.364635,1.642724 5.98534,4.928223 l 10.906618,39.692176 c 0.177345,0.97677 0.332519,1.864729 0.465527,2.663905 0.133008,0.799175 0.288182,1.55394 0.465526,2.264318 0.177344,0.799176 0.310351,1.553941 0.399023,2.264319 h 0.266015 c 0.08867,-0.710378 0.221678,-1.465143 0.399023,-2.264319 0.177344,-0.710378 0.332518,-1.465143 0.465526,-2.264318 0.133008,-0.799176 0.332518,-1.687135 0.598534,-2.663905 L 99.994597,31.567268 c 0.620703,-3.196702 2.660133,-4.795028 6.118343,-4.795028 h 5.05429 c 3.28087,0 5.3203,1.598326 6.11835,4.795028 l 11.30564,39.692176 c 0.26602,0.97677 0.46553,1.864729 0.59853,2.663905 0.13301,0.799175 0.28819,1.55394 0.46553,2.264318 0.17734,0.799176 0.31035,1.553941 0.39902,2.264319 h 0.26602 c 0.0887,-0.710378 0.22168,-1.465143 0.39902,-2.264319 0.17734,-0.710378 0.33252,-1.465143 0.46553,-2.264318 0.13301,-0.799176 0.33251,-1.687135 0.59853,-2.663905 l 10.77361,-39.692176 c 0.79805,-3.285499 2.83748,-4.928224 6.11835,-4.928224 h 6.11835 c 2.03946,0 3.45819,0.577174 4.25624,1.731538 0.79805,1.154365 0.93105,2.663896 0.39902,4.528638 l -17.42399,57.007555 c -0.88672,3.107904 -2.97048,4.661833 -6.25135,4.661833 h -8.91151 c -3.36954,0 -5.4533,-1.598327 -6.25135,-4.795028 L 110.36919,55.808798 c -0.26602,-0.887972 -0.4877,-1.775932 -0.66504,-2.663904 -0.17735,-0.887973 -0.35469,-1.687136 -0.53203,-2.397514 -0.17735,-0.799176 -0.31035,-1.553941 -0.39902,-2.264319 h -0.26602 c -0.17734,0.710378 -0.35469,1.465143 -0.53203,2.264319 -0.17734,0.710378 -0.35469,1.509541 -0.53203,2.397514 -0.17734,0.887972 -0.39902,1.775932 -0.66504,2.663904 L 96.536401,89.77358 c -0.79805,3.196701 -2.837478,4.795028 -6.118347,4.795028 h -9.177521 c -3.192197,0 -5.231626,-1.553929 -6.118347,-4.661833 L 57.56519,32.89922 c -0.532033,-1.864742 -0.376859,-3.374273 0.465526,-4.528638 0.842385,-1.154364 2.238951,-1.731538 4.189738,-1.731538 z"
              fill="#171a1b"
              fill-rule="nonzero"
              transform="translate(222,33)"
              id="path14-2" />
        <g transform="translate(50.005869,20.581194)"
           id="g16">
            <path d="m 0,146.68527 c 35.320882,16.89256 78.911703,8.53248 105.24645,-22.84566 C 136.46027,86.64832 131.61211,31.203341 94.417733,0 L 69.691536,29.461713 C 98.749393,53.839344 102.53709,97.155606 78.151383,126.2114 58.707075,149.37936 26.692933,157.11494 0,146.68527"
                  fill="url(#a)"
                  id="path15-7"
                  style="fill:url(#a)" />
            <path d="m 0,146.68527 c 35.320882,16.89256 78.911703,8.53248 105.24645,-22.84566 3.22518,-3.84281 6.06419,-7.88085 8.52356,-12.06656 C 117.92876,85.929897 108.78311,58.614353 87.269557,40.566197 81.803598,35.980582 75.886564,32.286299 69.695313,29.465147 98.749737,53.843294 102.53588,97.15698 78.151383,126.2114 58.707075,149.37936 26.692933,157.11494 0,146.68527"
                  fill="url(#b)"
                  id="path16-6"
                  style="fill:url(#b)" />
        </g>
        <path d="M 125.82112,8.5606856 C 90.500412,-8.3318803 46.909591,0.02803388 20.574839,31.406172 -10.638975,68.597634 -5.790819,124.04261 31.40339,155.24595 L 56.129759,125.78424 C 27.071729,101.40661 23.284209,58.090348 47.669911,29.034379 67.114219,5.8664261 99.128361,-1.8691603 125.82112,8.5606856"
              fill="url(#c)"
              id="path17-1"
              style="fill:url(#c)" />
        <path d="M 125.82112,8.5606856 C 90.500412,-8.3318803 46.909591,0.02803388 20.574839,31.406172 c -3.22535,3.842982 -6.064359,7.881023 -8.523551,12.066732 -4.1589226,25.843153 4.986896,53.158525 26.500449,71.206856 5.465959,4.58544 11.382993,8.27989 17.574072,11.10087 C 27.071558,101.40266 23.28524,58.088974 47.669911,29.034379 67.114219,5.8664261 99.128361,-1.8691603 125.82112,8.5606856"
              fill="url(#d)"
              id="path18-4"
              style="fill:url(#d)" />
    </g>
</svg>