<svg width="960" height="612" viewBox="0 0 960 612" fill="none" xmlns="http://www.w3.org/2000/svg">
<rect width="960" height="612" fill="none"/>
<path d="M106.972 130.855L114.112 157.801H122.399L135.296 126.594H126.889L118.765 147.783L115.426 131.201L106.972 130.855Z" fill="#1A1F71"/>
<path d="M138.437 126.478L133.485 157.801H141.317L146.38 126.478H138.437Z" fill="#1A1F71"/>
<path d="M169.407 133.964L170.557 127.404C168.122 126.515 165.552 126.048 162.96 126.023C158.812 126.023 149.832 128.67 149.832 136.381C149.832 144.092 160.996 144.443 160.996 148.701C160.996 152.958 150.979 152.503 147.985 149.741L146.725 156.533C146.725 156.533 151.214 158.262 155.243 158.262C159.271 158.262 169.297 157.341 169.297 147.324C169.297 138.569 158.125 140.298 158.125 135.003C158.125 135.003 159.274 129.706 169.408 133.963L169.407 133.964Z" fill="#1A1F71"/>
<path fill-rule="evenodd" clip-rule="evenodd" d="M177.466 157.802H168.83C168.83 157.802 179.368 133.062 180.463 130.167C181.618 127.116 184.145 126.829 184.145 126.829H191.054L197.923 157.761H190.438L189.556 153.309H178.964L177.466 157.802ZM181.263 146.862H188.289L185.641 135.347L181.263 146.862Z" fill="#1A1F71"/>
<path d="M117.886 143.444L115.422 131.202C115.422 131.202 115.089 126.604 111.813 126.604H98.4336V127.242C98.4336 127.242 111.664 129.436 117.883 143.446L117.886 143.444Z" fill="#1A1F71"/>
<path d="M208.642 169.439H86.6885V180.525H208.642V169.439Z" fill="#F8B600"/>
<path d="M208.642 102.916H86.6885V114.003H208.642V102.916Z" fill="#1A1F71"/>
<path d="M499.765 72.5767H623.505V208.277H499.765V72.5708V72.5767Z" fill="#272756"/>
<path fill-rule="evenodd" clip-rule="evenodd" d="M502.858 75.71H620.415V160.7H502.864V75.71H502.858Z" fill="#FAFBFC"/>
<path d="M591.367 91.1326L568.305 146.865H553.247L541.891 102.386C541.201 99.6494 540.6 98.6484 538.511 97.4757C535.071 95.6042 529.429 93.8392 524.453 92.7435L524.786 91.1326H549.021C552.11 91.1326 554.89 93.2114 555.598 96.8065L561.591 129.05L576.411 91.1326H591.373" fill="#272756"/>
<path d="M531.19 170.413C532.791 170.105 535.011 169.88 538.035 169.88C541.308 169.88 543.713 170.603 545.272 171.989C546.73 173.256 547.682 175.288 547.682 177.716C547.682 180.174 546.95 182.205 545.564 183.597C543.784 185.475 540.981 186.357 537.815 186.357C536.981 186.357 536.208 186.316 535.63 186.203V195.97H531.19V170.407V170.413ZM535.63 182.478C536.172 182.638 536.904 182.679 537.815 182.679C541.159 182.679 543.201 180.938 543.201 177.905C543.201 175.027 541.308 173.487 538.207 173.487C536.975 173.487 536.101 173.605 535.63 173.718V182.478ZM557.503 188.625L555.396 195.97H550.771L558.639 170.064H564.347L572.322 195.97H567.513L565.293 188.625H557.503ZM564.526 185.048L562.603 178.681C562.127 177.094 561.728 175.329 561.353 173.831H561.294C560.925 175.329 560.562 177.141 560.127 178.681L558.235 185.048H564.531H564.526ZM581.75 195.97V185.161L574.001 170.058H579.089L582.041 176.703C582.874 178.628 583.493 180.079 584.154 181.856H584.22C584.844 180.203 585.541 178.586 586.368 176.703L589.32 170.058H594.379L586.225 185.042V195.964H581.75V195.97Z" fill="white"/>
<path d="M286.024 168.039H407.452V178.863H286.024V168.039Z" fill="#F8B600"/>
<path d="M286.024 103.68H407.452V114.5H286.024V103.68ZM334.629 126.425L322.086 156.178H313.905L307.732 132.432C307.358 130.974 307.032 130.438 305.894 129.821C304.033 128.816 300.956 127.875 298.254 127.29L298.441 126.425H311.609C313.291 126.425 314.799 127.539 315.185 129.457L318.445 146.676L326.496 126.425H334.629ZM366.695 146.463C366.728 138.615 355.775 138.174 355.848 134.671C355.872 133.605 356.893 132.468 359.132 132.18C360.241 132.036 363.298 131.919 366.765 133.509L368.122 127.198C365.807 126.337 363.354 125.893 360.88 125.885C353.227 125.885 347.846 129.925 347.801 135.716C347.752 140 351.646 142.387 354.576 143.817C357.596 145.274 358.608 146.207 358.591 147.513C358.571 149.507 356.181 150.392 353.958 150.424C350.069 150.484 347.809 149.379 346.013 148.542L344.606 155.069C346.419 155.89 349.756 156.607 353.21 156.643C361.347 156.643 366.667 152.65 366.691 146.463H366.695ZM386.903 156.178H394.056L387.805 126.425H381.205C379.754 126.414 378.444 127.28 377.905 128.608L366.289 156.178H374.418L376.035 151.733H385.964L386.899 156.178H386.903ZM378.262 145.639L382.335 134.466L384.68 145.639H378.258H378.262ZM345.691 126.425L339.29 156.178H331.548L337.949 126.425H345.691ZM356.706 158.473H362.249V159.382H357.709V161.636H361.908V162.493H357.709V165.012H362.326V165.893H356.706V158.473ZM363.574 158.473H364.509V165.893H363.574V158.473ZM369.358 160.635C369.723 160.811 370.008 161.044 370.199 161.332C370.391 161.619 370.519 161.944 370.573 162.285C370.626 162.537 370.654 162.934 370.654 163.478H366.59C366.584 163.949 366.724 164.41 366.992 164.8C367.24 165.132 367.626 165.3 368.146 165.3C368.853 165.33 369.485 164.87 369.662 164.195H370.577C370.54 164.43 370.459 164.655 370.337 164.86C370.04 165.45 369.484 165.872 368.829 166.005C368.58 166.061 368.325 166.088 368.069 166.085C367.405 166.097 366.767 165.831 366.313 165.352C365.834 164.86 365.594 164.175 365.594 163.294C365.594 162.421 365.838 161.716 366.317 161.172C366.793 160.634 367.489 160.337 368.211 160.363C368.606 160.363 368.984 160.451 369.358 160.631V160.635ZM369.699 162.757C369.68 162.428 369.589 162.106 369.435 161.812C369.179 161.372 368.752 161.156 368.155 161.156C367.748 161.148 367.357 161.313 367.082 161.608C366.786 161.92 366.621 162.331 366.618 162.757H369.699ZM375.458 160.771C375.852 161.068 376.088 161.576 376.165 162.301H375.259C375.215 161.995 375.084 161.707 374.881 161.472C374.686 161.248 374.369 161.14 373.934 161.14C373.34 161.14 372.918 161.42 372.662 161.989C372.485 162.421 372.402 162.884 372.418 163.35C372.418 163.891 372.532 164.347 372.767 164.716C372.999 165.088 373.369 165.276 373.873 165.276C374.215 165.292 374.549 165.166 374.791 164.928C375.035 164.661 375.197 164.332 375.259 163.979H376.165C376.064 164.7 375.799 165.22 375.393 165.553C374.938 165.899 374.374 166.076 373.8 166.053C373.131 166.077 372.49 165.789 372.068 165.276C371.625 164.727 371.394 164.04 371.418 163.338C371.418 162.389 371.658 161.648 372.129 161.12C372.579 160.601 373.242 160.31 373.934 160.327C374.56 160.327 375.068 160.475 375.458 160.767V160.771ZM377.283 158.969H378.226V160.483H379.108V161.224H378.226V164.756C378.226 164.948 378.291 165.076 378.421 165.136C378.494 165.176 378.616 165.192 378.787 165.192C378.895 165.191 379.004 165.185 379.112 165.176V165.897C379.001 165.927 378.888 165.949 378.774 165.961C378.65 165.975 378.525 165.982 378.4 165.981C377.966 165.981 377.669 165.873 377.514 165.653C377.351 165.403 377.27 165.109 377.283 164.812V161.224H376.531V160.483H377.283V158.973V158.969ZM380.067 160.483H380.953V161.416C381.081 161.161 381.26 160.935 381.481 160.751C381.765 160.479 382.154 160.339 382.55 160.367L382.761 160.387V161.348C382.661 161.328 382.559 161.318 382.457 161.32C381.989 161.32 381.627 161.468 381.375 161.76C381.127 162.044 380.993 162.407 380.998 162.781V165.893H380.063V160.483H380.067ZM387.037 164.623C387.271 164.15 387.389 163.629 387.382 163.102C387.4 162.677 387.315 162.255 387.135 161.868C386.87 161.368 386.419 161.12 385.777 161.12C385.208 161.12 384.794 161.332 384.537 161.756C384.267 162.224 384.132 162.756 384.147 163.294C384.147 163.867 384.277 164.347 384.537 164.736C384.794 165.116 385.204 165.308 385.769 165.308C386.387 165.308 386.809 165.08 387.037 164.623ZM387.614 161.02C388.11 161.488 388.354 162.173 388.354 163.074C388.385 163.846 388.156 164.606 387.704 165.236C387.269 165.809 386.594 166.093 385.68 166.093C384.989 166.124 384.322 165.845 383.863 165.336C383.416 164.832 383.192 164.155 383.192 163.306C383.192 162.397 383.428 161.672 383.899 161.136C384.377 160.594 385.078 160.296 385.806 160.327C386.479 160.312 387.13 160.563 387.614 161.024V161.02ZM389.463 160.483H390.345V161.252C390.569 160.967 390.853 160.735 391.178 160.571C391.485 160.429 391.82 160.358 392.158 160.363C392.946 160.363 393.475 160.627 393.751 161.164C393.923 161.56 394.001 161.99 393.979 162.421V165.893H393.032V162.485C393.043 162.21 392.992 161.937 392.881 161.684C392.719 161.348 392.418 161.18 391.983 161.18C391.799 161.174 391.616 161.196 391.439 161.244C391.175 161.324 390.942 161.478 390.768 161.688C390.623 161.847 390.518 162.038 390.463 162.245C390.41 162.512 390.387 162.785 390.394 163.058V165.893H389.459V160.483H389.463Z" fill="#1A1F71"/>
<path d="M567.597 361.852C590.826 361.852 609.657 342.705 609.657 319.085C609.657 295.466 590.826 276.319 567.597 276.319C544.368 276.319 525.537 295.466 525.537 319.085C525.537 342.705 544.368 361.852 567.597 361.852Z" fill="#FF2F05"/>
<path d="M616.669 362.564C639.899 362.564 658.73 343.417 658.73 319.798C658.73 296.178 639.899 277.031 616.669 277.031C593.44 277.031 574.609 296.178 574.609 319.798C574.609 343.417 593.44 362.564 616.669 362.564Z" fill="#FFBC37"/>
<path fill-rule="evenodd" clip-rule="evenodd" d="M592.749 284.621C603.014 292.418 609.66 304.871 609.66 318.901C609.66 333.484 602.481 346.362 591.521 354.081C581.255 346.283 574.609 333.83 574.609 319.8C574.609 305.217 581.788 292.34 592.749 284.621Z" fill="#FF8729"/>
<path d="M778.944 371.55V364.764C779.024 363.613 778.6 362.483 777.78 361.663C776.96 360.843 775.823 360.41 774.658 360.476C773.117 360.376 771.644 361.114 770.813 362.402C770.057 361.152 768.668 360.413 767.197 360.476C765.919 360.415 764.704 361.027 764.001 362.084V360.751H761.623V371.55H764.021V365.567C763.914 364.818 764.153 364.061 764.671 363.505C765.189 362.949 765.933 362.652 766.696 362.696C768.277 362.696 769.074 363.71 769.074 365.543V371.55H771.477V365.567C771.38 364.82 771.622 364.069 772.138 363.515C772.654 362.961 773.392 362.661 774.153 362.696C775.778 362.696 776.556 363.71 776.556 365.543V371.55H778.944ZM792.321 366.155V360.765H789.918V362.074C789.1 361.03 787.823 360.441 786.489 360.491C783.398 360.581 780.94 363.085 780.94 366.143C780.94 369.201 783.398 371.705 786.489 371.795C787.827 371.844 789.1 371.256 789.918 370.213V371.526H792.296L792.321 366.155ZM783.482 366.155C783.587 364.381 785.107 363.015 786.903 363.081C788.699 363.146 790.113 364.619 790.085 366.397C790.057 368.174 788.599 369.604 786.801 369.615C785.88 369.638 784.992 369.275 784.355 368.617C783.719 367.958 783.393 367.064 783.457 366.155H783.482ZM843.133 360.501C843.911 360.501 844.689 360.648 845.412 360.932C846.813 361.474 847.931 362.556 848.508 363.931C849.113 365.376 849.113 366.998 848.513 368.449C847.937 369.824 846.819 370.907 845.417 371.447C843.909 372.027 842.237 372.027 840.73 371.447C839.341 370.896 838.234 369.815 837.658 368.449C837.06 366.999 837.059 365.376 837.653 363.926C838.23 362.561 839.337 361.482 840.725 360.932C841.483 360.623 842.291 360.462 843.103 360.467L843.128 360.501H843.133ZM843.133 362.765C842.667 362.757 842.204 362.84 841.77 363.01C840.932 363.345 840.276 364.013 839.962 364.852C839.612 365.756 839.612 366.756 839.962 367.66C840.275 368.499 840.932 369.168 841.77 369.502C843.086 370.007 844.577 369.732 845.62 368.792C845.937 368.467 846.183 368.082 846.343 367.66C846.694 366.756 846.694 365.756 846.343 364.852C846.183 364.431 845.937 364.048 845.62 363.725C845.295 363.411 844.906 363.167 844.48 363.01C844.049 362.815 843.582 362.709 843.108 362.696L843.128 362.765H843.133ZM805.242 366.155C805.242 362.765 803.111 360.501 800.059 360.501C798.017 360.53 796.145 361.634 795.149 363.398C794.153 365.162 794.184 367.318 795.231 369.053C796.277 370.788 798.18 371.839 800.223 371.81C801.848 371.859 803.443 371.32 804.692 370.291L803.552 368.551C802.648 369.267 801.529 369.663 800.371 369.678C798.737 369.816 797.289 368.644 797.102 367.032H805.207C805.242 366.753 805.242 366.469 805.242 366.15V366.155ZM797.111 365.205C797.204 363.712 798.473 362.559 799.985 362.593C801.48 362.563 802.717 363.736 802.75 365.215L797.111 365.205ZM815.245 363.509C814.201 362.914 813.021 362.593 811.816 362.578C810.508 362.578 809.735 363.059 809.735 363.852C809.735 364.636 810.558 364.774 811.583 364.911L812.728 365.068C815.106 365.411 816.543 366.405 816.543 368.302C816.543 370.203 814.719 371.83 811.573 371.83C809.888 371.874 808.234 371.383 806.852 370.428L807.991 368.596C809.047 369.365 810.325 369.767 811.633 369.727C813.253 369.727 814.125 369.252 814.125 368.414C814.125 367.807 813.506 367.469 812.203 367.287L811.063 367.126C808.611 366.787 807.288 365.705 807.288 363.941C807.288 361.79 809.071 360.476 811.861 360.476C813.421 360.427 814.962 360.819 816.305 361.608L815.245 363.509ZM826.679 362.897H822.8V367.772C822.8 368.899 823.191 369.585 824.38 369.585C825.122 369.559 825.845 369.346 826.481 368.968L827.17 370.982C826.278 371.536 825.247 371.825 824.197 371.82C821.383 371.82 820.402 370.325 820.402 367.816V362.902H818.182V360.756H820.402V357.473H822.8V360.756H826.679V362.902V362.897ZM834.899 360.476C835.473 360.476 836.048 360.579 836.588 360.77L835.86 363.034C835.387 362.848 834.882 362.757 834.373 362.765C832.818 362.765 832.085 363.759 832.085 365.543V371.594H829.706V360.795H832.06V362.108C832.654 361.097 833.761 360.489 834.943 360.525L834.894 360.476H834.899ZM851.337 369.977C851.631 369.974 851.915 370.083 852.13 370.281C852.391 370.531 852.505 370.895 852.433 371.247C852.361 371.6 852.112 371.891 851.773 372.021C851.636 372.081 851.488 372.113 851.337 372.114C850.896 372.11 850.496 371.854 850.312 371.457C850.139 371.054 850.233 370.587 850.55 370.281C850.749 370.096 851.009 369.988 851.283 369.977H851.337ZM851.337 371.888C851.561 371.891 851.776 371.803 851.932 371.643C852.179 371.406 852.255 371.044 852.124 370.729C851.993 370.414 851.682 370.209 851.337 370.213C851.11 370.213 850.893 370.303 850.733 370.462C850.437 370.781 850.437 371.271 850.733 371.589C850.891 371.752 851.109 371.844 851.337 371.844V371.888ZM851.407 370.541C851.514 370.536 851.619 370.569 851.704 370.634C851.773 370.693 851.813 370.781 851.803 370.869C851.813 370.948 851.783 371.016 851.729 371.075C851.661 371.134 851.576 371.168 851.486 371.173L851.818 371.55H851.555L851.248 371.173H851.144V371.55H850.926V370.507L851.407 370.541ZM851.159 370.737V371.006H851.407C851.452 371.02 851.5 371.02 851.545 371.006C851.561 370.975 851.561 370.939 851.545 370.908C851.564 370.875 851.564 370.834 851.545 370.801C851.5 370.787 851.452 370.787 851.407 370.801L851.159 370.732V370.737Z" fill="black"/>
<path d="M787.233 278.377H823.252V342.371H787.233V278.377Z" fill="#7673C0"/>
<path d="M789.522 310.374C789.509 297.881 795.306 286.076 805.243 278.363C788.366 265.245 764.131 267.155 749.568 282.751C735.006 298.347 735.006 322.392 749.568 337.988C764.131 353.584 788.366 355.494 805.243 342.376C795.309 334.664 789.512 322.864 789.522 310.374Z" fill="#EB001B"/>
<path d="M871.83 310.374C871.824 325.955 862.827 340.165 848.657 346.973C834.488 353.782 817.632 351.995 805.243 342.371C815.17 334.653 820.966 322.855 820.966 310.367C820.966 297.878 815.17 286.081 805.243 278.363C817.632 268.733 834.492 266.942 848.665 273.752C862.838 280.561 871.837 294.776 871.84 310.36L871.83 310.374Z" fill="#00A1DF"/>
<path d="M849.008 172.241H838.764V171.665C837.557 172.241 836.355 172.241 835.148 172.241H803.809V167.051H803.21V172.241H792.962V166.474C791.209 167.042 789.378 167.334 787.536 167.339H786.638V172.241H774.579C774.579 172.241 772.773 170.223 771.567 169.069C770.664 170.223 768.554 172.241 768.554 172.241H749.568V151.196H768.854C768.854 151.196 770.963 153.502 772.17 154.656C773.377 153.502 775.482 151.196 775.482 151.196H789.346C789.944 151.196 791.456 151.196 792.962 151.772V151.196H805.619C806.218 151.196 807.729 151.196 809.534 151.772V151.196H828.216V151.772C830.027 151.196 831.533 151.196 831.832 151.196H842.38V151.772C844.19 151.196 845.696 151.196 845.996 151.196H853.526V81.7288H722.448V135.634L726.971 125.541H736.611L737.818 128.136V125.541H749.269C749.269 125.541 751.074 129.29 751.678 131.02C752.58 129.29 754.091 125.541 754.091 125.541H789.346C789.944 125.541 791.456 125.541 793.261 126.117V125.541H803.51V126.694C805.016 125.829 806.821 125.252 808.327 125.252C808.327 125.252 813.753 125.252 814.053 125.541H823.698C823.698 125.541 824.6 127.848 824.905 128.136V125.541H835.448C835.448 125.541 836.954 127.848 837.258 128.136V125.541H847.502V146.587H837.258C837.258 146.587 835.752 144.28 835.448 143.703V146.587H822.491C822.491 146.587 821.289 143.991 820.985 143.415H817.668C817.369 143.991 816.162 146.587 816.162 146.587H807.43C806.223 146.587 805.021 146.01 803.814 145.433V146.875H787.541V141.684H786.942V146.875H755.288C755.288 146.587 747.758 146.875 747.758 146.875C747.758 146.875 747.758 146.587 747.458 146.587L734.497 146.875C734.497 146.875 733.29 144.28 732.991 143.703H729.679C729.38 144.568 728.173 146.875 728.173 146.875H722.148V204.812H853.227V171.665C852.629 171.953 851.117 172.241 849.611 172.241H849.013H849.008Z" fill="#0087B1"/>
<path d="M791.15 143.41V140.531C791.15 140.531 790.851 138.224 788.442 138.224H784.522V143.415H780.607V128.136H790.551C790.551 128.136 795.673 127.559 795.673 132.75C795.673 135.345 793.26 136.205 793.26 136.205C793.26 136.205 795.369 137.07 795.369 139.666V143.415H791.15V143.41ZM784.522 134.48H788.741C789.948 134.48 790.851 133.903 790.851 133.038C790.851 132.173 789.948 131.596 788.741 131.596H784.522V134.48ZM839.366 143.41L833.037 133.038V143.415H824.903L823.392 140.242H815.862L814.355 143.415H808.326C808.326 143.415 802.905 142.549 802.905 136.205C802.905 127.559 809.234 128.136 809.234 127.853H814.355V131.308H810.136C810.136 131.308 807.423 131.308 807.124 134.768V135.922C807.124 141.108 811.942 139.377 811.942 139.377L817.068 127.848H822.794L828.818 141.684V127.848H834.544L840.872 137.941V127.848H845.091V143.126H839.366V143.41ZM817.672 136.494H821.587L819.776 131.885L817.667 136.494H817.672ZM759.212 143.41V132.755L754.09 143.419H750.774L745.652 132.75V143.415H737.508L736.001 140.242H728.481L726.975 143.415H722.446L729.079 128.136H734.805L741.128 142.266V128.146H747.462L751.98 137.652L756.499 128.141H762.828V143.419H759.212V143.41ZM730.585 136.499H734.5L732.391 131.89L730.585 136.499ZM765.84 143.41V128.141H778.497V131.89H769.755V134.197H778.193V137.652H769.755V140.247H778.497V143.419H765.835L765.84 143.41ZM797.179 143.41V128.141H801.399V143.419H797.179V143.41ZM806.82 169.358V166.474C806.82 166.474 806.52 164.167 804.112 164.167H800.192V169.358H795.973V154.079H805.917C805.917 154.079 811.039 153.502 811.039 158.693C811.039 161.288 808.63 162.148 808.63 162.148C808.63 162.148 810.435 163.014 810.435 165.609V169.358H806.82ZM800.192 160.707H804.411C805.618 160.707 806.52 160.135 806.52 159.265C806.52 158.405 805.618 157.823 804.411 157.823H800.192V160.707ZM779.699 169.358H776.084L771.864 164.744L767.645 169.358H752.579V154.079H767.346L771.864 158.981L776.687 154.079H789.644C789.644 154.079 794.766 153.502 794.766 158.693C794.766 163.302 792.96 164.744 787.833 164.744H783.918V169.646H779.699V169.358ZM774.882 161.86L780.004 167.339V156.674L774.882 161.86ZM756.499 166.186H764.937L768.852 161.86L764.937 157.535H756.499V159.847H764.937V163.302H756.499V166.186ZM783.918 160.418H788.138C789.345 160.418 790.247 159.847 790.247 158.976C790.247 158.116 789.345 157.535 788.138 157.535H783.918V160.418ZM834.544 169.358H827.312V165.897H833.641C833.641 165.897 836.05 166.186 836.05 164.744C836.05 163.302 832.738 163.59 832.738 163.59C832.738 163.59 827.013 164.167 827.013 158.981C827.013 154.079 832.135 154.368 832.135 154.368H839.965V157.828H833.641C833.641 157.828 831.531 157.54 831.531 158.981C831.531 160.135 834.544 160.135 834.544 160.135C834.544 160.135 840.872 159.558 840.872 164.167C840.872 169.069 836.952 169.646 835.446 169.646C834.848 169.358 834.549 169.358 834.549 169.358H834.544ZM812.849 169.358V154.079H825.502V157.828H817.068V160.135H825.502V163.59H817.068V166.186H825.502V169.358H812.849ZM849.006 169.358H841.775V165.897H848.109C848.109 165.897 850.513 166.186 850.513 164.744C850.513 163.302 847.201 163.59 847.201 163.59C847.201 163.59 841.476 164.167 841.476 158.981C841.476 154.079 846.598 154.368 846.598 154.368H854.428V157.828H848.104C848.104 157.828 845.994 157.54 845.994 158.981C845.994 160.135 849.006 160.135 849.006 160.135C849.006 160.135 855.34 159.558 855.34 164.167C855.34 169.069 851.42 169.646 849.914 169.646C849.311 169.358 849.006 169.358 849.006 169.358Z" fill="#0087B1"/>
<path d="M590.75 477.984V497.473H584.533V449.338H600.914C605.114 449.338 608.643 450.766 611.499 453.538C614.439 456.311 615.951 459.671 615.951 463.703C615.951 467.819 614.439 471.18 611.499 473.952C608.643 476.724 605.114 478.068 600.914 478.068L590.75 477.984ZM590.75 455.219V472.02H601.082C603.518 472.02 605.619 471.18 607.215 469.499C608.895 467.819 609.735 465.887 609.735 463.619C609.735 461.435 608.895 459.419 607.215 457.823C605.619 456.143 603.602 455.303 601.082 455.303L590.75 455.219Z" fill="#3C4043"/>
<path d="M632.167 463.451C636.787 463.451 640.399 464.711 643.003 467.147C645.608 469.584 646.952 472.944 646.952 477.228V497.557H641.071V492.937H640.819C638.299 496.717 634.855 498.565 630.571 498.565C626.958 498.565 623.934 497.473 621.414 495.373C618.894 493.273 617.718 490.501 617.718 487.309C617.718 483.864 618.978 481.176 621.582 479.16C624.186 477.144 627.63 476.136 631.915 476.136C635.611 476.136 638.635 476.808 640.987 478.152V476.724C640.987 474.54 640.147 472.776 638.467 471.264C636.787 469.752 634.771 468.996 632.503 468.996C629.058 468.996 626.286 470.424 624.27 473.364L618.81 469.92C621.918 465.551 626.286 463.451 632.167 463.451ZM624.186 487.309C624.186 488.905 624.858 490.249 626.286 491.341C627.63 492.433 629.227 492.937 631.075 492.937C633.679 492.937 636.031 491.929 638.047 489.997C640.063 488.065 641.071 485.797 641.071 483.192C639.139 481.68 636.451 480.924 633.007 480.924C630.487 480.924 628.386 481.512 626.706 482.688C625.026 484.032 624.186 485.545 624.186 487.309Z" fill="#3C4043"/>
<path d="M680.637 464.459L659.972 511.922H653.587L661.232 495.289L647.707 464.459H654.427L664.256 488.149H664.424L674.001 464.459H680.637Z" fill="#3C4043"/>
<path d="M566.135 474.037C566.135 472.021 565.966 470.089 565.63 468.24H539.673V478.909H554.626C554.038 482.437 552.106 485.462 549.081 487.478V494.366H557.986C563.11 489.494 566.135 482.437 566.135 474.037Z" fill="#5280BD"/>
<path d="M548.997 487.479C546.561 489.159 543.368 490.167 539.588 490.167C532.364 490.167 526.231 485.295 524.047 478.742H514.891V485.883C519.427 494.871 528.751 501.088 539.588 501.088C547.065 501.088 553.281 498.651 557.901 494.451L548.997 487.479Z" fill="#36A954"/>
<path d="M523.293 473.366C523.293 471.518 523.629 469.753 524.133 468.073V460.933H514.976C513.128 464.629 512.036 468.913 512.036 473.366C512.036 477.818 513.128 482.018 514.976 485.798L524.133 478.658C523.545 476.978 523.293 475.214 523.293 473.366Z" fill="#FABC06"/>
<path d="M539.674 456.732C543.706 456.732 547.403 458.16 550.259 460.848L558.155 452.952C553.367 448.499 547.151 445.727 539.674 445.727C528.921 445.727 519.513 451.944 514.977 460.932L524.133 468.073C526.317 461.604 532.45 456.732 539.674 456.732Z" fill="#E94435"/>
<path d="M220.566 319.774C220.566 319.774 184.43 345.206 118.245 356.588H220.566V319.774Z" fill="#E7792B"/>
<path d="M221.033 272.572L88.3203 272.594V357.55H221.513L221.505 272.572H221.033ZM220.552 273.538V356.583H89.2866L89.2777 273.543H220.552V273.538Z" fill="#1A1918"/>
<path d="M99.9649 298.575H94.4521V317.796H99.9427C102.859 317.796 104.97 317.108 106.818 315.58C109.017 313.77 110.3 311.063 110.318 308.199C110.318 302.527 106.07 298.575 99.9694 298.575H99.9649ZM104.36 313.013C103.176 314.079 101.644 314.542 99.2124 314.542H98.206V301.834H99.2124C101.644 301.834 103.118 302.27 104.36 303.39C105.66 304.545 106.44 306.334 106.44 308.177C106.44 310.02 105.66 311.863 104.36 313.018V313.013ZM112.041 298.575H115.804V317.796H112.041V298.575ZM125 305.952C122.737 305.12 122.078 304.567 122.078 303.529C122.078 302.32 123.258 301.398 124.879 301.398C126.006 301.398 126.928 301.861 127.907 302.958L129.876 300.387C128.31 298.999 126.294 298.241 124.211 298.256C120.8 298.256 118.2 300.621 118.2 303.767C118.2 306.415 119.411 307.768 122.942 309.035C124.412 309.552 125.169 309.898 125.543 310.132C126.243 310.544 126.672 311.301 126.669 312.119C126.669 313.679 125.427 314.829 123.753 314.829C121.958 314.829 120.515 313.935 119.647 312.267L117.22 314.6C118.952 317.135 121.032 318.259 123.891 318.259C127.801 318.259 130.539 315.67 130.539 311.948C130.539 308.891 129.27 307.511 124.995 305.952H125ZM131.724 308.199C131.724 313.849 136.177 318.232 141.899 318.232C143.515 318.232 144.904 317.913 146.614 317.108V312.699C145.109 314.196 143.778 314.802 142.072 314.802C138.287 314.802 135.602 312.06 135.602 308.172C135.602 304.482 138.372 301.569 141.899 301.569C143.693 301.569 145.051 302.207 146.614 303.731V299.322C144.962 298.486 143.604 298.139 141.983 298.139C136.292 298.139 131.724 302.612 131.724 308.199ZM176.423 311.485L171.279 298.575H167.174L175.354 318.29H177.376L185.703 298.575H181.628L176.418 311.485H176.423ZM187.404 317.796H198.064V314.542H191.162V309.354H197.81V306.1H191.158V301.83H198.064V298.575H187.404V317.796ZM212.95 304.248C212.95 300.652 210.466 298.575 206.128 298.575H200.553V317.796H204.312V310.074H204.801L210.003 317.796H214.629L208.56 309.701C211.392 309.125 212.95 307.192 212.95 304.248ZM205.407 307.426H204.312V301.601H205.469C207.807 301.601 209.081 302.58 209.081 304.45C209.081 306.383 207.807 307.426 205.407 307.426Z" fill="#1A1918"/>
<path d="M157.997 318.421C163.604 318.421 168.149 313.872 168.149 308.262C168.149 302.651 163.604 298.103 157.997 298.103C152.389 298.103 147.844 302.651 147.844 308.262C147.844 313.872 152.389 318.421 157.997 318.421Z" fill="#E7792B"/>
<path d="M751.888 455.965C753.589 453.777 754.804 450.861 754.44 447.944C751.888 448.066 748.85 449.645 747.027 451.711C745.447 453.534 743.989 456.572 744.353 459.367C747.27 459.732 750.065 458.152 751.888 455.965Z" fill="#000001"/>
<path d="M754.439 460.097C750.307 459.854 746.783 462.406 744.838 462.406C742.894 462.406 739.856 460.218 736.575 460.218C732.321 460.34 728.433 462.649 726.245 466.537C721.87 474.193 725.03 485.495 729.405 491.693C731.471 494.731 734.023 498.134 737.304 498.012C740.464 497.891 741.679 495.946 745.446 495.946C749.213 495.946 750.307 498.012 753.71 497.891C757.112 497.769 759.3 494.852 761.366 491.693C763.796 488.169 764.768 484.766 764.768 484.644C764.647 484.523 758.084 482.092 758.084 474.558C757.963 468.239 763.188 465.201 763.432 465.079C760.636 460.704 756.019 460.218 754.439 460.097Z" fill="#000001"/>
<path d="M790.167 451.469C799.159 451.469 805.357 457.666 805.357 466.538C805.357 475.53 799.038 481.728 789.923 481.728H780.08V497.405H772.91V451.469H790.167ZM780.08 475.773H788.222C794.42 475.773 797.944 472.371 797.944 466.659C797.944 460.826 794.42 457.545 788.222 457.545H779.959V475.773H780.08Z" fill="#000001"/>
<path d="M807.179 488.047C807.179 482.214 811.675 478.568 819.696 478.082L828.931 477.596V475.044C828.931 471.277 826.379 469.089 822.248 469.089C818.237 469.089 815.807 471.034 815.199 473.95H808.637C809.002 467.874 814.227 463.378 822.491 463.378C830.633 463.378 835.858 467.631 835.858 474.436V497.526H829.296V492.057H829.175C827.23 495.825 822.977 498.133 818.602 498.133C811.797 498.133 807.179 494.002 807.179 488.047ZM828.931 485.009V482.335L820.668 482.821C816.536 483.065 814.227 484.887 814.227 487.804C814.227 490.721 816.658 492.665 820.303 492.665C825.164 492.665 828.931 489.384 828.931 485.009Z" fill="#000001"/>
<path d="M841.935 509.921V504.331C842.421 504.453 843.636 504.453 844.122 504.453C847.282 504.453 848.983 503.116 850.077 499.713C850.077 499.592 850.685 497.647 850.685 497.647L838.532 464.107H845.945L854.452 491.45H854.573L863.08 464.107H870.371L857.854 499.47C854.938 507.612 851.657 510.164 844.73 510.164C844.244 510.043 842.543 510.043 841.935 509.921Z" fill="#000001"/>
<path d="M346.525 275.088H378.408C382.859 275.088 385.627 278.682 384.588 283.106L369.745 346.241C368.697 350.649 364.241 354.246 359.787 354.246H327.907C323.463 354.246 320.688 350.649 321.727 346.241L336.577 283.106C337.615 278.682 342.069 275.088 346.525 275.088Z" fill="#E21836"/>
<path d="M375.754 275.088H412.419C416.869 275.088 414.862 278.682 413.816 283.106L398.974 346.241C397.933 350.649 398.258 354.246 393.798 354.246H357.133C352.674 354.246 349.915 350.649 350.962 346.241L365.803 283.106C366.857 278.682 371.301 275.088 375.754 275.088Z" fill="#00447C"/>
<path d="M410.965 275.088H442.848C447.305 275.088 450.073 278.682 449.026 283.106L434.184 346.241C433.137 350.649 428.678 354.246 424.222 354.246H392.353C387.894 354.246 385.128 350.649 386.173 346.241L401.017 283.106C402.055 278.682 406.505 275.088 410.965 275.088Z" fill="#007B84"/>
<path d="M354.85 295.321C351.571 295.355 350.603 295.321 350.294 295.249C350.175 295.809 347.962 305.919 347.956 305.928C347.48 307.973 347.133 309.432 345.956 310.373C345.287 310.92 344.507 311.185 343.603 311.185C342.149 311.185 341.302 310.469 341.159 309.113L341.132 308.647C341.132 308.647 341.575 305.907 341.575 305.892C341.575 305.892 343.897 296.678 344.313 295.46C344.335 295.391 344.341 295.355 344.346 295.321C339.827 295.361 339.025 295.321 338.97 295.249C338.94 295.348 338.828 295.92 338.828 295.92L336.457 306.304L336.253 307.185L335.859 310.066C335.859 310.92 336.029 311.618 336.366 312.208C337.446 314.078 340.528 314.358 342.271 314.358C344.517 314.358 346.623 313.885 348.047 313.022C350.518 311.576 351.165 309.315 351.742 307.305L352.009 306.274C352.009 306.274 354.401 296.705 354.807 295.46C354.823 295.391 354.829 295.355 354.85 295.321ZM362.989 303.041C362.412 303.041 361.358 303.18 360.412 303.639C360.068 303.814 359.743 304.016 359.401 304.217L359.71 303.11L359.541 302.924C357.533 303.327 357.084 303.381 355.23 303.639L355.074 303.742C354.859 305.51 354.668 306.84 353.87 310.316C353.566 311.597 353.25 312.89 352.934 314.168L353.02 314.33C354.92 314.231 355.496 314.231 357.148 314.258L357.281 314.114C357.491 313.049 357.518 312.8 357.983 310.644C358.202 309.621 358.657 307.375 358.882 306.575C359.294 306.385 359.701 306.199 360.09 306.199C361.016 306.199 360.903 306.999 360.867 307.318C360.827 307.853 360.49 309.6 360.144 311.101L359.914 312.069C359.753 312.785 359.576 313.48 359.415 314.189L359.485 314.33C361.358 314.231 361.929 314.231 363.529 314.258L363.717 314.114C364.006 312.451 364.091 312.006 364.604 309.585L364.862 308.473C365.363 306.295 365.615 305.191 365.235 304.292C364.834 303.284 363.872 303.041 362.989 303.041ZM372.08 305.321C371.085 305.51 370.45 305.636 369.819 305.718C369.193 305.817 368.583 305.907 367.621 306.04L367.545 306.108L367.475 306.163C367.375 306.873 367.305 307.486 367.172 308.208C367.059 308.954 366.886 309.801 366.604 311.019C366.386 311.952 366.273 312.276 366.149 312.604C366.027 312.932 365.894 313.251 365.648 314.168L365.706 314.253L365.754 314.33C366.653 314.288 367.241 314.258 367.846 314.253C368.45 314.231 369.075 314.253 370.044 314.258L370.128 314.19L370.219 314.114C370.359 313.287 370.38 313.065 370.466 312.661C370.55 312.229 370.696 311.63 371.055 310.03C371.224 309.279 371.413 308.529 371.589 307.763C371.771 306.999 371.962 306.247 372.144 305.495L372.117 305.405L372.08 305.321ZM372.102 302.247C371.197 301.718 369.609 301.886 368.541 302.617C367.475 303.333 367.354 304.349 368.256 304.885C369.145 305.399 370.739 305.246 371.798 304.509C372.861 303.778 372.994 302.771 372.102 302.247ZM377.572 314.496C379.402 314.496 381.278 313.997 382.69 312.514C383.777 311.311 384.275 309.522 384.448 308.785C385.009 306.343 384.572 305.203 384.022 304.509C383.188 303.45 381.713 303.111 380.183 303.111C379.263 303.111 377.071 303.201 375.359 304.764C374.13 305.892 373.562 307.423 373.219 308.89C372.873 310.385 372.475 313.077 374.974 314.078C375.744 314.406 376.856 314.496 377.572 314.496ZM377.429 309.002C377.851 307.152 378.349 305.6 379.621 305.6C380.617 305.6 380.689 306.755 380.246 308.611C380.167 309.022 379.803 310.554 379.311 311.206C378.968 311.687 378.562 311.979 378.112 311.979C377.979 311.979 377.184 311.979 377.171 310.809C377.165 310.232 377.284 309.642 377.429 309.002ZM389.022 314.258L389.165 314.114C389.368 313.05 389.402 312.799 389.851 310.644C390.075 309.621 390.54 307.375 390.759 306.575C391.172 306.385 391.572 306.199 391.973 306.199C392.893 306.199 392.781 306.999 392.744 307.317C392.711 307.853 392.373 309.6 392.021 311.1L391.803 312.069C391.636 312.785 391.454 313.479 391.293 314.189L391.363 314.331C393.242 314.231 393.792 314.231 395.4 314.258L395.595 314.114C395.877 312.451 395.953 312.006 396.481 309.585L396.733 308.472C397.237 306.295 397.492 305.192 397.119 304.292C396.706 303.285 395.738 303.041 394.866 303.041C394.289 303.041 393.23 303.179 392.289 303.64C391.952 303.814 391.615 304.015 391.284 304.217L391.572 303.111L391.418 302.924C389.411 303.327 388.953 303.381 387.101 303.64L386.958 303.742C386.734 305.51 386.551 306.839 385.753 310.316C385.449 311.597 385.134 312.89 384.818 314.168L384.903 314.331C386.806 314.231 387.374 314.231 389.022 314.258ZM402.829 314.33C402.947 313.759 403.648 310.373 403.655 310.373C403.655 310.373 404.252 307.889 404.289 307.799C404.289 307.799 404.477 307.54 404.665 307.438H404.942C407.552 307.438 410.5 307.438 412.81 305.754C414.382 304.599 415.457 302.894 415.936 300.822C416.061 300.313 416.152 299.709 416.152 299.105C416.152 298.311 415.992 297.526 415.527 296.912C414.349 295.279 412.003 295.249 409.294 295.237C409.286 295.237 407.959 295.249 407.959 295.249C404.492 295.292 403.102 295.279 402.531 295.21C402.483 295.46 402.392 295.905 402.392 295.905C402.392 295.905 401.15 301.607 401.15 301.616C401.15 301.616 398.178 313.738 398.038 314.31C401.065 314.273 402.306 314.273 402.829 314.33ZM405.13 304.202C405.13 304.202 406.45 298.512 406.444 298.533L406.487 298.242L406.505 298.019L407.033 298.073C407.033 298.073 409.756 298.305 409.82 298.311C410.894 298.723 411.337 299.785 411.028 301.17C410.746 302.437 409.917 303.501 408.851 304.016C407.974 304.451 406.899 304.488 405.792 304.488H405.075L405.13 304.202ZM413.35 309.107C413.001 310.581 412.6 313.272 415.087 314.231C415.879 314.565 416.589 314.665 417.311 314.629C418.074 314.588 418.78 314.209 419.435 313.664C419.375 313.888 419.316 314.112 419.257 314.337L419.37 314.481C421.158 314.406 421.713 314.406 423.65 314.421L423.826 314.288C424.109 312.641 424.376 311.041 425.111 307.889C425.469 306.379 425.826 304.884 426.194 303.381L426.137 303.215C424.136 303.582 423.602 303.661 421.677 303.931L421.531 304.049C421.512 304.202 421.492 304.349 421.473 304.496C421.174 304.017 420.74 303.609 420.071 303.354C419.215 303.02 417.206 303.45 415.478 305.008C414.264 306.121 413.681 307.645 413.35 309.107ZM417.552 309.197C417.98 307.381 418.472 305.844 419.746 305.844C420.552 305.844 420.976 306.581 420.89 307.838C420.822 308.151 420.748 308.481 420.66 308.855C420.533 309.394 420.394 309.929 420.26 310.465C420.123 310.832 419.964 311.177 419.789 311.407C419.461 311.868 418.681 312.153 418.232 312.153C418.104 312.153 417.318 312.153 417.29 311.005C417.284 310.433 417.403 309.844 417.552 309.197ZM439.49 303.201L439.336 303.026C437.356 303.423 436.998 303.486 435.18 303.729L435.046 303.862C435.04 303.883 435.034 303.917 435.025 303.947L435.019 303.917C433.665 307.011 433.705 306.343 432.603 308.779C432.596 308.668 432.596 308.599 432.59 308.481L432.314 303.201L432.141 303.026C430.068 303.423 430.019 303.486 428.104 303.729L427.955 303.862C427.934 303.925 427.934 303.994 427.921 304.07L427.934 304.097C428.173 305.308 428.115 305.038 428.356 306.951C428.468 307.889 428.617 308.833 428.729 309.76C428.917 311.311 429.023 312.075 429.254 314.442C427.961 316.556 427.655 317.356 426.41 319.211L426.418 319.23L425.542 320.603C425.441 320.748 425.35 320.847 425.223 320.89C425.083 320.958 424.901 320.971 424.649 320.971H424.163L423.441 323.349L425.918 323.392C427.372 323.386 428.286 322.712 428.778 321.807L430.335 319.163H430.31L430.474 318.977C431.522 316.742 439.49 303.201 439.49 303.201ZM413.35 334.444H412.3L416.188 321.702H417.478L417.888 320.389L417.928 321.849C417.879 322.751 418.596 323.551 420.478 323.418H422.655L423.404 320.965H422.585C422.114 320.965 421.896 320.847 421.923 320.595L421.883 319.109H417.852V319.117C416.549 319.144 412.657 319.241 411.869 319.449C410.916 319.692 409.911 320.408 409.911 320.408L410.306 319.094H406.535L405.749 321.702L401.808 334.638H401.044L400.294 337.074H407.804L407.552 337.886H411.253L411.498 337.074H412.537L413.35 334.444ZM410.269 324.291C409.665 324.456 408.541 324.958 408.541 324.958L409.541 321.702H412.537L411.814 324.074C411.814 324.074 410.888 324.128 410.269 324.291ZM410.327 328.943C410.327 328.943 409.385 329.06 408.766 329.199C408.156 329.382 407.012 329.959 407.012 329.959L408.044 326.57H411.055L410.327 328.943ZM408.648 334.474H405.643L406.514 331.614H409.51L408.648 334.474ZM415.885 326.57H420.217L419.594 328.567H415.205L414.546 330.751H418.387L415.479 334.807C415.275 335.105 415.092 335.21 414.89 335.294C414.686 335.397 414.419 335.517 414.109 335.517H413.044L412.312 337.908H415.099C416.547 337.908 417.403 337.255 418.035 336.398L420.029 333.695L420.457 336.44C420.548 336.954 420.921 337.255 421.173 337.372C421.452 337.511 421.741 337.749 422.148 337.784C422.585 337.803 422.9 337.817 423.11 337.817H424.479L425.301 335.141H424.761C424.451 335.141 423.917 335.09 423.826 334.993C423.736 334.876 423.736 334.696 423.687 334.422L423.252 331.671H421.473L422.254 330.751H426.634L427.308 328.567H423.252L423.884 326.57H427.927L428.677 324.107H416.623L415.885 326.57ZM379.299 335.03L380.31 331.698H384.466L385.225 329.22H381.066L381.701 327.169H385.765L386.518 324.769H376.348L375.611 327.169H377.921L377.305 329.22H374.988L374.221 331.74H376.53L375.183 336.148C375.001 336.732 375.268 336.954 375.438 337.225C375.611 337.489 375.787 337.664 376.181 337.764C376.589 337.854 376.868 337.907 377.247 337.907H381.931L382.766 335.162L380.689 335.445C380.288 335.445 379.178 335.397 379.299 335.03ZM379.776 319.079L378.723 320.964C378.497 321.376 378.295 321.632 378.112 321.75C377.951 321.849 377.633 321.891 377.171 321.891H376.621L375.887 324.303H377.712C378.589 324.303 379.263 323.984 379.585 323.824C379.93 323.641 380.021 323.746 380.289 323.49L380.905 322.961H386.603L387.359 320.45H383.188L383.916 319.079H379.776ZM388.188 335.078C388.091 334.94 388.161 334.696 388.309 334.187L389.866 329.081H395.407C396.214 329.069 396.797 329.06 397.176 329.033C397.583 328.991 398.026 328.847 398.509 328.588C399.007 328.317 399.262 328.032 399.477 327.704C399.717 327.376 400.103 326.66 400.434 325.556L402.391 319.094L396.642 319.127C396.642 319.127 394.872 319.386 394.092 319.672C393.306 319.99 392.182 320.88 392.182 320.88L392.701 319.109H389.15L384.178 335.445C384.001 336.079 383.883 336.539 383.856 336.816C383.847 337.114 384.235 337.409 384.487 337.631C384.785 337.853 385.225 337.817 385.647 337.854C386.09 337.887 386.721 337.907 387.592 337.907H390.322L391.16 335.105L388.716 335.334C388.455 335.334 388.266 335.195 388.188 335.078ZM390.871 325.632H396.69L396.32 326.781C396.268 326.807 396.144 326.724 395.552 326.793H390.513L390.871 325.632ZM392.037 321.779H397.905L397.483 323.163C397.483 323.163 394.717 323.136 394.274 323.217C392.325 323.551 391.187 324.583 391.187 324.583L392.037 321.779ZM396.451 330.627C396.402 330.799 396.326 330.903 396.22 330.982C396.102 331.057 395.911 331.084 395.625 331.084H394.796L394.845 329.685H391.396L391.256 336.524C391.251 337.018 391.299 337.303 391.664 337.532C392.028 337.818 393.151 337.854 394.662 337.854H396.824L397.604 335.294L395.722 335.396L395.097 335.433C395.011 335.396 394.93 335.363 394.839 335.273C394.76 335.195 394.626 335.243 394.648 334.75L394.662 332.997L396.636 332.916C397.701 332.916 398.156 332.572 398.545 332.245C398.916 331.932 399.037 331.572 399.177 331.084L399.508 329.532H396.796L396.451 330.627Z" fill="#FEFEFE"/>
<g clip-path="url(#clip0_13689_6460)">
<path d="M280.839 508.007H276.887V497.783H280.839C283.918 497.783 286.008 500.064 286.008 502.876C286.008 505.727 283.918 508.007 280.839 508.007ZM281.219 492.995H271.718V520.739H276.887V512.796H281.181C286.958 512.796 291.215 508.388 291.215 502.876C291.215 497.404 286.958 492.995 281.219 492.995" fill="black"/>
<path d="M304.368 516.481C300.567 516.481 297.642 513.441 297.642 509.565C297.642 505.727 300.567 502.725 304.368 502.725C308.168 502.725 311.019 505.802 311.019 509.565C311.019 513.404 308.168 516.481 304.368 516.481ZM310.754 501.166C309.157 499.266 306.534 498.049 303.609 498.049C297.983 498.049 292.587 502.268 292.587 509.641C292.587 516.9 298.173 521.195 303.532 521.195C306.458 521.195 309.119 519.902 310.754 517.85V520.738H315.884V498.505H310.754V501.166Z" fill="black"/>
<path d="M329.607 513.48L323.413 498.506H317.939L327.061 519.637L322.386 531H327.593L340.857 498.506H335.46L329.607 513.48Z" fill="black"/>
<path d="M421.97 470.667H421.827L415.863 450.297H406.23V475.98H412.613L412.255 454.907H412.397L418.804 475.98H428.044V450.297H421.618L421.97 470.667Z" fill="black"/>
<path d="M305.209 452.701L305.354 452.699L308.814 476.247H315.786L311.002 450.297H299.457L294.646 476.247H301.661L305.209 452.701Z" fill="black"/>
<path d="M338.666 450.297L335.466 470.14H335.318L332.122 450.297H321.537L320.965 476.247H327.46L327.622 452.919H327.766L332.1 476.247H338.685L343.022 452.921L343.165 452.919L343.327 476.247H349.819L349.247 450.297H338.666Z" fill="black"/>
<path d="M281.103 477.262C285.798 477.262 289.659 475.661 290.276 471.329C290.591 469.089 290.359 467.622 290.248 467.076C289.152 461.641 279.307 460.021 278.572 456.981C278.449 456.454 278.479 455.908 278.544 455.618C278.728 454.785 279.292 453.875 280.914 453.875C282.435 453.875 283.325 454.812 283.325 456.227V457.834H289.802V456.006C289.802 450.354 284.724 449.47 281.051 449.47C276.439 449.47 272.666 450.999 271.979 455.231C271.79 456.388 271.765 457.424 272.038 458.731C273.164 464.035 282.386 465.568 283.723 468.927C283.977 469.554 283.896 470.359 283.774 470.846C283.563 471.711 282.975 472.593 281.246 472.593C279.623 472.593 278.638 471.653 278.638 470.24L278.632 467.725H271.673L271.671 469.725C271.671 475.514 276.226 477.262 281.103 477.262Z" fill="black"/>
<path d="M362.996 457.048C362.87 456.529 362.902 455.989 362.964 455.7C363.148 454.876 363.707 453.975 365.311 453.975C366.82 453.975 367.7 454.9 367.7 456.303V457.891H374.112V456.085C374.112 450.489 369.084 449.615 365.447 449.615C360.884 449.615 357.148 451.124 356.468 455.316C356.281 456.462 356.255 457.488 356.528 458.78C357.639 464.034 366.771 465.551 368.095 468.877C368.343 469.5 368.266 470.293 368.144 470.778C367.935 471.632 367.354 472.502 365.642 472.502C364.034 472.502 363.058 471.576 363.058 470.173L363.054 467.686H356.163L356.161 469.667C356.161 475.398 360.673 477.128 365.501 477.128C370.149 477.128 373.972 475.544 374.582 471.253C374.893 469.037 374.665 467.585 374.554 467.041C373.468 461.66 363.72 460.057 362.996 457.048Z" fill="black"/>
<path d="M398.998 450.293H392.43V469.491C392.433 469.824 392.423 470.202 392.368 470.482C392.24 471.12 391.685 472.362 389.881 472.362H389.88C388.074 472.362 387.516 471.12 387.391 470.482C387.335 470.202 387.322 469.824 387.328 469.491V450.293H380.765V468.899C380.752 469.378 380.802 470.354 380.825 470.607C381.28 475.451 385.108 477.02 389.881 477.02C394.651 477.02 398.479 475.451 398.932 470.607C398.958 470.354 399.007 469.378 398.998 468.899V450.293Z" fill="black"/>
<path d="M444.06 461.673V465.457H446.721V469.226C446.725 469.554 446.713 469.917 446.659 470.21C446.542 470.904 445.886 472.094 444.007 472.094C442.13 472.094 441.475 470.904 441.353 470.21C441.303 469.918 441.291 469.555 441.293 469.226V457.362C441.293 456.94 441.323 456.476 441.398 456.134C441.541 455.494 442.096 454.251 443.983 454.251C445.967 454.251 446.46 455.562 446.577 456.134C446.655 456.508 446.661 457.125 446.659 457.123V458.577H453.204V457.712C453.199 457.712 453.227 456.831 453.144 456.004C452.665 451.137 448.636 449.592 444.035 449.592C439.43 449.592 435.504 451.152 434.926 456.004C434.872 456.437 434.816 457.251 434.816 457.712L434.814 468.63C434.816 469.119 434.829 469.476 434.904 470.338C435.338 475.066 439.43 476.752 444.033 476.752C448.632 476.752 452.73 475.065 453.159 470.338C453.237 469.476 453.248 469.119 453.253 468.63V461.673H444.06Z" fill="black"/>
</g>
<path d="M170.898 493.923H178.58C178.8 493.923 179.312 493.839 179.531 493.839C180.994 493.503 182.238 491.994 182.238 489.897C182.238 487.884 180.994 486.375 179.531 485.955C179.312 485.871 178.873 485.871 178.58 485.871H170.898V493.923Z" fill="url(#paint0_linear_13689_6460)"/>
<path d="M177.702 438.318C170.387 438.318 164.388 445.112 164.388 453.582V469.433H183.189C183.628 469.433 184.14 469.433 184.506 469.517C188.749 469.769 191.895 472.285 191.895 476.646C191.895 480.085 189.773 483.02 185.823 483.607V483.775C190.139 484.11 193.431 486.878 193.431 491.155C193.431 495.768 189.773 498.787 184.945 498.787H164.314V529.818H183.848C191.163 529.818 197.162 523.025 197.162 514.554V438.318H177.702Z" fill="url(#paint1_linear_13689_6460)"/>
<path d="M181.287 477.652C181.287 475.64 180.043 474.298 178.58 474.046C178.434 474.046 178.068 473.962 177.848 473.962H170.898V481.343H177.848C178.068 481.343 178.507 481.343 178.58 481.259C180.043 481.007 181.287 479.665 181.287 477.652Z" fill="url(#paint2_linear_13689_6460)"/>
<path d="M104.106 438.318C96.7899 438.318 90.7909 445.112 90.7909 453.582V491.239C94.522 493.336 98.3994 494.678 102.277 494.678C106.886 494.678 109.373 491.491 109.373 487.129V469.349H120.786V487.046C120.786 493.923 117.055 499.542 104.398 499.542C96.7167 499.542 90.7178 497.613 90.7178 497.613V529.734H110.251C117.567 529.734 123.566 522.941 123.566 514.47V438.318H104.106Z" fill="url(#paint3_linear_13689_6460)"/>
<path d="M140.904 438.318C133.588 438.318 127.589 445.112 127.589 453.582V473.543C130.954 470.272 136.807 468.175 146.244 468.679C151.292 468.93 156.706 470.524 156.706 470.524V476.981C153.999 475.388 150.78 473.962 146.61 473.627C139.44 473.04 135.124 477.065 135.124 484.11C135.124 491.239 139.44 495.265 146.61 494.594C150.78 494.258 153.999 492.749 156.706 491.239V497.697C156.706 497.697 151.365 499.29 146.244 499.542C136.807 500.045 130.954 497.948 127.589 494.678V529.902H147.122C154.438 529.902 160.437 523.109 160.437 514.638V438.318H140.904Z" fill="url(#paint4_linear_13689_6460)"/>
<defs>
<linearGradient id="paint0_linear_13689_6460" x1="164.375" y1="489.907" x2="197.251" y2="489.907" gradientUnits="userSpaceOnUse">
<stop stop-color="#007940"/>
<stop offset="0.229" stop-color="#00873F"/>
<stop offset="0.743" stop-color="#40A737"/>
<stop offset="1" stop-color="#5CB531"/>
</linearGradient>
<linearGradient id="paint1_linear_13689_6460" x1="164.374" y1="484.031" x2="197.252" y2="484.031" gradientUnits="userSpaceOnUse">
<stop stop-color="#007940"/>
<stop offset="0.229" stop-color="#00873F"/>
<stop offset="0.743" stop-color="#40A737"/>
<stop offset="1" stop-color="#5CB531"/>
</linearGradient>
<linearGradient id="paint2_linear_13689_6460" x1="164.374" y1="477.641" x2="197.251" y2="477.641" gradientUnits="userSpaceOnUse">
<stop stop-color="#007940"/>
<stop offset="0.229" stop-color="#00873F"/>
<stop offset="0.743" stop-color="#40A737"/>
<stop offset="1" stop-color="#5CB531"/>
</linearGradient>
<linearGradient id="paint3_linear_13689_6460" x1="90.7756" y1="484.031" x2="124.16" y2="484.031" gradientUnits="userSpaceOnUse">
<stop stop-color="#1F286F"/>
<stop offset="0.475" stop-color="#004E94"/>
<stop offset="0.826" stop-color="#0066B1"/>
<stop offset="1" stop-color="#006FBC"/>
</linearGradient>
<linearGradient id="paint4_linear_13689_6460" x1="127.399" y1="484.031" x2="159.824" y2="484.031" gradientUnits="userSpaceOnUse">
<stop stop-color="#6C2C2F"/>
<stop offset="0.173" stop-color="#882730"/>
<stop offset="0.573" stop-color="#BE1833"/>
<stop offset="0.859" stop-color="#DC0436"/>
<stop offset="1" stop-color="#E60039"/>
</linearGradient>
<clipPath id="clip0_13689_6460">
<rect width="181.583" height="81.5294" fill="white" transform="translate(271.67 449.471)"/>
</clipPath>
</defs>
</svg>
