<?xml version="1.0" encoding="UTF-8" standalone="no"?>
<svg width="1080" height="1080" viewBox="0 0 1080 1080" version="1.1" xmlns="http://www.w3.org/2000/svg">
    <g>
        <rect fill="#e3ddcd"
              width="1080"
              height="1080"
              x="0"
              y="0" />
        <g transform="matrix(.219 0 0 .219 434.5 254)">
            <path d="m 1015,8.5 c 41,40.8 26,105.1 19.9,158.3 -7.9,108.1 -34.3,216.1 -83.1,313 -34.4,71 -90,128.7 -149.2,179.4 -36.6,24 -75.7,45 -115.6,62.3 -71,25.9 -144.9,45.6 -221.1,43.6 C 365.5,766.4 267,738 166.7,741.1 85.9,769 165.9,761.7 104.9,710.7 93.1,654.5 82.5,593.7 96.8,534.9 c 10,-85.5 47,-166.7 101.3,-232.6 40.5,-48.2 91.2,-86.2 146.9,-114.5 39.5,-20.1 81.5,-35.4 124.2,-46.2 137,-40 283.5,-28.2 419.5,-72.8 C 927.1,48 971.4,39 1006,11 Z" fill="#65694f" />
            <path d="m 1011,16.2 c 40.5,40.1 23.2,104.2 19.6,155.6 -7.8,106.3 -33.8,212.5 -82,307.7 C 914.7,549.3 859.7,606 801.3,655.9 765.2,679.5 726.6,700.2 687.1,717.2 617,742.7 544,762.1 468.8,760 c -99.2,1.3 -196.4,-26.6 -295.4,-23.6 -167.2,45.1 -0.8,20.2 -61,-29.9 -11.7,-55.4 -22.2,-115.1 -8,-173.1 9.9,-84.1 46.4,-164 100.1,-228.8 40,-47.4 90.1,-84.8 145.1,-112.7 39,-19.8 80.5,-34.8 122.6,-45.4 16,-4.6 32.2,-8.5 48.5,-11.9 C 641.6,109.5 768,114 886.4,75.3 924.4,54.9 968.1,46 1002.2,18.5 Z" fill="#969976" />
            <path d="m 832.6,221.3 c 10.5,24.2 -17.2,36.6 -39.2,56.2 -18.6,18.6 -46.8,34 -67,46 -19.7,14 -42.7,25.7 -68,36 -32.4,14.1 -62.9,28.5 -95.9,41.1 -28.2,15.2 -60.1,24.5 -88.2,40.5 -28.2,13 -57.8,31.3 -82.9,46.4 -28.3,16.6 -55.6,32.9 -79.8,54.4 -20.5,11.9 -32.6,25.3 -50.2,43.3 -15.3,15.4 -32.7,31.5 -46.2,49.1 -12.9,13.4 -24.2,32.3 -36.9,46.6 -11.8,12.4 -19.7,35 -30.1,47.1 -16.6,30.3 -29.3,63.1 -41.9,96.4 -13.3,29.2 -22,60.5 -28.9,93.2 -9,28.8 -5.6,84.5 -52.2,68.2 -20.8,-33.3 1.1,-77.1 7.1,-112.7 22.5,-62.6 48.6,-124.6 85.6,-179.9 14.2,-22.6 29.1,-48.2 47.4,-69 12.7,-21.9 34.4,-32.4 47.7,-53.2 17,-15.3 30.2,-34.3 47.2,-46.4 13.3,-11.4 26.7,-21 40.6,-32.6 22.2,-16.4 45.1,-27.3 67.1,-44.5 28,-16.6 52.9,-30.7 83.2,-42.2 25.7,-12.8 53,-21.1 77.4,-31.8 30,-9.9 58.1,-21.6 88.9,-29.9 22.1,-10.4 46.2,-15.9 72.1,-32.6 30.8,-19.7 59.4,-40.2 88.7,-60.4 18.3,-9.7 29.6,-36.7 54.6,-29.2 z" fill="#65694f" />
        </g>
        <path d="m 229.60063,644.09356 q -1.23419,0 -1.64559,-0.27426 -0.41139,-0.2057 -0.89135,-1.37132 -1.64559,-3.90826 -6.71946,-15.01594 l -29.34622,-61.09223 h -0.27426 q -0.13713,5.48527 -0.82279,27.1521 -0.68566,21.66683 -0.89136,33.52874 0,11.51907 8.29648,11.51907 h 5.07388 v 4.31965 q -2.05698,0 -7.74795,-0.13713 -5.69098,-0.13713 -10.35346,-0.13713 h -1.16562 q -9.87349,0.27426 -17.41574,0.27426 v -4.31965 h 3.15403 q 6.10237,0 9.0507,-2.33124 2.94834,-2.33124 3.4283,-9.18783 l 2.67407,-66.44038 q 0,-5.96523 -0.75423,-7.95365 -1.37131,-3.56542 -5.89667,-3.56542 h -5.4167 v -4.52535 q 1.37132,0 5.27957,0.13713 3.97683,0.13713 7.06229,0.13713 1.50845,0 5.69097,-0.13713 4.18252,-0.13713 7.19943,-0.13713 3.49686,8.09077 6.44519,14.19314 l 30.10044,62.53212 30.5804,-62.53212 q 1.30275,-2.53694 3.35973,-7.47368 2.12554,-4.93675 2.94834,-6.71946 1.50845,0 5.55384,0.13713 4.04538,0.13713 7.13085,0.13713 h 0.95992 q 1.43989,0 5.21101,-0.13713 3.8397,-0.13713 6.58233,-0.13713 v 4.52535 h -3.63399 q -2.94834,0 -4.86818,0.89135 -1.85128,0.82279 -2.67407,2.60551 -0.82279,1.78271 -1.09706,3.49686 -0.2057,1.64558 -0.2057,4.38822 l 1.78272,66.57751 q 0,11.51907 8.98213,11.51907 h 4.11396 v 4.31965 q -2.33124,0 -8.91357,-0.13713 -6.58233,-0.13713 -11.8619,-0.13713 -2.67408,0 -9.11927,0.13713 -6.4452,0.13713 -11.24481,0.13713 v -4.31965 h 3.63399 q 5.34814,0 7.19942,-2.6055 1.91985,-2.67407 1.78272,-8.91357 -0.2057,-10.21632 -0.47997,-30.30614 -0.27426,-20.15838 -0.47996,-30.3747 h -0.27426 q -2.39981,4.86818 -30.23757,61.77789 -1.57702,3.15403 -3.70256,8.09078 -2.12554,4.93675 -2.74264,6.2395 -0.61709,1.64558 -2.3998,1.64558 z m 101.82038,-35.10575 -6.17093,17.55288 q -0.75423,2.05697 -0.89136,4.04539 -0.13713,1.98841 0.34283,3.77112 0.54853,1.78271 2.19411,2.87977 1.71415,1.09705 4.38822,1.09705 h 3.63399 v 4.52535 q -1.98841,0 -7.06229,-0.0686 -5.07388,-0.0686 -8.77644,-0.0686 l -17.8957,0.13713 v -4.52535 h 4.11395 q 4.11396,0 6.4452,-2.8112 2.39981,-2.8112 4.79962,-8.6393 l 28.45485,-76.8624 v -3.77113 q 1.85128,-0.47996 5.21101,-2.8112 0.68566,-0.47996 1.57702,-1.23419 0.95992,-0.75422 1.50845,-1.16562 0.61709,-0.41139 1.02849,-0.41139 0.95992,0 1.78271,1.98841 l 29.34622,84.26752 q 1.98841,5.55384 4.59391,8.50217 2.60551,2.94833 7.19942,2.94833 h 3.35973 v 4.52535 q -2.3998,0.0686 -8.70787,-0.13713 -6.30806,-0.20569 -9.80492,-0.13713 l -19.33559,0.27426 v -4.52535 h 4.45679 q 4.38822,0 4.79962,-3.35973 0.47996,-3.42829 -1.09706,-7.13085 -0.13713,-0.54853 -0.2057,-0.82279 l -6.71946,-18.58137 q -0.82279,-2.05697 -2.3998,-2.05697 h -27.35781 q -2.05697,0 -2.8112,2.6055 z m 3.08547,-9.2564 h 26.80927 q -5.07388,-14.39884 -13.02752,-38.19122 l -0.34283,-1.23418 h -0.13713 z M 461.6277,545.8386 q 0.68565,6.51376 2.8112,17.27861 h -5.14245 q -2.3998,-8.43361 -6.65089,-11.99904 -4.18252,-3.63399 -10.49059,-3.63399 -7.81651,0 -12.47899,4.25109 -4.66249,4.18252 -4.66249,11.6562 0,4.04539 2.46838,7.67939 2.53694,3.56542 6.51376,6.44519 3.97682,2.87977 8.77644,5.82811 4.86818,2.94833 9.66779,6.30806 4.79962,3.35973 8.77644,7.19942 3.97682,3.83969 6.4452,9.2564 2.53694,5.41671 2.53694,11.72477 0,12.41044 -8.36505,19.60986 -8.36504,7.13085 -23.17528,7.13085 -8.6393,0 -14.60454,-1.85128 -5.96523,-1.85128 -11.65621,-5.34814 -0.89135,-9.11927 -3.42829,-19.19846 h 5.21101 q 4.11395,11.38195 10.01062,16.45582 5.96524,5.00532 14.26171,5.00532 8.77644,0 13.37036,-4.86818 4.66248,-4.93675 4.66248,-11.99904 0,-4.52535 -2.53694,-8.57074 -2.46837,-4.04539 -6.44519,-7.19942 -3.97683,-3.15403 -8.84501,-6.17093 -4.79961,-3.08547 -9.66779,-6.37663 -4.79962,-3.29117 -8.77644,-6.8566 -3.97682,-3.63399 -6.51376,-8.50217 -2.46838,-4.93675 -2.46838,-10.62772 0,-8.57074 4.31966,-14.60454 4.38822,-6.0338 11.17624,-8.77644 6.85659,-2.74263 15.2902,-2.74263 3.83969,0 7.67938,0.61709 3.90826,0.54853 5.96524,1.16562 2.05698,0.54853 5.96524,1.71415 z m 75.21679,0 q 0.68566,6.51376 2.8112,17.27861 h -5.14244 q -2.39981,-8.43361 -6.65089,-11.99904 -4.18252,-3.63399 -10.49059,-3.63399 -7.81651,0 -12.479,4.25109 -4.66248,4.18252 -4.66248,11.6562 0,4.04539 2.46837,7.67939 2.53694,3.56542 6.51377,6.44519 3.97682,2.87977 8.77643,5.82811 4.86818,2.94833 9.6678,6.30806 4.79961,3.35973 8.77644,7.19942 3.97682,3.83969 6.44519,9.2564 2.53694,5.41671 2.53694,11.72477 0,12.41044 -8.36504,19.60986 -8.36504,7.13085 -23.17528,7.13085 -8.63931,0 -14.60454,-1.85128 -5.96524,-1.85128 -11.65621,-5.34814 -0.89136,-9.11927 -3.42829,-19.19846 h 5.21101 q 4.11395,11.38195 10.01062,16.45582 5.96523,5.00532 14.26171,5.00532 8.77644,0 13.37036,-4.86818 4.66248,-4.93675 4.66248,-11.99904 0,-4.52535 -2.53694,-8.57074 -2.46837,-4.04539 -6.4452,-7.19942 -3.97682,-3.15403 -8.845,-6.17093 -4.79962,-3.08547 -9.6678,-6.37663 -4.79961,-3.29117 -8.77643,-6.8566 -3.97683,-3.63399 -6.51377,-8.50217 -2.46837,-4.93675 -2.46837,-10.62772 0,-8.57074 4.31965,-14.60454 4.38822,-6.0338 11.17625,-8.77644 6.85659,-2.74263 15.2902,-2.74263 3.83969,0 7.67938,0.61709 3.90826,0.54853 5.96524,1.16562 2.05697,0.54853 5.96523,1.71415 z m 47.17337,63.14921 -6.17093,17.55288 q -0.75423,2.05697 -0.89136,4.04539 -0.13713,1.98841 0.34283,3.77112 0.54853,1.78271 2.19411,2.87977 1.71415,1.09705 4.38822,1.09705 h 3.63399 v 4.52535 q -1.98841,0 -7.06229,-0.0686 -5.07388,-0.0686 -8.77644,-0.0686 l -17.8957,0.13713 v -4.52535 h 4.11395 q 4.11396,0 6.4452,-2.8112 2.39981,-2.8112 4.79961,-8.6393 l 28.45486,-76.8624 v -3.77113 q 1.85128,-0.47996 5.21101,-2.8112 0.68566,-0.47996 1.57702,-1.23419 0.95992,-0.75422 1.50845,-1.16562 0.61709,-0.41139 1.02849,-0.41139 0.95992,0 1.78271,1.98841 l 29.34621,84.26752 q 1.98841,5.55384 4.59392,8.50217 2.6055,2.94833 7.19942,2.94833 h 3.35973 v 4.52535 q -2.39981,0.0686 -8.70787,-0.13713 -6.30807,-0.20569 -9.80493,-0.13713 l -19.33559,0.27426 v -4.52535 h 4.45679 q 4.38822,0 4.79961,-3.35973 0.47996,-3.42829 -1.09705,-7.13085 -0.13713,-0.54853 -0.2057,-0.82279 l -6.71946,-18.58137 q -0.82279,-2.05697 -2.39981,-2.05697 h -27.3578 q -2.05698,0 -2.8112,2.6055 z m 3.08546,-9.2564 h 26.80928 q -5.07388,-14.39884 -13.02753,-38.19122 l -0.34283,-1.23418 h -0.13713 z m 66.02899,-8.43361 q 0,-9.32496 3.2226,-17.34717 3.29116,-8.09078 8.6393,-13.78175 5.41671,-5.69098 12.34187,-9.80493 6.99372,-4.18252 14.39884,-6.2395 7.47369,-2.05698 14.81024,-2.26268 6.65089,-0.20569 13.57605,0.8228 6.92516,1.02848 10.01063,1.91984 3.15403,0.82279 9.73636,2.87977 1.09705,0.34283 1.64558,0.47996 h 1.78271 l 2.12555,21.87253 h -5.21101 q -0.75423,-3.70256 -1.98842,-6.71946 -1.23418,-3.0169 -3.70256,-6.0338 -2.3998,-3.08547 -5.75953,-5.07388 -3.35973,-2.05698 -8.63931,-3.2226 -5.27957,-1.16562 -11.93047,-0.95992 -7.26799,0.2057 -13.50749,2.6055 -6.17093,2.39981 -10.69628,6.4452 -4.45678,4.04539 -7.67938,9.39353 -3.15403,5.34814 -4.73105,11.45051 -1.57702,6.10237 -1.57702,12.61613 0,13.16466 5.07388,24.40947 5.14245,11.24481 14.26171,18.03283 9.18784,6.71946 20.29552,6.71946 12.27329,0 18.78706,-5.07387 v -17.82714 q 0,-6.2395 -1.91985,-8.77644 -1.91984,-2.60551 -7.47368,-2.60551 h -3.90826 v -4.59391 q 4.86818,0 11.45051,0.13713 6.65089,0.13713 9.32496,0.13713 4.66249,0 10.07919,-0.13713 5.41671,-0.13713 7.47369,-0.13713 v 4.59391 h -2.26268 q -2.46837,0 -4.04539,1.02849 -1.57701,0.95993 -2.26267,2.87977 -0.68566,1.85128 -0.95992,3.56543 -0.2057,1.71415 -0.2057,4.04539 v 15.42733 l 2.12554,1.43989 -0.68566,2.67407 q -5.89667,3.22259 -16.73008,5.96523 -10.83342,2.74264 -18.9242,2.74264 -3.22259,0 -6.85659,-0.34283 -3.63399,-0.34283 -9.39353,-1.64558 -5.75954,-1.30276 -10.90198,-3.4283 -5.14245,-2.12554 -10.69628,-6.2395 -5.48528,-4.11395 -9.4621,-9.53066 -3.90826,-5.48527 -6.51376,-13.85032 -2.53694,-8.4336 -2.53694,-18.64993 z m 137.74893,-3.08546 h 17.14148 q 3.0169,0 5.14245,-0.75423 2.12554,-0.82279 3.2226,-1.85128 1.09705,-1.09705 1.71414,-2.87977 0.6171,-1.85128 0.75423,-3.2226 0.13713,-1.43988 0.13713,-3.49686 h 4.79962 q 0,1.85128 -0.13714,7.19942 -0.13713,5.34815 -0.13713,8.09078 0,2.26268 0.13713,7.54225 0.13714,5.27958 0.13714,8.77644 h -4.79962 q 0,-5.8281 -0.68566,-8.22791 -0.68566,-2.46837 -2.53694,-3.42829 -1.71414,-0.95993 -7.74795,-0.95993 h -15.01593 q -1.91985,0 -2.12555,2.19411 v 28.93482 q 0,6.30807 2.81121,8.845 2.87977,2.53694 9.59923,2.53694 h 9.80492 q 12.2733,0 16.11299,-3.08546 5.34815,-5.07388 9.0507,-14.19315 0.89136,0.2057 2.46838,0.75423 1.57701,0.47996 2.26267,0.68566 l -4.86818,21.18686 q -3.90825,0 -15.35876,-0.13713 -11.45051,-0.13713 -20.77548,-0.13713 -3.63399,0 -17.34717,0.13713 -13.64462,0.13713 -21.39257,0.13713 v -4.31965 h 4.31965 q 5.21101,0 6.58233,-2.46837 1.43988,-2.53694 1.43988,-9.0507 v -67.606 q 0,-2.39981 -0.20569,-3.97682 -0.2057,-1.64559 -0.89136,-3.2226 -0.68566,-1.57702 -2.19411,-2.33124 -1.43988,-0.82279 -3.70256,-0.82279 h -4.93675 v -4.52535 l 34.96862,0.27426 q 5.07388,0.0686 15.9073,-0.0686 10.90198,-0.20569 17.48431,-0.20569 l 1.98841,20.63834 h -4.79962 q -2.53694,-15.42733 -17.07291,-15.2902 -0.13713,0 -0.4114,0 h -0.47996 -20.36408 z" fill="#65694f" transform="scale(1.056609,0.94642392)" />
        <path d="m 416.17672,665.28048 v 65.10753 q 0,1.81414 0,2.28447 0,0.47033 0.0672,2.1501 0.13438,1.61257 0.33595,2.21728 0.26876,0.60471 0.73909,1.74695 0.53753,1.14224 1.20943,1.61257 0.7391,0.47033 1.88133,0.87348 1.14224,0.40314 2.62043,0.40314 h 4.56895 v 4.233 q -2.95638,0.0672 -9.27228,-0.13438 -6.24871,-0.20158 -10.5489,-0.13439 l -18.61175,0.26877 v -4.233 h 4.83771 q 1.67977,0 2.88919,-0.33595 1.27662,-0.33595 2.01572,-1.14224 0.80628,-0.80629 1.20942,-1.54538 0.47034,-0.80629 0.67191,-2.35167 0.20157,-1.61257 0.20157,-2.68761 0.0672,-1.07505 0.0672,-3.22514 v -31.6467 h -52.47573 v 32.58736 q 0,2.21729 0,3.29233 0.0672,1.00786 0.40315,2.68762 0.40314,1.61257 1.07504,2.41886 0.7391,0.73909 2.08291,1.34381 1.41099,0.60471 3.4939,0.60471 h 4.77052 v 4.233 l -18.54456,-0.26877 q -1.81414,0 -8.3988,0.20158 -6.58467,0.13438 -11.42238,0.0672 v -4.233 h 4.56895 q 2.01571,0 3.35952,-0.60471 1.34381,-0.67191 2.01572,-1.411 0.6719,-0.80629 1.00785,-2.48605 0.40315,-1.74695 0.40315,-2.822 0.0672,-1.07504 0.0672,-3.35952 0,-0.40314 0,-0.60471 v -66.24977 q 0,-2.41885 -0.20158,-3.82985 -0.13438,-1.47819 -0.73909,-3.09076 -0.60471,-1.67976 -2.0829,-2.41886 -1.411,-0.80628 -3.69548,-0.80628 h -5.10647 v -4.43457 q 2.21728,0 8.60038,0.13438 6.45028,0.13438 11.35518,0.13438 2.35166,0 8.19723,-0.13438 5.84557,-0.13438 10.34733,-0.13438 v 4.43457 h -4.77052 q -4.30019,0 -5.57681,2.68761 -1.20943,2.62043 -1.20943,8.60038 v 26.80898 h 52.47573 v -27.95122 q 0,-2.15009 -0.26876,-3.69547 -0.20157,-1.61257 -0.87348,-3.15795 -0.60471,-1.61257 -2.0829,-2.41886 -1.411,-0.87347 -3.56109,-0.87347 h -4.77052 v -4.43457 q 2.82199,0 8.60037,0.13438 5.84557,0.13438 9.94418,0.13438 3.09076,0 9.47386,-0.13438 6.45028,-0.13438 10.4817,-0.13438 v 4.43457 h -5.10647 q -4.16581,0 -5.44243,2.68761 -1.27661,2.62043 -1.27661,8.60038 z m 75.72361,-17.87266 q 10.41452,0 19.88837,4.03143 9.54104,3.96424 16.46165,10.68328 6.92062,6.71904 11.01923,16.05851 4.09862,9.33947 4.09862,19.55242 0,10.21294 -4.09862,19.55241 -4.09861,9.33947 -11.01923,16.12571 -6.92061,6.71904 -16.46165,10.75047 -9.47385,3.96423 -19.88837,3.96423 -14.0428,0 -25.93551,-6.71904 -11.82551,-6.78624 -18.74613,-18.34299 -6.92061,-11.62394 -6.92061,-25.33079 0,-10.21295 4.09862,-19.55242 4.09861,-9.33947 10.95204,-16.05851 6.92061,-6.71904 16.46165,-10.68328 9.60823,-4.03143 20.08994,-4.03143 z m 1.81414,95.34323 q 6.11433,0 11.42238,-2.21729 5.30804,-2.28447 9.13789,-6.11433 3.89705,-3.89704 6.65186,-9.00351 2.7548,-5.17367 4.09861,-11.08643 1.411,-5.91275 1.411,-12.16146 0,-6.3159 -1.34381,-12.96776 -1.3438,-6.71904 -4.30018,-13.3037 -2.95638,-6.58466 -7.12219,-11.75833 -4.09862,-5.17366 -10.21294,-8.33161 -6.11433,-3.22514 -13.30371,-3.22514 -7.52533,0 -13.84123,3.42671 -6.3159,3.42671 -10.48171,9.1379 -4.09861,5.71119 -6.38309,12.96775 -2.21728,7.25657 -2.21728,14.98347 0,6.24871 1.34381,12.90056 1.411,6.65185 4.36738,13.23652 2.95637,6.51747 7.12218,11.69113 4.16581,5.17366 10.28014,8.46599 6.18152,3.22515 13.37089,3.35953 z m 120.47245,4.36737 q -1.20943,0 -1.61257,-0.26876 -0.40315,-0.20157 -0.87348,-1.34381 -1.61257,-3.82985 -6.58466,-14.7147 L 576.3587,670.92448 h -0.26876 q -0.13438,5.37523 -0.80628,26.60741 -0.67191,21.23217 -0.87348,32.85612 0,11.28799 8.13004,11.28799 h 4.9721 v 4.233 q -2.01572,0 -7.59252,-0.13438 -5.57681,-0.13439 -10.14576,-0.13439 h -1.14224 q -9.67542,0.26877 -17.06637,0.26877 v -4.233 h 3.09076 q 5.97995,0 8.86914,-2.28448 2.88919,-2.28447 3.35952,-9.00351 l 2.62043,-65.10753 q 0,-5.84557 -0.7391,-7.79409 -1.3438,-3.4939 -5.77837,-3.4939 h -5.30805 v -4.43457 q 1.34381,0 5.17367,0.13438 3.89704,0.13438 6.92061,0.13438 1.47819,0 5.57681,-0.13438 4.09861,-0.13438 7.05499,-0.13438 3.42671,7.92847 6.3159,13.90842 l 29.4966,61.27767 29.96693,-61.27767 q 1.27662,-2.48605 3.29234,-7.32376 2.0829,-4.83771 2.88918,-6.58466 1.47819,0 5.44243,0.13438 3.96423,0.13438 6.9878,0.13438 h 0.94067 q 1.411,0 5.10647,-0.13438 3.76267,-0.13438 6.45028,-0.13438 v 4.43457 h -3.56109 q -2.88919,0 -4.77052,0.87347 -1.81414,0.80629 -2.62043,2.55324 -0.80628,1.74695 -1.07504,3.42671 -0.20157,1.61257 -0.20157,4.30019 l 1.74695,65.24191 q 0,11.28799 8.80194,11.28799 h 4.03143 v 4.233 q -2.28448,0 -8.73476,-0.13438 -6.45028,-0.13439 -11.62394,-0.13439 -2.62043,0 -8.93633,0.13439 -6.3159,0.13438 -11.01923,0.13438 v -4.233 h 3.56109 q 5.24086,0 7.055,-2.55324 1.88133,-2.62042 1.74695,-8.73475 -0.20157,-10.01138 -0.47033,-29.69817 -0.26876,-19.75399 -0.47034,-29.76536 h -0.26876 q -2.35166,4.77052 -29.63098,60.53857 -1.54538,3.09076 -3.62828,7.92847 -2.0829,4.83772 -2.68762,6.11433 -0.60471,1.61257 -2.35166,1.61257 z m 101.39035,-54.7602 h 16.7976 q 2.95638,0 5.03929,-0.73909 2.0829,-0.80629 3.15795,-1.81414 1.07504,-1.07505 1.67976,-2.822 0.60471,-1.81414 0.73909,-3.15795 0.13438,-1.411 0.13438,-3.42671 h 4.70333 q 0,1.81414 -0.13438,7.05499 -0.13438,5.24086 -0.13438,7.92847 0,2.21729 0.13438,7.39095 0.13438,5.17366 0.13438,8.60038 h -4.70333 q 0,-5.71119 -0.6719,-8.06286 -0.67191,-2.41885 -2.48605,-3.35952 -1.67976,-0.94066 -7.59252,-0.94066 h -14.7147 q -1.88133,0 -2.0829,2.15009 v 28.35436 q 0,6.18152 2.7548,8.66757 2.822,2.48604 9.40666,2.48604 h 9.60823 q 12.02709,0 15.78976,-3.02357 5.24085,-4.97209 8.86913,-13.90842 0.87348,0.20158 2.41886,0.7391 1.54538,0.47033 2.21728,0.6719 l -4.77052,20.76185 q -3.82985,0 -15.05065,-0.13438 -11.22081,-0.13439 -20.35871,-0.13439 -3.56109,0 -16.99917,0.13439 -13.3709,0.13438 -20.96342,0.13438 v -4.233 h 4.233 q 5.10647,0 6.45028,-2.41886 1.411,-2.48604 1.411,-8.86913 v -66.24977 q 0,-2.35166 -0.20157,-3.89704 -0.20157,-1.61257 -0.87348,-3.15795 -0.6719,-1.54538 -2.15009,-2.28448 -1.411,-0.80628 -3.62829,-0.80628 h -4.83771 v -4.43457 l 34.26712,0.26876 q 4.9721,0.0672 15.58818,-0.0672 10.68328,-0.20157 17.13356,-0.20157 l 1.94853,20.22432 h -4.70333 q -2.48605,-15.11785 -16.73042,-14.98347 -0.13438,0 -0.40314,0 h -0.47034 -19.95555 z" fill="#65694f" transform="scale(1.0018483,0.99815513)" />
        <path d="m 385.59507,850.16411 c 9.88665,0 15.25717,-5.37052 15.25717,-12.44985 0,-7.50653 -5.79772,-10.31385 -14.15865,-12.26677 -6.89625,-1.64778 -10.49694,-2.99041 -10.49694,-6.89624 0,-3.35658 3.29555,-6.34699 7.99476,-6.34699 4.27201,0 8.48299,1.89189 12.02265,5.12641 l 3.53967,-4.63818 c -4.0279,-3.53966 -8.84916,-5.91978 -15.31821,-5.91978 -8.42196,0 -14.52483,5.30949 -14.52483,12.32779 0,7.56756 5.67567,10.13077 14.21969,12.14472 7.0183,1.58674 10.49694,3.11246 10.49694,7.07933 0,3.35657 -2.99041,6.40801 -8.78814,6.40801 -5.67567,0 -10.06973,-2.31909 -13.79248,-5.85876 l -3.72275,4.57716 c 4.45509,4.27201 10.25282,6.71315 17.27112,6.71315 z m 51.93543,-0.67131 h 6.1639 v -36.19002 h 13.79249 v -5.7367 h -33.68785 v 5.7367 h 13.73146 z m 62.73743,0.73234 c 10.49694,0 18.00347,-7.62859 18.00347,-18.36964 v -24.28942 h -6.22493 v 24.16737 c 0,7.50653 -4.8823,12.87705 -11.77854,12.87705 -6.95727,0 -11.83957,-5.37052 -11.83957,-12.87705 v -24.16737 h -6.1639 v 24.28942 c 0,10.74105 7.44551,18.36964 18.00347,18.36964 z m 45.58843,-0.73234 h 14.4638 c 13.54837,0 23.19091,-8.72711 23.19091,-20.99388 0,-12.26676 -9.64254,-20.93284 -23.19091,-20.93284 h -14.4638 z m 6.1639,-5.61464 v -30.69744 h 8.66607 c 9.70357,0 16.47775,6.34699 16.47775,15.3182 0,9.03225 -6.77418,15.37924 -16.47775,15.37924 z m 57.12278,5.61464 h 6.1639 v -41.92672 h -6.1639 z m 52.97288,0.73234 c 11.77854,0 21.66519,-9.94768 21.66519,-21.72622 0,-11.77854 -9.88665,-21.66518 -21.66519,-21.66518 -11.77854,0 -21.78725,9.88664 -21.78725,21.66518 0,11.77854 10.00871,21.72622 21.78725,21.72622 z m 0,-5.67567 c -8.36093,0 -15.44026,-7.32344 -15.44026,-16.05055 0,-8.66607 7.07933,-15.98952 15.44026,-15.98952 8.36093,0 15.37923,7.32345 15.37923,15.98952 0,8.72711 -7.0183,16.05055 -15.37923,16.05055 z" fill="#988155" transform="scale(1.0171453,0.98314371)" />
    </g>
</svg>