<?xml version="1.0" encoding="UTF-8" standalone="no"?>
<!-- Created with Inkscape (http://www.inkscape.org/) -->

<svg
   width="800"
   height="300"
   viewBox="0 0 800 300"
   version="1.1"
   id="svg1"
   xml:space="preserve"
   inkscape:version="1.4 (86a8ad7, 2024-10-11)"
   sodipodi:docname="logo-wide.svg"
   inkscape:export-filename="Massage Home Studio new.png"
   inkscape:export-xdpi="96"
   inkscape:export-ydpi="96"
   xmlns:inkscape="http://www.inkscape.org/namespaces/inkscape"
   xmlns:sodipodi="http://sodipodi.sourceforge.net/DTD/sodipodi-0.dtd"
   xmlns:xlink="http://www.w3.org/1999/xlink"
   xmlns="http://www.w3.org/2000/svg"
   xmlns:svg="http://www.w3.org/2000/svg"><sodipodi:namedview
     id="namedview1"
     pagecolor="#ffffff"
     bordercolor="#666666"
     borderopacity="1.0"
     inkscape:showpageshadow="2"
     inkscape:pageopacity="0.0"
     inkscape:pagecheckerboard="0"
     inkscape:deskcolor="#d1d1d1"
     inkscape:document-units="px"
     showgrid="false"
     inkscape:zoom="0.88"
     inkscape:cx="539.77273"
     inkscape:cy="511.93182"
     inkscape:window-width="2545"
     inkscape:window-height="1211"
     inkscape:window-x="189"
     inkscape:window-y="56"
     inkscape:window-maximized="0"
     inkscape:current-layer="layer1"><inkscape:grid
       id="grid4"
       units="px"
       originx="-0.92544985"
       originy="-0.92544985"
       spacingx="1"
       spacingy="1"
       empcolor="#0099e5"
       empopacity="0.30196078"
       color="#0099e5"
       opacity="0.14901961"
       empspacing="5"
       enabled="true"
       visible="false" /></sodipodi:namedview><defs
     id="defs1"><linearGradient
       id="swatch7"
       inkscape:swatch="solid"><stop
         style="stop-color:#000000;stop-opacity:1;"
         offset="0"
         id="stop7" /></linearGradient><linearGradient
       id="swatch6"
       inkscape:swatch="solid"><stop
         style="stop-color:#000000;stop-opacity:1;"
         offset="0"
         id="stop6" /></linearGradient><linearGradient
       id="swatch5"
       inkscape:swatch="solid"><stop
         style="stop-color:#65694f;stop-opacity:1;"
         offset="0"
         id="stop5" /></linearGradient><linearGradient
       inkscape:collect="always"
       xlink:href="#swatch5"
       id="linearGradient6"
       gradientUnits="userSpaceOnUse"
       gradientTransform="matrix(0.66479443,0,0,0.59546846,151.88604,-300.94135)" /><linearGradient
       inkscape:collect="always"
       xlink:href="#swatch5"
       id="linearGradient12"
       gradientUnits="userSpaceOnUse"
       gradientTransform="matrix(0.6176954,0,0,0.61541834,185.9339,-310.40357)" /></defs><g
     inkscape:label="logo"
     inkscape:groupmode="layer"
     id="layer1"
     transform="translate(-0.92544985,-0.92544985)"><rect
       style="fill:#e3ddcd;fill-opacity:1;stroke-width:0.451098"
       id="background"
       width="800"
       height="300"
       x="0.92544985"
       y="0.92544985" /><g
       id="leaf"
       transform="matrix(0.15695365,0,0,0.16679517,35.535058,78.291859)"
       style="opacity:1"><path
         d="m 1015,8.5 c 41,40.8 26,105.1 19.9,158.3 -7.9,108.1 -34.3,216.1 -83.1,313 -34.4,71 -90,128.7 -149.2,179.4 -36.6,24 -75.7,45 -115.6,62.3 -71,25.9 -144.9,45.6 -221.1,43.6 C 365.5,766.4 267,738 166.7,741.1 85.9,769 165.9,761.7 104.9,710.7 93.1,654.5 82.5,593.7 96.8,534.9 c 10,-85.5 47,-166.7 101.3,-232.6 40.5,-48.2 91.2,-86.2 146.9,-114.5 39.5,-20.1 81.5,-35.4 124.2,-46.2 137,-40 283.5,-28.2 419.5,-72.8 C 927.1,48 971.4,39 1006,11 Z"
         fill="#65694f"
         id="path1"
         inkscape:label="border" /><path
         d="m 1011,16.2 c 40.5,40.1 23.2,104.2 19.6,155.6 -7.8,106.3 -33.8,212.5 -82,307.7 C 914.7,549.3 859.7,606 801.3,655.9 765.2,679.5 726.6,700.2 687.1,717.2 617,742.7 544,762.1 468.8,760 c -99.2,1.3 -196.4,-26.6 -295.4,-23.6 -167.2,45.1 -0.8,20.2 -61,-29.9 -11.7,-55.4 -22.2,-115.1 -8,-173.1 9.9,-84.1 46.4,-164 100.1,-228.8 40,-47.4 90.1,-84.8 145.1,-112.7 39,-19.8 80.5,-34.8 122.6,-45.4 16,-4.6 32.2,-8.5 48.5,-11.9 C 641.6,109.5 768,114 886.4,75.3 924.4,54.9 968.1,46 1002.2,18.5 Z"
         fill="#969976"
         id="path2"
         inkscape:label="lamina" /><path
         d="m 832.6,221.3 c 10.5,24.2 -17.2,36.6 -39.2,56.2 -18.6,18.6 -46.8,34 -67,46 -19.7,14 -42.7,25.7 -68,36 -32.4,14.1 -62.9,28.5 -95.9,41.1 -28.2,15.2 -60.1,24.5 -88.2,40.5 -28.2,13 -57.8,31.3 -82.9,46.4 -28.3,16.6 -55.6,32.9 -79.8,54.4 -20.5,11.9 -32.6,25.3 -50.2,43.3 -15.3,15.4 -32.7,31.5 -46.2,49.1 -12.9,13.4 -24.2,32.3 -36.9,46.6 -11.8,12.4 -19.7,35 -30.1,47.1 -16.6,30.3 -29.3,63.1 -41.9,96.4 -13.3,29.2 -22,60.5 -28.9,93.2 -9,28.8 -5.6,84.5 -52.2,68.2 -20.8,-33.3 1.1,-77.1 7.1,-112.7 22.5,-62.6 48.6,-124.6 85.6,-179.9 14.2,-22.6 29.1,-48.2 47.4,-69 12.7,-21.9 34.4,-32.4 47.7,-53.2 17,-15.3 30.2,-34.3 47.2,-46.4 13.3,-11.4 26.7,-21 40.6,-32.6 22.2,-16.4 45.1,-27.3 67.1,-44.5 28,-16.6 52.9,-30.7 83.2,-42.2 25.7,-12.8 53,-21.1 77.4,-31.8 30,-9.9 58.1,-21.6 88.9,-29.9 22.1,-10.4 46.2,-15.9 72.1,-32.6 30.8,-19.7 59.4,-40.2 88.7,-60.4 18.3,-9.7 29.6,-36.7 54.6,-29.2 z"
         fill="#65694f"
         id="stem"
         inkscape:label="petiole" /></g><path
       d="m 298.99443,119.19521 q -0.85697,0 -1.14263,-0.17058 -0.28565,-0.12793 -0.61891,-0.85289 -1.14263,-2.43074 -4.66571,-9.33914 L 272.19041,70.836365 h -0.19043 q -0.0952,3.41155 -0.57131,16.88722 -0.4761,13.475645 -0.61893,20.853145 0,7.16427 5.76072,7.16427 h 3.52309 v 2.6866 q -1.42828,0 -5.37985,-0.0853 -3.95158,-0.0853 -7.189,-0.0853 h -0.80935 q -6.85574,0.17057 -12.09276,0.17057 v -2.6866 h 2.19003 q 4.23722,0 6.28442,-1.44991 2.0472,-1.44991 2.38046,-5.71436 l 1.85677,-41.322475 q 0,-3.71007 -0.52371,-4.94676 -0.95218,-2.21751 -4.0944,-2.21751 h -3.76112 v -2.81454 q 0.95218,0 3.66591,0.0853 2.76134,0.0853 4.90375,0.0853 1.0474,0 3.95157,-0.0853 2.90416,-0.0853 4.99898,-0.0853 2.42807,5.03205 4.47526,8.8274 l 20.90047,38.891775 21.23373,-38.891775 q 0.90457,-1.57784 2.33286,-4.64824 1.47588,-3.0704 2.0472,-4.17916 1.04741,0 3.85635,0.0853 2.80894,0.0853 4.95136,0.0853 h 0.66652 q 0.99981,0 3.61831,-0.0853 2.66613,-0.0853 4.57049,-0.0853 v 2.81454 h -2.52328 q -2.04721,0 -3.38027,0.55437 -1.28544,0.51174 -1.85675,1.6205 -0.57131,1.10874 -0.76176,2.17486 -0.14283,1.02347 -0.14283,2.72925 l 1.23785,41.407795 q 0,7.16427 6.23681,7.16427 h 2.85656 v 2.6866 q -1.61871,0 -6.18921,-0.0853 -4.57049,-0.0853 -8.23639,-0.0853 -1.85677,0 -6.33204,0.0853 -4.47527,0.0853 -7.80792,0.0853 v -2.6866 h 2.52329 q 3.71352,0 4.99897,-1.62049 1.33306,-1.66313 1.23784,-5.54378 -0.14282,-6.35402 -0.33327,-18.848865 -0.19043,-12.53748 -0.33326,-18.8915 h -0.19043 q -1.66633,3.02776 -20.99569,38.422675 -1.09502,1.96164 -2.5709,5.03205 -1.47588,3.0704 -1.90437,3.88065 -0.42848,1.02347 -1.66632,1.02347 z m 70.69975,-21.833975 -4.28483,10.916985 q -0.52371,1.27933 -0.61892,2.51603 -0.0952,1.23669 0.23804,2.34544 0.38088,1.10875 1.5235,1.79107 1.19023,0.6823 3.04699,0.6823 h 2.52329 v 2.81454 q -1.38067,0 -4.90375,-0.0426 -3.52309,-0.0427 -6.09399,-0.0427 l -12.42601,0.0853 v -2.81454 h 2.85655 q 2.85655,0 4.47527,-1.74842 1.66632,-1.74842 3.33265,-5.3732 l 19.75784,-47.804475 v -2.34544 q 1.28545,-0.29851 3.61831,-1.74842 0.47609,-0.29852 1.09501,-0.76761 0.66653,-0.46908 1.0474,-0.72495 0.42849,-0.25587 0.71415,-0.25587 0.66652,0 1.23783,1.23669 l 20.37677,52.410075 q 1.38067,3.45421 3.18982,5.28791 1.80916,1.83371 4.99897,1.83371 h 2.33286 v 2.81454 q -1.66632,0.0427 -6.04638,-0.0853 -4.38005,-0.12793 -6.80813,-0.0853 l -13.4258,0.17058 v -2.81454 h 3.09459 q 3.047,0 3.33266,-2.08957 0.33326,-2.13223 -0.76176,-4.43503 -0.0952,-0.34116 -0.14282,-0.51173 l -4.66571,-11.556655 q -0.57131,-1.27933 -1.66632,-1.27933 h -18.9961 q -1.42828,0 -1.95198,1.62049 z m 2.14242,-5.757 h 18.61521 q -3.52308,-8.95535 -9.04575,-23.75299 l -0.23804,-0.7676 h -0.0952 z m 88.26758,-33.51857 q 0.47609,4.05122 1.95198,10.7464 h -3.5707 q -1.66632,-5.24527 -4.6181,-7.46278 -2.90416,-2.26016 -7.28422,-2.26016 -5.42746,0 -8.66488,2.64396 -3.23744,2.60131 -3.23744,7.24956 0,2.51602 1.71394,4.77619 1.76155,2.2175 4.52288,4.00858 2.76134,1.79107 6.09399,3.62478 3.38026,1.83372 6.7129,3.92329 3.33266,2.08959 6.09399,4.47767 2.76134,2.3881 4.47527,5.75701 1.76154,3.36892 1.76154,7.292205 0,7.71866 -5.80833,12.19633 -5.80833,4.43502 -16.09193,4.43502 -5.99876,0 -10.14077,-1.15141 -4.142,-1.1514 -8.09358,-3.32626 -0.61892,-5.67172 -2.38046,-11.94046 h 3.61831 q 2.85654,7.07899 6.95094,10.23468 4.14201,3.11305 9.90273,3.11305 6.09399,0 9.28381,-3.02776 3.23743,-3.0704 3.23743,-7.46279 0,-2.81453 -1.76154,-5.33056 -1.71394,-2.516015 -4.47527,-4.477665 -2.76135,-1.96165 -6.1416,-3.838 -3.33265,-1.919 -6.7129,-3.96594 -3.33266,-2.04693 -6.09399,-4.26445 -2.76134,-2.26016 -4.52288,-5.28792 -1.71394,-3.07041 -1.71394,-6.6099 0,-5.33056 2.99939,-9.08327 3.04699,-3.75271 7.7603,-5.4585 4.76094,-1.70577 10.61688,-1.70577 2.66611,0 5.33223,0.38379 2.71373,0.34117 4.14201,0.72496 1.42828,0.34116 4.14201,1.06612 z m 52.22735,0 q 0.47608,4.05122 1.95198,10.7464 h -3.5707 q -1.66632,-5.24527 -4.6181,-7.46278 -2.90416,-2.26016 -7.28421,-2.26016 -5.42746,0 -8.66489,2.64396 -3.23743,2.60131 -3.23743,7.24956 0,2.51602 1.71393,4.77619 1.76154,2.2175 4.52288,4.00858 2.76134,1.79107 6.09398,3.62478 3.38027,1.83372 6.71292,3.92329 3.33264,2.08959 6.09398,4.47767 2.76134,2.3881 4.47527,5.75701 1.76154,3.36892 1.76154,7.292205 0,7.71866 -5.80833,12.19633 -5.80833,4.43502 -16.09193,4.43502 -5.99877,0 -10.14077,-1.15141 -4.14201,-1.1514 -8.09358,-3.32626 -0.61892,-5.67172 -2.38045,-11.94046 h 3.6183 q 2.85655,7.07899 6.95095,10.23468 4.142,3.11305 9.90272,3.11305 6.09399,0 9.28381,-3.02776 3.23744,-3.0704 3.23744,-7.46279 0,-2.81453 -1.76155,-5.33056 -1.71393,-2.516015 -4.47528,-4.477665 -2.76133,-1.96165 -6.14159,-3.838 -3.33265,-1.919 -6.71291,-3.96594 -3.33264,-2.04693 -6.09397,-4.26445 -2.76135,-2.26016 -4.52289,-5.28792 -1.71394,-3.07041 -1.71394,-6.6099 0,-5.33056 2.99939,-9.08327 3.04699,-3.75271 7.76031,-5.4585 4.76092,-1.70577 10.61686,-1.70577 2.66612,0 5.33225,0.38379 2.71372,0.34117 4.14201,0.72496 1.42827,0.34116 4.142,1.06612 z m 32.75518,39.27557 -4.28483,10.916985 q -0.52371,1.27933 -0.61892,2.51603 -0.0952,1.23669 0.23805,2.34544 0.38087,1.10875 1.52349,1.79107 1.19023,0.6823 3.04699,0.6823 h 2.52329 v 2.81454 q -1.38067,0 -4.90375,-0.0426 -3.52309,-0.0427 -6.09399,-0.0427 l -12.42601,0.0853 v -2.81454 h 2.85655 q 2.85655,0 4.47527,-1.74842 1.66632,-1.74842 3.33264,-5.3732 l 19.75786,-47.804475 v -2.34544 q 1.28544,-0.29851 3.6183,-1.74842 0.47609,-0.29852 1.09502,-0.76761 0.66652,-0.46908 1.04739,-0.72495 0.42849,-0.25587 0.71415,-0.25587 0.66652,0 1.23783,1.23669 l 20.37677,52.410075 q 1.38066,3.45421 3.18982,5.28791 1.80915,1.83371 4.99898,1.83371 h 2.33285 v 2.81454 q -1.66633,0.0427 -6.04638,-0.0853 -4.38006,-0.12793 -6.80812,-0.0853 l -13.42582,0.17058 v -2.81454 h 3.0946 q 3.047,0 3.33265,-2.08957 0.33327,-2.13223 -0.76174,-4.43503 -0.0952,-0.34116 -0.14283,-0.51173 l -4.66571,-11.556655 q -0.57131,-1.27933 -1.66633,-1.27933 h -18.99609 q -1.42828,0 -1.95198,1.62049 z m 2.14241,-5.757 h 18.61523 q -3.52309,-8.95535 -9.04576,-23.75299 l -0.23805,-0.7676 h -0.0952 z m 45.84773,-5.24528 q 0,-5.79964 2.23764,-10.78905 2.28524,-5.03206 5.99876,-8.57154 3.76113,-3.5395 8.56967,-6.09817 4.85614,-2.60131 9.99795,-3.88065 5.18941,-1.27934 10.2836,-1.40727 4.61809,-0.12793 9.42663,0.51174 4.80854,0.63966 6.95096,1.19404 2.19002,0.51174 6.76051,1.79107 0.76175,0.21323 1.14262,0.29852 h 1.23784 l 1.47589,13.60358 h -3.6183 q -0.52371,-2.3028 -1.38068,-4.17916 -0.85696,-1.87635 -2.5709,-3.75271 -1.66631,-1.91901 -3.99917,-3.1557 -2.33285,-1.27933 -5.99877,-2.00428 -3.66591,-0.72496 -8.28401,-0.59702 -5.04658,0.12793 -9.37903,1.62048 -4.28483,1.49256 -7.42704,4.00858 -3.0946,2.51603 -5.33224,5.8423 -2.19002,3.32627 -3.28504,7.12163 -1.09502,3.79536 -1.09502,7.84659 0,8.18774 3.52309,15.181435 3.57071,6.99369 9.90273,11.2155 6.37965,4.17916 14.09234,4.17916 8.52206,0 13.04494,-3.15569 v -11.08757 q 0,-3.880645 -1.33306,-5.458495 -1.33305,-1.62049 -5.1894,-1.62049 h -2.71374 v -2.85717 q 3.38026,0 7.95076,0.0853 4.61809,0.0853 6.47485,0.0853 3.23744,0 6.99856,-0.0853 3.76113,-0.0853 5.18941,-0.0853 v 2.85717 h -1.5711 q -1.71394,0 -2.80895,0.63967 -1.09501,0.59703 -1.5711,1.79107 -0.4761,1.1514 -0.66653,2.21751 -0.14283,1.066115 -0.14283,2.516025 v 9.59501 l 1.47588,0.89553 -0.47609,1.66313 q -4.09439,2.0043 -11.61666,3.71008 -7.52227,1.70578 -13.14016,1.70578 -2.23763,0 -4.76092,-0.21323 -2.52329,-0.21322 -6.52247,-1.02346 -3.99918,-0.81025 -7.56987,-2.13223 -3.5707,-1.32197 -7.42705,-3.88065 -3.80874,-2.55867 -6.57008,-5.92758 -2.71372,-3.41155 -4.52288,-8.614185 -1.76154,-5.24527 -1.76154,-11.5993 z m 95.64701,-1.91899 h 11.90232 q 2.09481,0 3.5707,-0.4691 1.47588,-0.51173 2.23763,-1.1514 0.76175,-0.68231 1.19023,-1.79107 0.42849,-1.1514 0.5237,-2.00429 0.0952,-0.89553 0.0952,-2.17487 h 3.33265 q 0,1.1514 -0.0952,4.47767 -0.0952,3.32628 -0.0952,5.03205 0,1.40727 0.0952,4.69089 0.0952,3.28363 0.0952,5.4585 h -3.33265 q 0,-3.62478 -0.47609,-5.11734 -0.47609,-1.5352 -1.76155,-2.13222 -1.19022,-0.59702 -5.37984,-0.59702 h -10.42643 q -1.33306,0 -1.47589,1.36462 v 17.995965 q 0,3.9233 1.95199,5.50114 1.99958,1.57785 6.66529,1.57785 h 6.80813 q 8.52205,0 11.18817,-1.919 3.71353,-3.1557 6.28442,-8.82742 0.61893,0.12794 1.71394,0.4691 1.09501,0.29851 1.57111,0.42644 l -3.38026,13.17714 q -2.71372,0 -10.66447,-0.0853 -7.95076,-0.0853 -14.42562,-0.0853 -2.52328,0 -12.04514,0.0853 -9.47424,0.0853 -14.85409,0.0853 v -2.6866 h 2.99939 q 3.6183,0 4.57048,-1.5352 0.9998,-1.57785 0.9998,-5.62907 V 66.529265 q 0,-1.49255 -0.14283,-2.47337 -0.14282,-1.02348 -0.61892,-2.0043 -0.47609,-0.98082 -1.5235,-1.44991 -0.99979,-0.51173 -2.5709,-0.51173 h -3.42786 v -2.81454 l 24.28072,0.17057 q 3.52308,0.0427 11.04535,-0.0426 7.56988,-0.12792 12.14037,-0.12792 l 1.38066,12.83599 h -3.33265 q -1.76154,-9.59501 -11.85471,-9.50973 -0.0952,0 -0.28565,0 h -0.33327 -14.13995 z"
       id="massage"
       style="font-size:140.423px;line-height:1.25;font-family:Epic;-inkscape-font-specification:'Epic, Normal';font-variant-ligatures:none;text-align:center;text-anchor:middle;fill:url(#linearGradient6);stroke-width:0.629177"
       aria-label="MASSAGE" /><path
       d="m 413.56827,154.98893 v 42.70691 q 0,1.18997 0,1.49848 0,0.30851 0.0442,1.41035 0.0885,1.05776 0.22117,1.45441 0.17695,0.39666 0.4866,1.1459 0.35389,0.74925 0.79626,1.05775 0.48659,0.30851 1.23861,0.57296 0.75201,0.26444 1.72521,0.26444 h 3.00807 v 2.77661 q -1.9464,0.0441 -6.10461,-0.0881 -4.11397,-0.13223 -6.94508,-0.0882 l -12.25345,0.1763 v -2.77661 h 3.18501 q 1.10592,0 1.90216,-0.22037 0.84049,-0.22036 1.32709,-0.74924 0.53084,-0.52888 0.79625,-1.01369 0.30966,-0.52888 0.44237,-1.54256 0.13271,-1.05775 0.13271,-1.76292 0.0443,-0.70518 0.0443,-2.11551 v -20.75847 h -34.54852 v 21.37549 q 0,1.45441 0,2.15959 0.0442,0.66109 0.26543,1.76292 0.26541,1.05776 0.70778,1.58664 0.48659,0.4848 1.37132,0.88146 0.92896,0.39666 2.30028,0.39666 h 3.14078 v 2.77661 l -12.2092,-0.1763 q -1.19439,0 -5.52953,0.13223 -4.33516,0.0881 -7.52017,0.0441 v -2.77662 h 3.00806 q 1.32709,0 2.21182,-0.39665 0.88472,-0.44074 1.32709,-0.92554 0.44236,-0.52888 0.66354,-1.63071 0.26542,-1.14591 0.26542,-1.85108 0.0442,-0.70516 0.0442,-2.20365 0,-0.26444 0,-0.39666 v -43.45615 q 0,-1.58663 -0.13271,-2.51217 -0.0885,-0.96961 -0.4866,-2.02737 -0.39813,-1.10182 -1.37132,-1.58663 -0.92896,-0.52887 -2.433,-0.52887 h -3.36195 v -2.90884 q 1.45979,0 5.66224,0.0881 4.24668,0.0881 7.47592,0.0881 1.54827,0 5.39682,-0.0881 3.84856,-0.0881 6.81239,-0.0881 v 2.90884 h -3.14077 q -2.83113,0 -3.67162,1.76291 -0.79625,1.71886 -0.79625,5.64137 v 17.5852 h 34.54851 v -18.33444 q 0,-1.41034 -0.17695,-2.42403 -0.1327,-1.05775 -0.57507,-2.07143 -0.39812,-1.05776 -1.37132,-1.58664 -0.92896,-0.57294 -2.34452,-0.57294 h -3.14077 v -2.90884 q 1.85792,0 5.66223,0.0881 3.84856,0.0881 6.54697,0.0881 2.03486,0 6.23731,-0.0881 4.24668,-0.0881 6.90085,-0.0881 v 2.90884 h -3.36195 q -2.74265,0 -3.58314,1.76291 -0.84048,1.71886 -0.84048,5.64137 z m 49.85424,-11.72347 q 6.85662,0 13.09393,2.6444 6.28154,2.60032 10.83788,7.00763 4.55634,4.40732 7.25474,10.53349 2.69841,6.12617 2.69841,12.8253 0,6.69911 -2.69841,12.82528 -2.6984,6.12618 -7.25474,10.57757 -4.55634,4.40731 -10.83788,7.05171 -6.23731,2.60031 -13.09393,2.60031 -9.24538,0 -17.0752,-4.40732 -7.78557,-4.45138 -12.3419,-12.03197 -4.55634,-7.62466 -4.55634,-16.61558 0,-6.69913 2.69841,-12.8253 2.69841,-6.12617 7.21051,-10.53349 4.55633,-4.40731 10.83788,-7.00763 6.32578,-2.6444 13.22664,-2.6444 z m 1.19437,62.53985 q 4.0255,0 7.52018,-1.45443 3.49465,-1.49848 6.01611,-4.01065 2.56571,-2.55625 4.3794,-5.90581 1.81368,-3.39363 2.6984,-7.27208 0.92896,-3.87843 0.92896,-7.97724 0,-4.14288 -0.88472,-8.50612 -0.88472,-4.40731 -2.83111,-8.72648 -1.9464,-4.31918 -4.68905,-7.71282 -2.69842,-3.39363 -6.72391,-5.46507 -4.02549,-2.11551 -8.75878,-2.11551 -4.95445,0 -9.11266,2.24773 -4.15821,2.24774 -6.90086,5.99395 -2.6984,3.74623 -4.20244,8.50612 -1.45979,4.75991 -1.45979,9.82833 0,4.0988 0.88472,8.46204 0.92896,4.36325 2.87536,8.68242 1.94639,4.2751 4.68904,7.66873 2.74265,3.39363 6.76815,5.55322 4.06973,2.11552 8.803,2.20367 z m 79.3156,2.86474 q -0.79626,0 -1.06167,-0.17629 -0.26543,-0.13222 -0.57508,-0.88146 -1.06166,-2.51217 -4.33515,-9.65203 l -18.93311,-39.26919 h -0.17695 q -0.0885,3.52585 -0.53083,17.45298 -0.44237,13.92712 -0.57507,21.55178 0,7.40429 5.35258,7.40429 h 3.27349 v 2.77661 q -1.3271,0 -4.99869,-0.0881 -3.67162,-0.0882 -6.67969,-0.0882 h -0.75201 q -6.37002,0.1763 -11.23601,0.1763 v -2.77661 h 2.03487 q 3.93703,0 5.83918,-1.49849 1.90216,-1.49849 2.21182,-5.9058 l 1.72521,-42.70691 q 0,-3.83436 -0.4866,-5.11249 -0.88472,-2.2918 -3.80431,-2.2918 h -3.49467 v -2.90883 q 0.88472,0 3.40619,0.0881 2.56571,0.0881 4.55633,0.0881 0.9732,0 3.67162,-0.0881 2.6984,-0.0881 4.6448,-0.0881 2.25605,5.20063 4.15821,9.12314 l 19.4197,40.19474 19.72937,-40.19474 q 0.84049,-1.6307 2.16758,-4.80397 1.37133,-3.17327 1.90215,-4.31917 0.97321,0 3.58315,0.0881 2.60993,0.0881 4.60056,0.0881 h 0.61931 q 0.92897,0 3.36196,-0.0881 2.47723,-0.0881 4.24667,-0.0881 v 2.90883 h -2.34452 q -1.90215,0 -3.14077,0.57295 -1.19437,0.52888 -1.72521,1.67478 -0.53084,1.1459 -0.70778,2.24773 -0.13271,1.05776 -0.13271,2.82068 l 1.15014,42.79506 q 0,7.40429 5.79495,7.40429 h 2.65418 v 2.77661 q -1.50404,0 -5.75072,-0.0881 -4.24668,-0.0882 -7.65287,-0.0882 -1.72521,0 -5.88342,0.0882 -4.15821,0.0881 -7.25474,0.0881 v -2.77661 h 2.34452 q 3.45043,0 4.6448,-1.67479 1.23862,-1.71884 1.15015,-5.7295 -0.13271,-6.56691 -0.30966,-19.48035 -0.17694,-12.95751 -0.30965,-19.52441 h -0.17695 q -1.54826,3.1292 -19.50818,39.70992 -1.01743,2.02737 -2.38876,5.20064 -1.37132,3.17327 -1.76945,4.01066 -0.39812,1.05775 -1.54826,1.05775 z m 66.75248,-35.91963 h 11.05906 q 1.9464,0 3.31772,-0.4848 1.37132,-0.52888 2.07911,-1.18998 0.70777,-0.70518 1.1059,-1.85108 0.39813,-1.18997 0.4866,-2.07143 0.0885,-0.92554 0.0885,-2.24774 h 3.09654 q 0,1.18998 -0.0885,4.62768 -0.0885,3.43772 -0.0885,5.20064 0,1.45442 0.0885,4.84805 0.0885,3.39363 0.0885,5.64137 h -3.09654 q 0,-3.74622 -0.44236,-5.28879 -0.44237,-1.58663 -1.63674,-2.20365 -1.10591,-0.61702 -4.9987,-0.61702 h -9.68774 q -1.23861,0 -1.37132,1.41033 v 18.59888 q 0,4.05474 1.81369,5.68545 1.85792,1.6307 6.19307,1.6307 h 6.32578 q 7.91829,0 10.39552,-1.98329 3.45043,-3.26142 5.83918,-9.12315 0.57508,0.13222 1.59251,0.4848 1.01743,0.30851 1.4598,0.44073 l -3.14078,13.61862 q -2.52146,0 -9.90891,-0.0881 -7.38746,-0.0882 -13.40359,-0.0882 -2.34452,0 -11.19177,0.0882 -8.80301,0.0881 -13.80171,0.0881 v -2.77661 h 2.78689 q 3.36195,0 4.24668,-1.58664 0.92896,-1.6307 0.92896,-5.81765 v -43.45616 q 0,-1.54255 -0.13271,-2.55623 -0.1327,-1.05777 -0.57507,-2.07145 -0.44237,-1.01368 -1.41556,-1.49849 -0.92896,-0.52887 -2.38877,-0.52887 h -3.185 v -2.90883 l 22.56049,0.17629 q 3.27348,0.0441 10.26281,-0.0441 7.03355,-0.13222 11.28024,-0.13222 l 1.28285,13.26603 h -3.09654 q -1.63674,-9.91647 -11.01482,-9.82832 -0.0885,0 -0.26542,0 h -0.30966 -13.13816 z"
       id="home"
       style="font-size:137.606px;line-height:1.25;font-family:Epic;-inkscape-font-specification:'Epic, Normal';font-variant-ligatures:none;text-align:center;text-anchor:middle;fill:url(#linearGradient12);stroke-width:0.616556"
       aria-label="HOME" /><path
       d="m 397.31039,267.87554 c 6.60847,0 10.19825,-3.46979 10.19825,-8.0436 0,-4.84982 -3.87533,-6.66357 -9.46397,-7.92531 -4.60962,-1.06459 -7.0164,-1.93203 -7.0164,-4.45551 0,-2.16862 2.20281,-4.10066 5.34388,-4.10066 2.85551,0 5.67023,1.2223 8.03622,3.31207 l 2.36601,-2.99664 c -2.69235,-2.2869 -5.91499,-3.82464 -10.23906,-3.82464 -5.62944,0 -9.70875,3.43034 -9.70875,7.96473 0,4.88924 3.79376,6.54527 9.50478,7.84644 4.69121,1.02517 7.01641,2.0109 7.01641,4.57382 0,2.16861 -1.99886,4.14008 -5.8742,4.14008 -3.79375,0 -6.73085,-1.49831 -9.21922,-3.78522 l -2.48837,2.95721 c 2.97788,2.76005 6.85322,4.33723 11.54442,4.33723 z m 34.71487,-0.43373 h 4.1201 v -23.38163 h 9.21923 v -3.70635 h -22.51776 v 3.70635 h 9.17843 z m 41.93519,0.47315 c 7.0164,0 12.03395,-4.92867 12.03395,-11.86824 v -15.69289 h -4.16089 v 15.61403 c 0,4.84982 -3.26345,8.3196 -7.87306,8.3196 -4.6504,0 -7.91385,-3.46978 -7.91385,-8.3196 v -15.61403 h -4.1201 v 15.69289 c 0,6.93957 4.97676,11.86824 12.03395,11.86824 z m 30.47239,-0.47315 h 9.66795 c 9.05605,0 15.50135,-5.63841 15.50135,-13.56371 0,-7.9253 -6.4453,-13.52427 -15.50135,-13.52427 h -9.66795 z m 4.12009,-3.6275 v -19.83298 h 5.79261 c 6.4861,0 11.01412,4.10066 11.01412,9.89677 0,5.83555 -4.52802,9.93621 -11.01412,9.93621 z m 38.18223,3.6275 h 4.12009 v -27.08798 h -4.12009 z m 35.40833,0.47315 c 7.87305,0 14.48152,-6.42699 14.48152,-14.03686 0,-7.60987 -6.60847,-13.99742 -14.48152,-13.99742 -7.87306,0 -14.56312,6.38755 -14.56312,13.99742 0,7.60987 6.69006,14.03686 14.56312,14.03686 z m 0,-3.66693 c -5.58864,0 -10.32064,-4.73152 -10.32064,-10.36993 0,-5.59897 4.732,-10.3305 10.32064,-10.3305 5.58864,0 10.27984,4.73153 10.27984,10.3305 0,5.63841 -4.6912,10.36993 -10.27984,10.36993 z"
       id="studio"
       style="font-weight:500;font-size:61.0287px;line-height:1.25;font-family:Metropolis;-inkscape-font-specification:'Metropolis, Medium';font-variant-ligatures:no-common-ligatures discretionary-ligatures no-contextual;text-align:center;text-anchor:middle;fill:#988155;stroke-width:0.668427"
       aria-label="S T U D I O" /></g></svg>
